SplineFontDB: 3.2
FontName: D-DIN-PRO-SemiBold
FullName: D-DIN-PRO-SemiBold
FamilyName: D-DIN-PRO
Weight: Semibold
Copyright: Copyright (c) CyberFei. All rights reserved
Version: 1.1.0
ItalicAngle: 0
UnderlinePosition: -150
UnderlineWidth: 50
Ascent: 831
Descent: 169
InvalidEm: 0
sfntRevision: 0x00010000
LayerCount: 2
Layer: 0 0 "Back" 1
Layer: 1 0 "Fore" 0
XUID: [1021 868 -1451673819 11851]
StyleMap: 0x0040
FSType: 4
OS2Version: 3
OS2_WeightWidthSlopeOnly: 0
OS2_UseTypoMetrics: 0
CreationTime: 1462909513
ModificationTime: 1778060076
PfmFamily: 17
TTFWeight: 600
TTFWidth: 5
LineGap: 86
VLineGap: 0
Panose: 2 11 5 4 3 2 2 3 2 4
OS2TypoAscent: 831
OS2TypoAOffset: 0
OS2TypoDescent: -169
OS2TypoDOffset: 0
OS2TypoLinegap: 86
OS2WinAscent: 902
OS2WinAOffset: 0
OS2WinDescent: 184
OS2WinDOffset: 0
HheadAscent: 831
HheadAOffset: 0
HheadDescent: -169
HheadDOffset: 0
OS2SubXSize: 650
OS2SubYSize: 600
OS2SubXOff: 0
OS2SubYOff: 75
OS2SupXSize: 650
OS2SupYSize: 600
OS2SupXOff: 0
OS2SupYOff: 350
OS2StrikeYSize: 50
OS2StrikeYPos: 304
OS2CapHeight: 690
OS2XHeight: 507
OS2Vendor: 'MONO'
OS2CodePages: 20000001.00000000
OS2UnicodeRanges: 8000006f.4000000a.00000000.00000000
Lookup: 1 0 0 "'rtla' Right to Left Alternates lookup 0" { "'rtla' Right to Left Alternates lookup 0 subtable"  } ['rtla' ('DFLT' <'dflt' > ) ]
Lookup: 1 0 0 "'sups' Superscript lookup 1" { "'sups' Superscript lookup 1 subtable" ("superior") } ['sups' ('DFLT' <'dflt' > ) ]
Lookup: 4 0 0 "'frac' Diagonal Fractions lookup 2" { "'frac' Diagonal Fractions lookup 2 subtable"  } ['frac' ('DFLT' <'dflt' > ) ]
Lookup: 4 0 0 "'dlig' Discretionary Ligatures in Latin lookup 3" { "'dlig' Discretionary Ligatures in Latin lookup 3 subtable"  } ['dlig' ('latn' <'dflt' > ) ]
Lookup: 4 0 1 "'liga' Standard Ligatures in Latin lookup 4" { "'liga' Standard Ligatures in Latin lookup 4 subtable"  } ['liga' ('latn' <'dflt' > ) ]

StartChar: .notdef
Encoding: 65536 -1 0
Width: 601
GlyphClass: 1
Flags: MW
HStem: 0.00976562 71.8203<173.799 445.014 173.799 516.834> 619.93 71.8203<173.799 445.014 173.799 173.799>
VStem: 101.979 71.8203<71.8301 71.8301 71.8301 619.93> 445.014 71.8203<71.8301 619.93 619.93 619.93>
LayerCount: 2
Fore
SplineSet
101.978515625 691.75 m 1
 516.833984375 691.75 l 1
 516.833984375 0.009765625 l 1
 101.978515625 0.009765625 l 1
 101.978515625 691.75 l 1
173.798828125 71.830078125 m 1
 445.013671875 71.830078125 l 1
 445.013671875 619.9296875 l 1
 173.798828125 619.9296875 l 1
 173.798828125 71.830078125 l 1
EndSplineSet
EndChar

StartChar: exclam
Encoding: 33 33 3
Width: 256
GlyphClass: 2
Flags: MW
HStem: 0.00976562 127.575<77.4092 201.204 77.4092 201.204> 671.75 20G<79.6738 199.885 199.885 199.885>
VStem: 77.4092 123.795<0.00976562 127.585 0.00976562 127.585> 94.0283 91.501<185.23 185.23>
LayerCount: 2
Fore
SplineSet
199.884765625 691.75 m 1xd0
 185.529296875 185.23046875 l 1
 94.0283203125 185.23046875 l 1
 79.673828125 691.75 l 1
 199.884765625 691.75 l 1xd0
77.4091796875 127.584960938 m 1xe0
 201.204101562 127.584960938 l 1
 201.204101562 0.009765625 l 1
 77.4091796875 0.009765625 l 1
 77.4091796875 127.584960938 l 1xe0
EndSplineSet
EndChar

StartChar: quotedbl
Encoding: 34 34 4
Width: 321
GlyphClass: 2
Flags: MW
HStem: 434.71 257.04<56.6191 158.679 56.6191 158.679 56.6191 185.139 185.139 287.199>
VStem: 56.6191 102.06<434.71 691.75 434.71 691.75> 185.139 102.061<434.71 691.75 434.71 691.75>
LayerCount: 2
Fore
SplineSet
56.619140625 691.75 m 1
 158.678710938 691.75 l 1
 158.678710938 434.709960938 l 1
 56.619140625 434.709960938 l 1
 56.619140625 691.75 l 1
185.138671875 691.75 m 1
 287.19921875 691.75 l 1
 287.19921875 434.709960938 l 1
 185.138671875 434.709960938 l 1
 185.138671875 691.75 l 1
EndSplineSet
EndChar

StartChar: numbersign
Encoding: 35 35 5
Width: 516
GlyphClass: 2
Flags: MW
HStem: 0.00976562 21G<77.4678 174.202 77.4678 77.4678 264.578 361.312 264.578 264.578> 208.855 92.6094<30.1592 104.873 30.1592 117.633 213.419 291.982 30.1592 201.607 400.529 482.814> 406.36 91.665<52.8389 131.344 52.8389 143.164 52.8389 227.131 238.956 317.509 426.066 505.494> 671.75 20G<168.68 264.471 264.471 264.471 354.845 451.581 451.581 451.581>
LayerCount: 2
Fore
SplineSet
505.494140625 498.025390625 m 1
 505.494140625 406.360351562 l 1
 414.240234375 406.360351562 l 1
 400.529296875 301.46484375 l 1
 482.814453125 301.46484375 l 1
 482.814453125 208.85546875 l 1
 388.716796875 208.85546875 l 1
 361.311523438 0.009765625 l 1
 264.578125 0.009765625 l 1
 291.982421875 208.85546875 l 1
 201.607421875 208.85546875 l 1
 174.202148438 0.009765625 l 1
 77.4677734375 0.009765625 l 1
 104.873046875 208.85546875 l 1
 30.1591796875 208.85546875 l 1
 30.1591796875 301.46484375 l 1
 117.6328125 301.46484375 l 1
 131.34375 406.360351562 l 1
 52.8388671875 406.360351562 l 1
 52.8388671875 498.025390625 l 1
 143.1640625 498.025390625 l 1
 168.6796875 691.75 l 1
 264.470703125 691.75 l 1
 238.956054688 498.025390625 l 1
 329.329101562 498.025390625 l 1
 354.844726562 691.75 l 1
 451.581054688 691.75 l 1
 426.06640625 498.025390625 l 1
 505.494140625 498.025390625 l 1
303.796875 301.46484375 m 1
 317.508789062 406.360351562 l 1
 227.130859375 406.360351562 l 1
 213.418945312 301.46484375 l 1
 303.796875 301.46484375 l 1
EndSplineSet
EndChar

StartChar: dollar
Encoding: 36 36 6
Width: 464
GlyphClass: 2
Flags: MW
VStem: 36.1943 104.638<237.205 237.205> 48.1143 105.841<464.231 504.005 464.231 504.258> 188.919 94.501<133.523 285.84> 322.627 103.411<460.225 481.818> 328.779 105.84<188.438 233.499>
LayerCount: 2
Fore
SplineSet
283.418945312 393.71484375 m 1x70
 367.079101562 378.13671875 434.619140625 329.849609375 434.619140625 214.525390625 c 0
 434.619140625 162.349609375 419.958007812 118.133789062 389.189453125 84.830078125 c 0
 362.2578125 55.6806640625 326.34765625 37.6123046875 283.419921875 30.0244140625 c 1
 283.419921875 -55.7451171875 l 1
 188.919921875 -55.7451171875 l 1
 188.919921875 29.201171875 l 1
 147.495117188 36.931640625 48.8212890625 66.7470703125 37.7744140625 215.875976562 c 2
 36.1943359375 237.205078125 l 1
 140.83203125 237.205078125 l 1xa8
 144.6640625 196.5859375 148.802734375 152.708984375 188.918945312 133.5234375 c 1
 188.918945312 307.637695312 l 1
 62.919921875 336.756835938 48.1142578125 422.208007812 48.1142578125 479.125 c 0
 48.1142578125 529.391601562 62.1181640625 572.334960938 91.4052734375 605.237304688 c 0
 116.71484375 633.670898438 149.828125 651.75390625 188.918945312 659.555664062 c 1
 188.918945312 739.943359375 l 1
 283.418945312 739.943359375 l 1
 283.418945312 660.407226562 l 1
 320.579101562 652.776367188 352.272460938 635.791015625 376.864257812 609.333984375 c 0
 405.736328125 578.267578125 421.384765625 534.990234375 426.038085938 481.818359375 c 2
 427.927734375 460.224609375 l 1
 322.626953125 460.224609375 l 1
 320.279296875 492.081054688 318.693359375 513.608398438 305.658203125 534.424804688 c 0
 299.853515625 543.694335938 292.671875 550.8671875 283.418945312 556.111328125 c 1
 283.418945312 393.71484375 l 1x70
188.919921875 555.954101562 m 1
 169.818359375 545.982421875 153.955078125 524.161132812 153.955078125 483.849609375 c 0x60
 153.955078125 444.612304688 168.8359375 427.171875 188.919921875 416.697265625 c 1
 188.919921875 555.954101562 l 1
283.419921875 130.77734375 m 1
 303.247070312 137.921875 328.779296875 155.315429688 328.779296875 209.799804688 c 0x28
 328.779296875 257.197265625 311.313476562 274.345703125 283.419921875 285.83984375 c 1
 283.419921875 130.77734375 l 1
142.614257812 670.014648438 m 1024
EndSplineSet
EndChar

StartChar: percent
Encoding: 37 37 7
Width: 821
GlyphClass: 2
Flags: MW
HStem: -5.66113 94.5<648.74 663.22 648.74 718.12> 252.325 94.5<173.405 187.885 173.405 242.785> 344.934 95.4453<648.65 662.848> 602.919 95.4463<173.315 187.513>
VStem: 46.2236 103.95<412.03 414.864 414.864 537.714> 210.654 104.895<414.864 537.714 537.714 543.385> 521.559 103.95<154.044 156.878 156.878 279.729> 685.989 104.895<156.878 279.729 279.729 285.399>
LayerCount: 2
Fore
SplineSet
180.4140625 252.325195312 m 0xdf
 102.728515625 252.325195312 46.2236328125 293.176757812 46.2236328125 412.030273438 c 2
 46.2236328125 543.384765625 l 2
 46.2236328125 590.740234375 56.216796875 629.545898438 79.7451171875 657.31640625 c 0
 103.532226562 685.39453125 138.672851562 698.365234375 180.4140625 698.365234375 c 0
 256.55078125 698.365234375 315.548828125 660.561523438 315.548828125 543.384765625 c 2
 315.548828125 412.030273438 l 2
 315.548828125 358.231445312 305.15625 252.325195312 180.4140625 252.325195312 c 0xdf
657.8515625 691.75 m 1
 283.911132812 0.009765625 l 1
 179.255859375 0.009765625 l 1
 553.196289062 691.75 l 1
 657.8515625 691.75 l 1
210.654296875 414.864257812 m 2
 210.654296875 537.713867188 l 2
 210.654296875 566.53515625 206.56640625 585.459960938 202.212890625 593.408203125 c 0
 199.083984375 599.12109375 194.611328125 602.918945312 180.4140625 602.918945312 c 0
 166.216796875 602.918945312 161.744140625 599.12109375 158.614257812 593.408203125 c 0
 154.26171875 585.459960938 150.173828125 566.53515625 150.173828125 537.713867188 c 2
 150.173828125 414.864257812 l 2
 150.173828125 384.729492188 154.296875 364.8828125 158.70703125 356.637695312 c 0
 161.950195312 350.575195312 166.396484375 346.825195312 180.4140625 346.825195312 c 0
 195.356445312 346.825195312 199.598632812 350.79296875 202.424804688 356.31640625 c 0
 206.697265625 364.666992188 210.654296875 384.688476562 210.654296875 414.864257812 c 2
655.749023438 -5.6611328125 m 0
 578.063476562 -5.6611328125 521.55859375 35.19140625 521.55859375 154.043945312 c 2
 521.55859375 285.399414062 l 2
 521.55859375 332.754882812 531.551757812 371.559570312 555.080078125 399.331054688 c 0
 578.8671875 427.408203125 614.0078125 440.37890625 655.749023438 440.37890625 c 0xbf
 731.885742188 440.37890625 790.883789062 402.575195312 790.883789062 285.399414062 c 2
 790.883789062 154.043945312 l 2
 790.883789062 100.24609375 780.491210938 -5.6611328125 655.749023438 -5.6611328125 c 0
685.989257812 156.877929688 m 2
 685.989257812 279.728515625 l 2
 685.989257812 308.548828125 681.901367188 327.473632812 677.547851562 335.421875 c 0
 674.418945312 341.135742188 669.946289062 344.93359375 655.749023438 344.93359375 c 0
 641.551757812 344.93359375 637.079101562 341.135742188 633.94921875 335.421875 c 0
 629.596679688 327.473632812 625.508789062 308.548828125 625.508789062 279.728515625 c 2
 625.508789062 156.877929688 l 2
 625.508789062 126.743164062 629.631835938 106.896484375 634.04296875 98.6513671875 c 0
 637.28515625 92.58984375 641.731445312 88.8388671875 655.749023438 88.8388671875 c 0
 670.69140625 88.8388671875 674.93359375 92.806640625 677.759765625 98.3310546875 c 0
 682.03125 106.6796875 685.989257812 126.702148438 685.989257812 156.877929688 c 2
EndSplineSet
EndChar

StartChar: ampersand
Encoding: 38 38 8
Width: 598
GlyphClass: 2
Flags: MW
HStem: -9.44043 99.2256<230.769 259.72 230.769 275.183> 0.00976562 101.115<481.524 554.635 513.054 554.635 513.054 554.635> 604.81 96.3906<256.093 272.947>
VStem: 62.2891 103.952<162.083 195.142 162.083 208.196> 107.649 103.95<536.527 556.869 536.527 567.362> 316.493 103.006<532.259 557.483>
LayerCount: 2
Fore
SplineSet
419.499023438 547.165039062 m 0xac
 419.499023438 479.885742188 385.192382812 432.638671875 315.456054688 369.286132812 c 1
 406.817382812 238.876953125 l 1
 471.252929688 324.791015625 l 1
 545.59375 259.940429688 l 1
 466.643554688 153.698242188 l 1
 491.494140625 118.197265625 l 2
 501.810546875 103.538085938 509.176757812 101.125 513.053710938 101.125 c 2
 554.634765625 101.125 l 1
 554.634765625 0.009765625 l 1
 502.658203125 0.009765625 l 2x6c
 460.390625 0.009765625 438.638671875 14.8876953125 413.680664062 50.9375 c 0
 413.625976562 51.015625 407.489257812 59.6923828125 401.037109375 68.8134765625 c 1
 359.543945312 23.1279296875 310.416992188 -9.4404296875 239.94921875 -9.4404296875 c 0
 186.1640625 -9.4404296875 141.255859375 7.1572265625 109.154296875 41.8134765625 c 0
 77.5068359375 75.978515625 62.2890625 120.979492188 62.2890625 173.889648438 c 0xb4
 62.2890625 242.501953125 94.552734375 303.569335938 180.794921875 383.891601562 c 1
 154.352539062 422.995117188 136.1875 452.157226562 125.850585938 472.526367188 c 0
 113.916015625 496.043945312 107.649414062 520.453125 107.649414062 545.275390625 c 0
 107.649414062 589.44921875 122.529296875 627.793945312 152.295898438 657.198242188 c 0
 182.00390625 686.544921875 220.40625 701.200195312 264.518554688 701.200195312 c 0
 308.625 701.200195312 346.829101562 686.530273438 375.971679688 657.024414062 c 0
 404.919921875 627.713867188 419.499023438 590.125976562 419.499023438 547.165039062 c 0xac
257.600585938 452.419921875 m 1
 303.434570312 495.352539062 316.493164062 516.407226562 316.493164062 548.110351562 c 0
 316.493164062 566.85546875 311.3671875 579.805664062 301.984375 589.858398438 c 0
 292.70703125 599.797851562 281.375 604.809570312 264.518554688 604.809570312 c 0
 247.666992188 604.809570312 236.063476562 599.78125 226.41796875 589.6875 c 0
 216.895507812 579.72265625 211.599609375 566.573242188 211.599609375 547.165039062 c 0
 211.599609375 525.889648438 220.083984375 507.793945312 257.600585938 452.419921875 c 1
238.510742188 301.720703125 m 1
 184.108398438 249.923828125 166.241210938 213.55859375 166.241210938 176.724609375 c 0
 166.241210938 147.44140625 173.790039062 126.833007812 187.124023438 112.04296875 c 0
 200.248046875 97.48828125 217.806640625 89.78515625 243.73046875 89.78515625 c 0xb4
 275.709960938 89.78515625 301.241210938 103.08203125 341.881835938 152.9296875 c 1
 238.510742188 301.720703125 l 1
EndSplineSet
EndChar

StartChar: quotesingle
Encoding: 39 39 9
Width: 191
GlyphClass: 2
Flags: MW
HStem: 434.71 257.04<56.6191 158.679 56.6191 158.679>
VStem: 56.6191 102.06<434.71 691.75 434.71 691.75>
LayerCount: 2
Fore
SplineSet
56.619140625 691.75 m 1
 158.678710938 691.75 l 1
 158.678710938 434.709960938 l 1
 56.619140625 434.709960938 l 1
 56.619140625 691.75 l 1
EndSplineSet
EndChar

StartChar: parenleft
Encoding: 40 40 10
Width: 302
GlyphClass: 2
Flags: MW
VStem: 62.2891 104.895<289.018 411.021 289.018 434.422>
LayerCount: 2
Fore
SplineSet
62.2890625 329.815429688 m 0
 62.2890625 539.028320312 147.9921875 681.142578125 183.481445312 739 c 1
 275.189453125 739 l 1
 260.47265625 710.15625 l 2
 217.271484375 625.48046875 167.18359375 492.2265625 167.18359375 329.815429688 c 0
 167.18359375 248.219726562 180.217773438 103.567382812 260.396484375 -50.3779296875 c 2
 275.497070312 -79.3701171875 l 1
 182.427734375 -79.3701171875 l 1
 147.141601562 -20.759765625 62.2890625 122.616210938 62.2890625 329.815429688 c 0
EndSplineSet
Substitution2: "'rtla' Right to Left Alternates lookup 0 subtable" parenright
EndChar

StartChar: parenright
Encoding: 41 41 11
Width: 302
GlyphClass: 2
Flags: MW
VStem: 158.679 103.951<297.899 359.521>
LayerCount: 2
Fore
SplineSet
158.678710938 329.815429688 m 0
 158.678710938 389.227539062 152.328125 537.90625 64.4462890625 710.15625 c 2
 49.7294921875 739 l 1
 141.376953125 739 l 1
 176.908203125 681.671875 262.629882812 540.918945312 262.629882812 329.815429688 c 0
 262.629882812 122.305664062 177.475585938 -21.259765625 142.491210938 -79.3701171875 c 1
 49.421875 -79.3701171875 l 1
 79.8349609375 -20.9765625 110.674804688 38.2353515625 134.678710938 136.1015625 c 0
 150.704101562 201.435546875 158.678710938 265.983398438 158.678710938 329.815429688 c 0
EndSplineSet
Substitution2: "'rtla' Right to Left Alternates lookup 0 subtable" parenleft
EndChar

StartChar: asterisk
Encoding: 42 42 12
Width: 387
GlyphClass: 2
Flags: MW
HStem: 392.185 299.565<163.404 245.619 163.404 245.619>
VStem: 163.404 82.2148<392.185 475.816 475.816 475.816 613.788 691.75>
LayerCount: 2
Fore
SplineSet
245.619140625 392.184570312 m 1
 163.404296875 392.184570312 l 1
 163.404296875 475.81640625 l 1
 94.822265625 435.943359375 l 1
 54.9638671875 504.271484375 l 1
 125.421875 545.104492188 l 1
 54.8779296875 585.186523438 l 1
 94.822265625 653.661132812 l 1
 163.404296875 613.788085938 l 1
 163.404296875 691.75 l 1
 245.619140625 691.75 l 1
 245.619140625 613.58984375 l 1
 315.55859375 653.78515625 l 1
 353.783203125 584.98046875 l 1
 283.6015625 545.104492188 l 1
 353.701171875 504.478515625 l 1
 315.55859375 435.8203125 l 1
 245.619140625 476.015625 l 1
 245.619140625 392.184570312 l 1
EndSplineSet
EndChar

StartChar: plus
Encoding: 43 43 13
Width: 517
GlyphClass: 2
Flags: MW
HStem: 229.646 102.06<60.3994 217.269 60.3994 217.269 319.329 476.199>
VStem: 217.269 102.061<72.7754 229.646 72.7754 229.646 331.705 488.575>
LayerCount: 2
Fore
SplineSet
319.329101562 229.645507812 m 1
 319.329101562 72.775390625 l 1
 217.268554688 72.775390625 l 1
 217.268554688 229.645507812 l 1
 60.3994140625 229.645507812 l 1
 60.3994140625 331.705078125 l 1
 217.268554688 331.705078125 l 1
 217.268554688 488.575195312 l 1
 319.329101562 488.575195312 l 1
 319.329101562 331.705078125 l 1
 476.19921875 331.705078125 l 1
 476.19921875 229.645507812 l 1
 319.329101562 229.645507812 l 1
EndSplineSet
EndChar

StartChar: comma
Encoding: 44 44 14
Width: 191
GlyphClass: 2
Flags: MW
HStem: -155.475 283.06<56.6191 158.679>
VStem: 56.6191 102.06<-59.6006 127.585 -59.6006 127.585 -59.6006 127.585>
LayerCount: 2
Fore
SplineSet
56.619140625 127.584960938 m 1
 158.678710938 127.584960938 l 1
 158.678710938 -59.6005859375 l 1
 56.619140625 -155.474609375 l 1
 56.619140625 127.584960938 l 1
EndSplineSet
EndChar

StartChar: hyphen
Encoding: 45 45 15
Width: 403
GlyphClass: 2
Flags: MW
HStem: 296.74 102.06<62.2891 361.854 62.2891 361.854>
VStem: 62.2891 299.564<296.74 398.8 296.74 398.8>
LayerCount: 2
Fore
SplineSet
62.2890625 398.799804688 m 1
 361.853515625 398.799804688 l 1
 361.853515625 296.740234375 l 1
 62.2890625 296.740234375 l 1
 62.2890625 398.799804688 l 1
EndSplineSet
EndChar

StartChar: period
Encoding: 46 46 16
Width: 212
GlyphClass: 2
Flags: MW
HStem: 0.00976562 126.63<56.6191 179.469 56.6191 179.469>
VStem: 56.6191 122.85<0.00976562 126.64 0.00976562 126.64>
LayerCount: 2
Fore
SplineSet
56.619140625 126.639648438 m 1
 179.46875 126.639648438 l 1
 179.46875 0.009765625 l 1
 56.619140625 0.009765625 l 1
 56.619140625 126.639648438 l 1
EndSplineSet
EndChar

StartChar: slash
Encoding: 47 47 17
Width: 402
GlyphClass: 2
Flags: MW
HStem: 671.75 20G<269.675 367.887 367.887 367.887>
VStem: 55.3115 312.575
LayerCount: 2
Fore
SplineSet
367.88671875 691.75 m 1
 153.522460938 -9.4404296875 l 1
 55.3115234375 -9.4404296875 l 1
 269.674804688 691.75 l 1
 367.88671875 691.75 l 1
EndSplineSet
EndChar

StartChar: zero
Encoding: 48 48 18
Width: 499
GlyphClass: 2
Flags: MW
HStem: -9.44043 102.061<242.815 274.874 242.815 352.898> 599.14 102.061<242.815 274.873>
VStem: 68.9043 108.674<219.25 232.48 232.48 459.28> 341.063 108.676<232.48 459.28 459.28 476.29>
LayerCount: 2
Fore
SplineSet
258.848632812 -9.4404296875 m 0
 168.017578125 -9.4404296875 68.904296875 33.1875 68.904296875 219.25 c 2
 68.904296875 476.290039062 l 2
 68.904296875 526.13671875 71.84375 701.200195312 258.848632812 701.200195312 c 0
 349.838867188 701.200195312 449.739257812 659.486328125 449.739257812 476.290039062 c 2
 449.739257812 219.25 l 2
 449.739257812 168.806640625 446.947265625 -9.4404296875 258.848632812 -9.4404296875 c 0
341.063476562 232.48046875 m 2
 341.063476562 459.280273438 l 2
 341.063476562 515.060546875 332.689453125 552.524414062 320.563476562 571.44140625 c 0
 309.141601562 589.258789062 290.8984375 599.139648438 258.84765625 599.139648438 c 0
 226.783203125 599.139648438 208.807617188 589.272460938 197.702148438 571.594726562 c 0
 185.799804688 552.647460938 177.578125 515.083984375 177.578125 459.280273438 c 2
 177.578125 232.48046875 l 2
 177.578125 176.676757812 185.799804688 139.11328125 197.702148438 120.165039062 c 0
 208.807617188 102.48828125 226.783203125 92.6201171875 258.84765625 92.6201171875 c 0
 290.899414062 92.6201171875 309.142578125 102.500976562 320.564453125 120.319335938 c 0
 332.690429688 139.235351562 341.063476562 176.69921875 341.063476562 232.48046875 c 2
EndSplineSet
EndChar

StartChar: one
Encoding: 49 49 19
Width: 342
GlyphClass: 2
Flags: MW
HStem: 0.00976562 21G<166.239 273.969 166.239 166.239> 671.75 20G<178.38 273.969 273.969 273.969>
VStem: 166.239 107.729<0.00976562 552.904 552.904 552.904>
LayerCount: 2
Fore
SplineSet
53.7841796875 468.799804688 m 1
 53.7841796875 595.663085938 l 1
 178.379882812 691.75 l 1
 273.96875 691.75 l 1
 273.96875 0.009765625 l 1
 166.239257812 0.009765625 l 1
 166.239257812 552.904296875 l 1
 53.7841796875 468.799804688 l 1
EndSplineSet
Substitution2: "'sups' Superscript lookup 1 subtable" uni00B9
EndChar

StartChar: two
Encoding: 50 50 20
Width: 475
GlyphClass: 2
Flags: MW
HStem: 0.00976562 101.115<205.124 432.729 205.124 432.729> 600.084 101.115<225.82 258.332>
VStem: 62.2881 107.73<477.234 514.089 477.234 517.869 477.234 544.502> 323.108 109.62<503.695 517.87 517.87 519.759>
LayerCount: 2
Fore
SplineSet
247.5078125 701.19921875 m 0
 359.141601562 701.19921875 432.728515625 622.217773438 432.728515625 519.758789062 c 2
 432.728515625 503.694335938 l 2
 432.728515625 459.995117188 420.240234375 410.891601562 372.356445312 341.939453125 c 2
 205.124023438 101.125 l 1
 432.728515625 101.125 l 1
 432.728515625 0.009765625 l 1
 62.2890625 0.009765625 l 1
 62.2890625 81.853515625 l 1
 285.008789062 400.575195312 l 2
 311.25 439.376953125 323.108398438 473.793945312 323.108398438 503.6953125 c 2
 323.108398438 517.870117188 l 2
 323.108398438 545.661132812 315.612304688 564.872070312 302.217773438 578.744140625 c 0
 288.749023438 592.693359375 271.045898438 600.083984375 245.618164062 600.083984375 c 0
 206.021484375 600.083984375 170.018554688 581.538085938 170.018554688 514.088867188 c 2
 170.018554688 477.234375 l 1
 62.2880859375 477.234375 l 1
 62.2880859375 517.869140625 l 2
 62.2880859375 571.134765625 78.927734375 616.43359375 112.991210938 650.49609375 c 0
 147.162109375 684.666992188 193.1171875 701.19921875 247.5078125 701.19921875 c 0
EndSplineSet
Substitution2: "'sups' Superscript lookup 1 subtable" uni00B2
EndChar

StartChar: three
Encoding: 51 51 21
Width: 501
GlyphClass: 2
Flags: MW
HStem: -9.44043 101.112<242.086 270.648 242.086 283.61> 307.133 102.061<197.425 250.345 250.345 251.29 197.425 250.345> 600.083 101.115<240.942 267.126>
VStem: 64.1797 108.675<166.327 169.162 169.162 201.292 156.113 201.292> 71.7402 105.84<487.628 522.593 487.628 524.483 487.628 550.492> 332.56 107.729<497.078 498.968 498.968 515.979 515.979 519.758 481.562 529.863> 342.955 108.674<185.229 189.009 189.009 209.798 209.798 211.689 159.901 225.923>
LayerCount: 2
Fore
SplineSet
378.55859375 366.3671875 m 1xec
 405.931640625 348.102539062 451.62890625 303.81640625 451.62890625 211.689453125 c 2
 451.62890625 189.008789062 l 2
 451.62890625 130.79296875 433.799804688 81.6962890625 397.146484375 45.04296875 c 0
 360.592773438 8.4892578125 312.151367188 -9.4404296875 255.069335938 -9.4404296875 c 0
 199.243164062 -9.4404296875 152.256835938 5.7412109375 116.995117188 37.7646484375 c 0
 81.5849609375 69.9228515625 64.1796875 114.043945312 64.1796875 166.327148438 c 2
 64.1796875 201.291992188 l 1
 172.854492188 201.291992188 l 1
 172.854492188 169.162109375 l 2
 172.854492188 143.063476562 180.411132812 125.383789062 194.412109375 112.33203125 c 0
 208.630859375 99.0771484375 228.158203125 91.671875 256.014648438 91.671875 c 0
 285.28125 91.671875 305.270507812 100.181640625 319.866210938 115.993164062 c 0
 334.731445312 132.09765625 342.955078125 154.186523438 342.955078125 185.228515625 c 2
 342.955078125 209.797851562 l 2xf2
 342.955078125 242.047851562 334.306640625 265.000976562 318.57421875 281.732421875 c 0
 303.020507812 298.2734375 281.84375 307.1328125 251.290039062 307.1328125 c 2
 197.424804688 307.1328125 l 1
 197.424804688 409.193359375 l 1
 250.344726562 409.193359375 l 2
 277.5703125 409.193359375 296.322265625 417.259765625 310.3984375 432.549804688 c 0
 324.813476562 448.208007812 332.559570312 468.76171875 332.559570312 497.078125 c 2
 332.559570312 515.978515625 l 2
 332.559570312 543.748046875 325.068359375 563.438476562 311.436523438 578.043945312 c 0
 297.993164062 592.447265625 280.127929688 600.083007812 254.125 600.083007812 c 0
 227.759765625 600.083007812 210.127929688 592.7578125 197.534179688 579.698242188 c 0
 184.655273438 566.341796875 177.580078125 548.36328125 177.580078125 522.592773438 c 2
 177.580078125 487.627929688 l 1
 71.740234375 487.627929688 l 1
 71.740234375 524.483398438 l 2
 71.740234375 576.5 88.09375 620.536132812 121.731445312 653.087890625 c 0
 155.463867188 685.732421875 201.317382812 701.198242188 256.014648438 701.198242188 c 0
 310.299804688 701.198242188 356.06640625 685.072265625 389.983398438 651.515625 c 0
 423.848632812 618.009765625 440.2890625 572.962890625 440.2890625 519.7578125 c 2
 440.2890625 498.967773438 l 2
 440.2890625 464.15625 430.986328125 407.759765625 378.55859375 366.3671875 c 1xec
EndSplineSet
Substitution2: "'sups' Superscript lookup 1 subtable" uni00B3
EndChar

StartChar: four
Encoding: 52 52 22
Width: 504
GlyphClass: 2
Flags: MW
HStem: 0.00976562 21G<294.759 403.434 294.759 294.759> 127.585 102.061<168.788 294.759 168.788 294.759 403.434 474.309> 671.75 20G<252.312 364.402 364.402 364.402>
VStem: 294.759 108.675<0.00976562 127.585 0.00976562 127.585 229.646 407.305>
LayerCount: 2
Fore
SplineSet
403.43359375 229.645507812 m 1
 474.30859375 229.645507812 l 1
 474.30859375 127.584960938 l 1
 403.43359375 127.584960938 l 1
 403.43359375 0.009765625 l 1
 294.758789062 0.009765625 l 1
 294.758789062 127.584960938 l 1
 50.00390625 127.584960938 l 1
 50.00390625 213.834960938 l 1
 252.311523438 691.75 l 1
 364.40234375 691.75 l 1
 168.788085938 229.645507812 l 1
 294.758789062 229.645507812 l 1
 294.758789062 407.3046875 l 1
 403.43359375 407.3046875 l 1
 403.43359375 229.645507812 l 1
EndSplineSet
EndChar

StartChar: five
Encoding: 53 53 23
Width: 490
GlyphClass: 2
Flags: MW
HStem: -9.44043 102.061<226.585 269.298 218.845 282.286> 361 102.06<247.322 271.539> 588.745 103.005<182.303 430.838 182.303 182.303>
VStem: 68.9033 105.84<161.605 167.275 167.275 193.735 151.758 193.735> 79.2979 103.005<441.63 588.745 441.63 691.75> 332.558 108.676<195.625 257.05 257.05 260.83 159.913 304.328>
LayerCount: 2
Fore
SplineSet
263.573242188 463.059570312 m 0xec
 378.616210938 463.059570312 441.233398438 390.07421875 441.233398438 260.830078125 c 2
 441.233398438 189.955078125 l 2
 441.233398438 129.870117188 425.380859375 80.1845703125 391.43359375 44.0693359375 c 0
 357.483398438 7.953125 310.448242188 -9.4404296875 254.124023438 -9.4404296875 c 0
 199.045898438 -9.4404296875 153.064453125 5.17578125 119.224609375 36.46875 c 0
 85.3935546875 67.75390625 68.9033203125 110.721679688 68.9033203125 161.60546875 c 2
 68.9033203125 193.735351562 l 1
 174.743164062 193.735351562 l 1
 174.743164062 167.275390625 l 2xf4
 174.743164062 136.241210938 184.51171875 92.6201171875 253.177734375 92.6201171875 c 0
 285.418945312 92.6201171875 332.557617188 100.658203125 332.557617188 195.625 c 2
 332.557617188 257.049804688 l 2
 332.557617188 351.606445312 288.955078125 361 254.123046875 361 c 0
 230.03515625 361 193.346679688 353.099609375 178.455078125 308.422851562 c 2
 173.930664062 294.849609375 l 1
 79.2978515625 294.849609375 l 1
 79.2978515625 691.75 l 1
 430.837890625 691.75 l 1
 430.837890625 588.745117188 l 1
 182.302734375 588.745117188 l 1
 182.302734375 441.629882812 l 1
 204.651367188 454.505859375 231.0703125 463.059570312 263.573242188 463.059570312 c 0xec
EndSplineSet
EndChar

StartChar: six
Encoding: 54 54 24
Width: 500
GlyphClass: 2
Flags: MW
HStem: -9.44043 101.115<245.322 274.26 245.322 312.217> 323.2 102.06<269.711 274.302> 671.75 20G<260.705 376.719 376.719 376.719>
VStem: 62.2881 109.621<193.735 224.92 175.897 225.865 175.897 242.475> 348.625 108.673<191.844 195.625 195.625 223.975 223.975 227.755 175.071 240.485>
LayerCount: 2
Fore
SplineSet
62.2880859375 193.735351562 m 2
 62.2880859375 225.865234375 l 2
 62.2880859375 259.084960938 67.392578125 302.185546875 103.083984375 373.5703125 c 0
 103.116210938 373.635742188 255.228515625 680.6953125 255.228515625 680.6953125 c 1
 260.705078125 691.75 l 1
 376.71875 691.75 l 1
 244.27734375 422.422851562 l 1
 254.282226562 424.315429688 264.509765625 425.259765625 274.913085938 425.259765625 c 0
 327.991210938 425.259765625 373.208984375 407.114257812 407.087890625 370.739257812 c 0
 441.061523438 334.262695312 457.297851562 285.598632812 457.297851562 227.754882812 c 2
 457.297851562 195.625 l 2
 457.297851562 154.516601562 449.010742188 117.942382812 431.651367188 86.7666015625 c 0
 413.4921875 54.154296875 364.639648438 -9.4404296875 259.793945312 -9.4404296875 c 0
 201.48828125 -9.4404296875 152.427734375 8.79296875 116.095703125 46.1943359375 c 0
 79.7734375 83.5849609375 62.2880859375 133.842773438 62.2880859375 193.735351562 c 2
348.625 191.84375 m 2
 348.625 223.974609375 l 2
 348.625 256.99609375 340.010742188 280.548828125 324.508789062 297.551757812 c 0
 309.114257812 314.435546875 288.80859375 323.200195312 259.794921875 323.200195312 c 0
 231.440429688 323.200195312 211.370117188 314.604492188 195.92578125 297.916015625 c 0
 180.52734375 281.276367188 171.909179688 257.952148438 171.909179688 224.919921875 c 2
 171.909179688 192.790039062 l 2
 171.909179688 159.004882812 180.48046875 134.84765625 195.7578125 117.567382812 c 0
 210.8359375 100.51171875 230.8515625 91.6748046875 259.79296875 91.6748046875 c 0
 288.727539062 91.6748046875 308.983398438 100.520507812 324.409179688 117.688476562 c 0
 340.014648438 135.0546875 348.625 158.833007812 348.625 191.84375 c 2
EndSplineSet
EndChar

StartChar: seven
Encoding: 55 55 25
Width: 439
GlyphClass: 2
Flags: MW
HStem: 0.00976562 21G<85.8809 197.193 85.8809 85.8809> 589.69 102.06<44.334 301.341 44.334 415.719>
LayerCount: 2
Fore
SplineSet
415.71875 691.75 m 1
 415.71875 606.055664062 l 1
 197.193359375 0.009765625 l 1
 85.880859375 0.009765625 l 1
 301.340820312 589.690429688 l 1
 44.333984375 589.690429688 l 1
 44.333984375 691.75 l 1
 415.71875 691.75 l 1
EndSplineSet
EndChar

StartChar: eight
Encoding: 56 56 26
Width: 517
GlyphClass: 2
Flags: MW
HStem: -9.44043 101.114<253.875 282.759 253.875 326.507> 311.859 101.115<255.759 280.832 255.759 283.131> 600.084 101.116<256.094 280.498>
VStem: 68.9023 108.676<189.011 189.954 189.954 212.636 212.636 213.579 174.594 228.312> 82.1318 108.676<498.026 516.926 516.926 517.87 484.514 568.772> 346.732 108.677<498.025 516.925 478.858 517.87 478.858 530.567> 359.018 108.678<189.954 189.956 189.956 213.579 213.579 213.581 130.816 229.336>
LayerCount: 2
Fore
SplineSet
267.354492188 -9.4404296875 m 0xe2
 151.419921875 -9.4404296875 68.90234375 70.3095703125 68.90234375 189.010742188 c 2
 68.90234375 212.635742188 l 2xf2
 68.90234375 243.989257812 76.4951171875 316.918945312 141.780273438 364.564453125 c 1
 114.920898438 386.247070312 82.1318359375 427.217773438 82.1318359375 498.026367188 c 2
 82.1318359375 516.92578125 l 2
 82.1318359375 620.618164062 157.303710938 701.200195312 268.298828125 701.200195312 c 0
 380.356445312 701.200195312 455.409179688 622.482421875 455.409179688 516.924804688 c 2
 455.409179688 498.025390625 l 2xec
 455.409179688 459.690429688 445.069335938 404.760742188 394.739257812 364.4453125 c 1
 416.536132812 348.51953125 467.6953125 301.748046875 467.6953125 213.581054688 c 2
 467.6953125 189.956054688 l 2
 467.6953125 71.67578125 385.659179688 -9.4404296875 267.354492188 -9.4404296875 c 0xe2
346.732421875 498.025390625 m 2xec
 346.732421875 517.870117188 l 2
 346.732421875 543.264648438 339.310546875 562.166015625 324.791015625 577.4375 c 0
 310.423828125 592.547851562 292.698242188 600.083984375 268.296875 600.083984375 c 0
 243.891601562 600.083984375 226.408203125 592.559570312 212.395507812 577.563476562 c 0
 198.14453125 562.3125 190.807617188 543.34765625 190.807617188 517.870117188 c 2
 190.807617188 498.025390625 l 2
 190.807617188 471.001953125 198.220703125 451.141601562 212.151367188 435.71875 c 0
 225.754882812 420.658203125 243.221679688 412.974609375 268.296875 412.974609375 c 0
 293.3671875 412.974609375 311.079101562 420.668945312 325.034179688 435.848632812 c 0
 339.23046875 451.291015625 346.732421875 471.081054688 346.732421875 498.025390625 c 2xec
359.017578125 189.954101562 m 2xf2
 359.017578125 213.579101562 l 2
 359.017578125 245.09375 350.442382812 268.200195312 334.4375 285.728515625 c 0
 318.744140625 302.916992188 297.96484375 311.859375 268.296875 311.859375 c 0
 239.453125 311.859375 218.774414062 302.9140625 202.62109375 285.24609375 c 0
 186.182617188 267.265625 177.578125 244.298828125 177.578125 213.579101562 c 2
 177.578125 189.954101562 l 2
 177.578125 159.234375 186.182617188 136.267578125 202.62109375 118.287109375 c 0
 218.774414062 100.619140625 239.453125 91.673828125 268.296875 91.673828125 c 0
 297.221679688 91.673828125 317.948242188 100.537109375 334.071289062 117.919921875 c 0
 350.344726562 135.465820312 359.017578125 158.508789062 359.017578125 189.954101562 c 2xf2
EndSplineSet
EndChar

StartChar: nine
Encoding: 57 57 27
Width: 500
GlyphClass: 2
Flags: MW
HStem: 0.00976562 21G<143.908 259.86 143.908 143.908> 266.5 102.06<245.289 249.905> 600.085 101.115<245.329 274.267>
VStem: 62.29 108.676<464.005 467.785 467.785 496.135 496.135 499.915 451.274 516.689> 347.68 109.619<466.84 498.025 448.052 498.97 448.052 515.862>
LayerCount: 2
Fore
SplineSet
244.674804688 266.5 m 0
 191.54296875 266.5 146.291992188 284.85546875 112.43359375 321.564453125 c 0
 78.5732421875 358.275390625 62.2900390625 406.727539062 62.2900390625 464.004882812 c 2
 62.2900390625 496.134765625 l 2
 62.2900390625 537.243164062 70.5771484375 573.817382812 87.9365234375 604.993164062 c 0
 106.095703125 637.60546875 154.948242188 701.200195312 259.793945312 701.200195312 c 0
 318.099609375 701.200195312 367.16015625 682.966796875 403.4921875 645.56640625 c 0
 439.815429688 608.174804688 457.298828125 557.916992188 457.298828125 498.025390625 c 2
 457.298828125 465.895507812 l 2
 457.298828125 430.208984375 452.65625 391.625976562 416.638671875 318.465820312 c 2
 259.860351562 0.009765625 l 1
 143.908203125 0.009765625 l 1
 275.475585938 269.368164062 l 1
 265.41796875 267.455078125 255.135742188 266.5 244.674804688 266.5 c 0
347.6796875 466.83984375 m 2
 347.6796875 498.969726562 l 2
 347.6796875 532.754882812 339.108398438 556.912109375 323.831054688 574.192382812 c 0
 308.752929688 591.249023438 288.737304688 600.084960938 259.795898438 600.084960938 c 0
 230.861328125 600.084960938 210.606445312 591.240234375 195.1796875 574.072265625 c 0
 179.575195312 556.706054688 170.965820312 532.926757812 170.965820312 499.915039062 c 2
 170.965820312 467.78515625 l 2
 170.965820312 434.763671875 179.580078125 411.209960938 195.08203125 394.208007812 c 0
 210.475585938 377.325195312 230.78125 368.559570312 259.795898438 368.559570312 c 0
 288.896484375 368.559570312 309.015625 377.237304688 324.02734375 393.724609375 c 0
 339.161132812 410.34765625 347.6796875 433.7421875 347.6796875 466.83984375 c 2
EndSplineSet
EndChar

StartChar: colon
Encoding: 58 58 28
Width: 212
GlyphClass: 2
Flags: MW
HStem: 0.00976562 126.63<56.6191 179.469 56.6191 179.469> 319.42 126.63<56.6191 179.469 56.6191 179.469>
VStem: 56.6191 122.85<0.00976562 126.64 0.00976562 126.64 319.42 446.05>
LayerCount: 2
Fore
SplineSet
56.619140625 126.639648438 m 1
 179.46875 126.639648438 l 1
 179.46875 0.009765625 l 1
 56.619140625 0.009765625 l 1
 56.619140625 126.639648438 l 1
56.619140625 446.049804688 m 1
 179.46875 446.049804688 l 1
 179.46875 319.419921875 l 1
 56.619140625 319.419921875 l 1
 56.619140625 446.049804688 l 1
EndSplineSet
EndChar

StartChar: semicolon
Encoding: 59 59 29
Width: 212
GlyphClass: 2
Flags: MW
HStem: 319.42 126.63<56.6191 179.469 56.6191 179.469>
VStem: 56.6191 122.85<319.42 446.05> 77.4092 102.06<-59.6006 127.585 -59.6006 127.585 -59.6006 127.585>
LayerCount: 2
Fore
SplineSet
56.619140625 446.049804688 m 1xc0
 179.46875 446.049804688 l 1
 179.46875 319.419921875 l 1
 56.619140625 319.419921875 l 1
 56.619140625 446.049804688 l 1xc0
77.4091796875 127.584960938 m 1xa0
 179.46875 127.584960938 l 1
 179.46875 -59.6005859375 l 1
 77.4091796875 -155.474609375 l 1
 77.4091796875 127.584960938 l 1xa0
EndSplineSet
EndChar

StartChar: less
Encoding: 60 60 30
Width: 517
GlyphClass: 2
Flags: W
LayerCount: 2
Fore
SplineSet
60.3994140625 239.94921875 m 1
 60.3994140625 322.376953125 l 1
 476.19921875 491.622070312 l 1
 476.19921875 381.540039062 l 1
 221.953125 280.674804688 l 1
 476.19921875 179.810546875 l 1
 476.19921875 69.6591796875 l 1
 60.3994140625 239.94921875 l 1
EndSplineSet
Substitution2: "'rtla' Right to Left Alternates lookup 0 subtable" greater
EndChar

StartChar: equal
Encoding: 61 61 31
Width: 517
GlyphClass: 2
Flags: MW
HStem: 138.925 102.061<60.3994 476.199 60.3994 476.199> 319.42 103.005<60.3994 476.199 60.3994 476.199>
LayerCount: 2
Fore
SplineSet
60.3994140625 422.424804688 m 1
 476.19921875 422.424804688 l 1
 476.19921875 319.419921875 l 1
 60.3994140625 319.419921875 l 1
 60.3994140625 422.424804688 l 1
60.3994140625 240.985351562 m 1
 476.19921875 240.985351562 l 1
 476.19921875 138.924804688 l 1
 60.3994140625 138.924804688 l 1
 60.3994140625 240.985351562 l 1
EndSplineSet
EndChar

StartChar: greater
Encoding: 62 62 32
Width: 517
GlyphClass: 2
Flags: W
LayerCount: 2
Fore
SplineSet
60.3994140625 381.540039062 m 1
 60.3994140625 491.622070312 l 1
 476.19921875 322.376953125 l 1
 476.19921875 239.94921875 l 1
 60.3994140625 69.6591796875 l 1
 60.3994140625 179.810546875 l 1
 314.64453125 280.674804688 l 1
 60.3994140625 381.540039062 l 1
EndSplineSet
Substitution2: "'rtla' Right to Left Alternates lookup 0 subtable" less
EndChar

StartChar: question
Encoding: 63 63 33
Width: 437
GlyphClass: 2
Flags: MW
HStem: 0.00878906 127.575<161.515 285.31 161.515 285.31> 599.14 102.061<205.908 252.603 197.854 252.762>
VStem: 41.9668 107.848<496.135 496.135> 161.515 123.795<0.00878906 127.584 0.00878906 127.584> 169.074 108.675<168.22 242.875 168.22 243.82 168.22 270.019> 298.54 108.674<509.166 543.925>
LayerCount: 2
Fore
SplineSet
298.540039062 523.540039062 m 0xec
 298.540039062 564.309570312 281.639648438 599.139648438 223.884765625 599.139648438 c 0
 187.931640625 599.139648438 151.494140625 587.68359375 150.171875 515.609375 c 2
 149.814453125 496.134765625 l 1
 41.966796875 496.134765625 l 1
 42.4501953125 516.459960938 l 2
 43.7880859375 572.654296875 59.3740234375 618.93359375 91.494140625 652.1484375 c 0
 123.89453125 685.653320312 169.935546875 701.200195312 225.7734375 701.200195312 c 0
 279.431640625 701.200195312 324.619140625 685.224609375 357.928710938 651.915039062 c 0
 391.016601562 618.827148438 407.213867188 574.954101562 407.213867188 523.540039062 c 0
 407.213867188 478.106445312 394.7734375 440.901367188 355.346679688 385.413085938 c 2
 301.513671875 309.858398438 l 2
 281.7734375 281.98828125 277.749023438 268.068359375 277.749023438 242.875 c 2
 277.749023438 168.219726562 l 1
 169.07421875 168.219726562 l 1
 169.07421875 243.8203125 l 2
 169.07421875 296.216796875 178.573242188 321.88671875 207.920898438 361.443359375 c 0
 207.9375 361.466796875 259.029296875 430.534179688 259.029296875 430.534179688 c 2
 291.364257812 473.647460938 298.540039062 494.791992188 298.540039062 523.540039062 c 0xec
161.514648438 127.583984375 m 1xf4
 285.309570312 127.583984375 l 1
 285.309570312 0.0087890625 l 1
 161.514648438 0.0087890625 l 1
 161.514648438 127.583984375 l 1xf4
EndSplineSet
EndChar

StartChar: at
Encoding: 64 64 34
Width: 862
GlyphClass: 2
Flags: MW
HStem: -120.95 101.116<351.149 492.1 351.149 504.947> 52.9326 94.5<421.06 446.283 421.06 453.111> 416.758 94.5<422.905 429.99 363.734 446.501> 591.58 100.172<402.312 519.803>
VStem: 62.2891 106.784<255.163 319.423 319.423 321.311 175.195 355.541> 260.739 104.895<243.823 248.548 248.548 318.478 230.116 319.423 230.116 376.193> 502.659 103.949<243.823 321.312 321.312 367.181> 707.723 106.786<257.051 257.998 257.998 320.366 320.366 321.312 225.827 405.77>
LayerCount: 2
Fore
SplineSet
438.3984375 -120.950195312 m 0
 220.517578125 -120.950195312 62.2890625 27.8076171875 62.2890625 255.163085938 c 2
 62.2890625 319.422851562 l 2
 62.2890625 391.659179688 78.1279296875 456.500976562 110.2265625 513.005859375 c 0
 142.213867188 569.31640625 187.176757812 613.59765625 244.112304688 644.895507812 c 0
 301.172851562 676.260742188 366.223632812 691.751953125 438.399414062 691.751953125 c 0
 657.502929688 691.751953125 814.508789062 540.481445312 814.508789062 321.3125 c 2
 814.508789062 257.998046875 l 2
 814.508789062 193.655273438 800.91796875 142.196289062 770.045898438 106.178710938 c 0
 739.891601562 70.998046875 699.333007812 52.9326171875 651.96875 52.9326171875 c 0
 638.302734375 52.9326171875 581.209960938 53.2607421875 542.3359375 101.776367188 c 1
 521.350585938 76.1044921875 484.833007812 52.9326171875 421.388671875 52.9326171875 c 0
 368.856445312 52.9326171875 326.067382812 69.6884765625 298.779296875 105.6953125 c 0
 272.512695312 140.3515625 260.739257812 187.005859375 260.739257812 243.823242188 c 2
 260.739257812 319.422851562 l 2
 260.739257812 432.962890625 307.969726562 511.2578125 419.499023438 511.2578125 c 0
 440.481445312 511.2578125 474.159179688 508.159179688 505.493164062 487.51171875 c 1
 505.493164062 501.807617188 l 1
 606.608398438 501.807617188 l 1
 606.608398438 208.857421875 l 2
 606.608398438 184.567382812 612.215820312 169.418945312 620.044921875 160.5859375 c 0
 628.567382812 150.970703125 638.3515625 146.487304688 652.913085938 146.487304688 c 0
 671.5 146.487304688 682.705078125 152.784179688 691.827148438 167.37890625 c 0
 700.94140625 181.9609375 707.72265625 211.97265625 707.72265625 257.05078125 c 2
 707.72265625 320.366210938 l 2
 707.72265625 491.173828125 601.20703125 591.580078125 438.3984375 591.580078125 c 0
 272.5 591.580078125 169.073242188 487.698242188 169.073242188 321.310546875 c 2
 169.073242188 254.215820312 l 2
 169.073242188 96.173828125 263.899414062 -19.833984375 438.3984375 -19.833984375 c 0
 545.801757812 -19.833984375 596.956054688 7.30859375 651.443359375 36.2197265625 c 1
 689.35546875 -53.822265625 l 1
 636.625976562 -84.0927734375 571.495117188 -120.950195312 438.3984375 -120.950195312 c 0
434.619140625 147.432617188 m 0
 457.946289062 147.432617188 502.659179688 150.841796875 502.659179688 243.823242188 c 2
 502.659179688 321.3125 l 2
 502.659179688 413.048828125 458.3828125 416.7578125 434.619140625 416.7578125 c 0
 411.190429688 416.7578125 365.633789062 413.401367188 365.633789062 318.477539062 c 2
 365.633789062 248.547851562 l 2
 365.633789062 211.684570312 372.444335938 185.749023438 383.102539062 169.760742188 c 0
 392.5625 155.571289062 407.5 147.432617188 434.619140625 147.432617188 c 0
EndSplineSet
EndChar

StartChar: A
Encoding: 65 65 35
Width: 579
GlyphClass: 2
Flags: MW
HStem: 0.00976562 21G<4.6543 4.6543 4.6543 119.851 478.173 478.173 478.173 593.369> 156.88 98.2803<208.315 389.634 208.315 423.362 174.66 389.634> 671.75 20G<256.287 341.736 341.736 341.736>
LayerCount: 2
Fore
SplineSet
4.654296875 0.009765625 m 1
 256.287109375 691.75 l 1
 341.736328125 691.75 l 1
 593.369140625 0.009765625 l 1
 478.172851562 0.009765625 l 1
 423.362304688 156.879882812 l 1
 174.66015625 156.879882812 l 1
 119.850585938 0.009765625 l 1
 4.654296875 0.009765625 l 1
208.315429688 255.16015625 m 1
 389.633789062 255.16015625 l 1
 298.61328125 515.217773438 l 1
 208.315429688 255.16015625 l 1
EndSplineSet
EndChar

StartChar: B
Encoding: 66 66 36
Width: 614
GlyphClass: 2
Flags: MW
HStem: 0.00976562 101.114<190.808 338.228 338.228 346.732> 302.409 101.115<190.808 333.502 333.502 339.172 190.808 333.502> 590.634 101.116<190.808 334.447 190.808 190.808>
VStem: 82.1318 108.676<101.124 302.409 403.524 590.634> 445.012 108.677<481.422 508.608> 455.407 108.675<168.297 215.91>
LayerCount: 2
Fore
SplineSet
481.173828125 356.23828125 m 1xf8
 497.462890625 346.7578125 564.08203125 306.688476562 564.08203125 198.458984375 c 0xf4
 564.08203125 138.135742188 544.581054688 88.0625 504.525390625 52.298828125 c 0
 464.745117188 16.78125 411.206054688 0.009765625 346.732421875 0.009765625 c 2
 82.1318359375 0.009765625 l 1
 82.1318359375 691.75 l 1
 341.0625 691.75 l 2
 405.307617188 691.75 458.046875 675.958984375 496.452148438 641.860351562 c 0
 535.0859375 607.560546875 553.688476562 558.841796875 553.688476562 499.915039062 c 0
 553.688476562 462.9296875 543.7421875 428.905273438 523.907226562 399.15234375 c 0
 512.369140625 381.845703125 497.997070312 367.477539062 481.173828125 356.23828125 c 1xf8
445.01171875 496.133789062 m 0xf8
 445.01171875 521.083007812 442.661132812 590.633789062 334.447265625 590.633789062 c 2
 190.807617188 590.633789062 l 1
 190.807617188 403.524414062 l 1
 333.501953125 403.524414062 l 2
 371.546875 403.524414062 398.834960938 412.170898438 417.53515625 427.081054688 c 0
 435.141601562 441.119140625 445.01171875 462.39453125 445.01171875 496.133789062 c 0xf8
338.227539062 101.124023438 m 2
 399.58203125 101.124023438 455.407226562 123.122070312 455.407226562 203.184570312 c 0xf4
 455.407226562 228.634765625 452.916992188 302.409179688 339.171875 302.409179688 c 2
 190.807617188 302.409179688 l 1
 190.807617188 101.124023438 l 1
 338.227539062 101.124023438 l 2
EndSplineSet
EndChar

StartChar: C
Encoding: 67 67 37
Width: 610
GlyphClass: 2
Flags: MW
HStem: -7.5498 103.004<283.66 341.283 283.66 353.843> 598.193 102.06<294.081 340.308>
VStem: 68.9033 108.676<261.774 428.094> 451.629 106.785<211.69 235.315 178.913 235.315>
LayerCount: 2
Fore
SplineSet
177.579101562 257.994140625 m 2
 177.579101562 121.874023438 247.990234375 95.4541015625 319.329101562 95.4541015625 c 0
 363.236328125 95.4541015625 395.047851562 106.578125 417.610351562 126.779296875 c 0
 440.040039062 146.862304688 451.62890625 173.849609375 451.62890625 211.690429688 c 2
 451.62890625 235.315429688 l 1
 558.4140625 235.315429688 l 1
 558.4140625 211.690429688 l 2
 558.4140625 146.135742188 536.561523438 91.451171875 492.33984375 51.4423828125 c 0
 448.244140625 11.5458984375 389.301757812 -7.5498046875 318.383789062 -7.5498046875 c 0
 244.634765625 -7.5498046875 183.240234375 13.865234375 137.365234375 58.0029296875 c 0
 90.306640625 103.27734375 68.9033203125 172.577148438 68.9033203125 261.774414062 c 2
 68.9033203125 430.928710938 l 2
 68.9033203125 520.125976562 90.3056640625 589.42578125 137.364257812 634.701171875 c 0
 183.239257812 678.837890625 244.633789062 700.252929688 318.3828125 700.252929688 c 0
 465.020507812 700.252929688 560.303710938 611.901367188 560.303710938 481.013671875 c 2
 560.303710938 458.333007812 l 1
 451.62890625 458.333007812 l 1
 451.62890625 481.013671875 l 2
 451.62890625 518.78515625 439.9375 545.954101562 417.127929688 566.404296875 c 0
 394.200195312 586.959960938 362.232421875 598.193359375 318.383789062 598.193359375 c 0
 269.778320312 598.193359375 236.165039062 584.739257812 213.407226562 560.150390625 c 0
 191.250976562 536.211914062 177.579101562 493.21875 177.579101562 428.09375 c 2
 177.579101562 257.994140625 l 2
EndSplineSet
EndChar

StartChar: D
Encoding: 68 68 38
Width: 622
GlyphClass: 2
Flags: MW
HStem: 0.00976562 102.06<191.754 324.999> 589.689 102.061<191.754 324.999 324.999 325.944 191.754 191.754>
VStem: 82.1338 109.62<102.069 589.689 102.069 691.75 102.069 691.75> 461.079 109.62<265.554 269.334 269.334 419.589 419.589 422.424>
LayerCount: 2
Fore
SplineSet
570.69921875 422.423828125 m 2
 570.69921875 269.333984375 l 2
 570.69921875 180.21875 549.848632812 111.037109375 503.8203125 65.72265625 c 0
 458.862304688 21.4619140625 398.151367188 0.009765625 324.999023438 0.009765625 c 2
 82.1337890625 0.009765625 l 1
 82.1337890625 691.75 l 1
 324.999023438 691.75 l 2
 398.151367188 691.75 458.862304688 670.296875 503.8203125 626.036132812 c 0
 549.848632812 580.720703125 570.69921875 511.5390625 570.69921875 422.423828125 c 2
325.944335938 102.069335938 m 2
 388.655273438 102.069335938 461.079101562 123.780273438 461.079101562 265.553710938 c 2
 461.079101562 419.588867188 l 2
 461.079101562 483.407226562 447.78125 526.314453125 425.900390625 551.028320312 c 0
 403.559570312 576.260742188 371.668945312 589.689453125 325.944335938 589.689453125 c 2
 191.75390625 589.689453125 l 1
 191.75390625 102.069335938 l 1
 325.944335938 102.069335938 l 2
EndSplineSet
EndChar

StartChar: E
Encoding: 69 69 39
Width: 551
GlyphClass: 2
Flags: MW
HStem: 0.00976562 102.061<190.809 517.779 190.809 517.779> 300.521 102.06<190.809 470.529 190.809 470.529> 589.69 102.06<190.809 517.779 190.809 190.809>
VStem: 82.1338 108.675<102.07 102.07 102.07 300.521 402.58 589.69>
LayerCount: 2
Fore
SplineSet
190.80859375 102.0703125 m 1
 517.779296875 102.0703125 l 1
 517.779296875 0.009765625 l 1
 82.1337890625 0.009765625 l 1
 82.1337890625 691.75 l 1
 517.779296875 691.75 l 1
 517.779296875 589.690429688 l 1
 190.80859375 589.690429688 l 1
 190.80859375 402.580078125 l 1
 470.529296875 402.580078125 l 1
 470.529296875 300.520507812 l 1
 190.80859375 300.520507812 l 1
 190.80859375 102.0703125 l 1
EndSplineSet
EndChar

StartChar: F
Encoding: 70 70 40
Width: 542
GlyphClass: 2
Flags: MW
HStem: 0.00976562 21G<82.1338 190.809 82.1338 82.1338> 298.63 102.061<190.809 470.529 190.809 470.529> 589.69 102.06<190.809 517.779 190.809 190.809>
VStem: 82.1338 108.675<0.00976562 298.63 0.00976562 400.69 400.69 589.69>
LayerCount: 2
Fore
SplineSet
190.80859375 298.629882812 m 1
 190.80859375 0.009765625 l 1
 82.1337890625 0.009765625 l 1
 82.1337890625 691.75 l 1
 517.779296875 691.75 l 1
 517.779296875 589.690429688 l 1
 190.80859375 589.690429688 l 1
 190.80859375 400.690429688 l 1
 470.529296875 400.690429688 l 1
 470.529296875 298.629882812 l 1
 190.80859375 298.629882812 l 1
EndSplineSet
EndChar

StartChar: G
Encoding: 71 71 41
Width: 610
GlyphClass: 2
Flags: MW
HStem: -7.5498 103.004<283.326 341.514 283.326 352.722> 275.95 99.2246<295.704 451.629 295.704 560.304> 598.195 102.06<293.155 339.042>
VStem: 68.9033 108.675<261.776 428.094> 451.629 108.675<245.71 257.995 257.995 275.95 275.95 275.95>
LayerCount: 2
Fore
SplineSet
177.578125 257.994140625 m 2
 177.578125 121.198242188 248.26953125 95.4541015625 318.3828125 95.4541015625 c 0
 364.64453125 95.4541015625 396.55078125 107.818359375 417.977539062 130.020507812 c 0
 438.870117188 151.66796875 451.62890625 189.067382812 451.62890625 245.709960938 c 2
 451.62890625 275.950195312 l 1
 295.704101562 275.950195312 l 1
 295.704101562 375.174804688 l 1
 560.303710938 375.174804688 l 1
 560.303710938 257.995117188 l 2
 560.303710938 169.533203125 539.6328125 101.049804688 493.782226562 56.6328125 c 0
 449.122070312 13.369140625 388.94921875 -7.5498046875 316.494140625 -7.5498046875 c 0
 243.333007812 -7.5498046875 182.381835938 13.90234375 136.837890625 58.0556640625 c 0
 90.1220703125 103.34375 68.9033203125 172.606445312 68.9033203125 261.776367188 c 2
 68.9033203125 430.930664062 l 2
 68.9033203125 520.099609375 90.12109375 589.361328125 136.836914062 634.649414062 c 0
 182.380859375 678.802734375 243.33203125 700.254882812 316.493164062 700.254882812 c 0
 468.4765625 700.254882812 558.413085938 607.240234375 558.413085938 482.905273438 c 2
 558.413085938 459.280273438 l 1
 449.73828125 459.280273438 l 1
 449.73828125 482.905273438 l 2
 449.73828125 519.961914062 438.126953125 546.619140625 415.33203125 566.793945312 c 0
 392.358398438 587.126953125 360.64453125 598.1953125 317.438476562 598.1953125 c 0
 268.872070312 598.1953125 235.522460938 584.630859375 213.08203125 559.841796875 c 0
 191.0625 535.517578125 177.578125 492.565429688 177.578125 428.09375 c 2
 177.578125 257.994140625 l 2
EndSplineSet
EndChar

StartChar: H
Encoding: 72 72 42
Width: 629
GlyphClass: 2
Flags: MW
HStem: 0.00976562 21G<82.1338 190.809 82.1338 82.1338 456.354 565.029 456.354 456.354> 302.41 102.06<190.809 456.354 190.809 456.354> 671.75 20G<82.1338 190.809 190.809 190.809 456.354 565.029 565.029 565.029>
VStem: 82.1338 108.675<0.00976562 302.41 0.00976562 404.47 404.47 691.75> 456.354 108.676<0.00976562 302.41 302.41 302.41 404.47 691.75 0.00976562 691.75>
LayerCount: 2
Fore
SplineSet
565.029296875 691.75 m 1
 565.029296875 0.009765625 l 1
 456.353515625 0.009765625 l 1
 456.353515625 302.41015625 l 1
 190.80859375 302.41015625 l 1
 190.80859375 0.009765625 l 1
 82.1337890625 0.009765625 l 1
 82.1337890625 691.75 l 1
 190.80859375 691.75 l 1
 190.80859375 404.469726562 l 1
 456.353515625 404.469726562 l 1
 456.353515625 691.75 l 1
 565.029296875 691.75 l 1
EndSplineSet
EndChar

StartChar: I
Encoding: 73 73 43
Width: 265
GlyphClass: 2
Flags: MW
HStem: 0.00976562 21G<89.6943 198.369 89.6943 89.6943> 671.75 20G<89.6943 198.369 198.369 198.369>
VStem: 89.6943 108.675<0.00976562 691.75 0.00976562 691.75>
LayerCount: 2
Fore
SplineSet
89.6943359375 691.75 m 1
 198.369140625 691.75 l 1
 198.369140625 0.009765625 l 1
 89.6943359375 0.009765625 l 1
 89.6943359375 691.75 l 1
EndSplineSet
EndChar

StartChar: J
Encoding: 74 74 44
Width: 327
GlyphClass: 2
Flags: MW
HStem: 0.00976562 102.061<36.7744 110.483 110.483 119.615 36.7744 120.879 36.7744 110.483> 671.75 20G<150.174 258.849 258.849 258.849>
VStem: 150.174 108.675<154.045 691.75>
LayerCount: 2
Fore
SplineSet
36.7744140625 102.0703125 m 1
 110.483398438 102.0703125 l 2
 128.747070312 102.0703125 136.936523438 106.805664062 140.85546875 111.670898438 c 0
 145.459960938 117.38671875 150.173828125 130.8984375 150.173828125 154.044921875 c 2
 150.173828125 691.75 l 1
 258.848632812 691.75 l 1
 258.848632812 145.540039062 l 2
 258.848632812 101.485351562 247.96484375 64.6865234375 223.215820312 38.390625 c 0
 198.37890625 12.0009765625 162.920898438 0.009765625 120.87890625 0.009765625 c 2
 36.7744140625 0.009765625 l 1
 36.7744140625 102.0703125 l 1
EndSplineSet
EndChar

StartChar: K
Encoding: 75 75 45
Width: 599
GlyphClass: 2
Flags: MW
HStem: 0.00976562 21G<82.1338 190.809 82.1338 82.1338 492.169 618.723 492.169 492.169> 671.75 20G<82.1338 190.809 190.809 190.809 462.836 596.256 596.256 596.256>
VStem: 82.1338 108.675<0.00976562 192.379 348.944 691.75>
LayerCount: 2
Fore
SplineSet
492.168945312 0.009765625 m 1
 301.486328125 328.959960938 l 1
 190.80859375 192.37890625 l 1
 190.80859375 0.009765625 l 1
 82.1337890625 0.009765625 l 1
 82.1337890625 691.75 l 1
 190.80859375 691.75 l 1
 190.80859375 348.944335938 l 1
 462.8359375 691.75 l 1
 596.255859375 691.75 l 1
 372.727539062 415.928710938 l 1
 618.72265625 0.009765625 l 1
 492.168945312 0.009765625 l 1
EndSplineSet
EndChar

StartChar: L
Encoding: 76 76 46
Width: 533
GlyphClass: 2
Flags: MW
HStem: 0.00976562 102.061<190.809 515.889 190.809 515.889> 671.75 20G<82.1338 190.809 190.809 190.809>
VStem: 82.1338 108.675<102.07 691.75 102.07 691.75 102.07 691.75>
LayerCount: 2
Fore
SplineSet
82.1337890625 691.75 m 1
 190.80859375 691.75 l 1
 190.80859375 102.0703125 l 1
 515.888671875 102.0703125 l 1
 515.888671875 0.009765625 l 1
 82.1337890625 0.009765625 l 1
 82.1337890625 691.75 l 1
EndSplineSet
EndChar

StartChar: M
Encoding: 77 77 47
Width: 747
GlyphClass: 2
Flags: MW
HStem: 0.00976562 21G<82.1338 190.809 82.1338 82.1338 573.534 682.209 573.534 573.534> 671.75 20G<82.1338 183.434 183.434 183.434 580.885 682.209 682.209 682.209>
VStem: 82.1338 108.675<0.00976562 444.165 0.00976562 691.75> 573.534 108.675<0.00976562 443.769 443.769 443.769>
LayerCount: 2
Fore
SplineSet
682.208984375 691.75 m 1
 682.208984375 0.009765625 l 1
 573.534179688 0.009765625 l 1
 573.534179688 443.768554688 l 1
 421.536132812 130.419921875 l 1
 343.779296875 130.419921875 l 1
 190.80859375 444.165039062 l 1
 190.80859375 0.009765625 l 1
 82.1337890625 0.009765625 l 1
 82.1337890625 691.75 l 1
 183.43359375 691.75 l 1
 382.603515625 278.294921875 l 1
 580.884765625 691.75 l 1
 682.208984375 691.75 l 1
EndSplineSet
EndChar

StartChar: N
Encoding: 78 78 48
Width: 661
GlyphClass: 2
Flags: MW
HStem: 0.00976562 21G<82.1338 190.809 82.1338 82.1338 497.488 597.159 497.488 497.488> 671.75 20G<82.1338 181.783 181.783 181.783 488.484 597.159 597.159 597.159>
VStem: 82.1338 108.675<0.00976562 477.64 0.00976562 691.75> 488.484 108.675<215.806 691.75 0.00976562 691.75>
LayerCount: 2
Fore
SplineSet
597.159179688 691.75 m 1
 597.159179688 0.009765625 l 1
 497.48828125 0.009765625 l 1
 190.80859375 477.639648438 l 1
 190.80859375 0.009765625 l 1
 82.1337890625 0.009765625 l 1
 82.1337890625 691.75 l 1
 181.783203125 691.75 l 1
 488.484375 215.805664062 l 1
 488.484375 691.75 l 1
 597.159179688 691.75 l 1
EndSplineSet
EndChar

StartChar: O
Encoding: 79 79 49
Width: 610
GlyphClass: 2
Flags: MW
HStem: -7.5498 103.006<291.535 347.719 291.535 350.891> 598.197 102.057<291.256 345.711>
VStem: 68.9053 108.675<261.775 428.096> 451.63 108.674<257.996 261.774 261.774 428.097 428.097 430.929>
LayerCount: 2
Fore
SplineSet
68.9052734375 261.775390625 m 2
 68.9052734375 430.9296875 l 2
 68.9052734375 520.072265625 89.939453125 589.293945312 136.311523438 634.595703125 c 0
 181.561523438 678.801757812 242.392578125 700.25390625 315.548828125 700.25390625 c 0
 388.119140625 700.25390625 448.506835938 678.763671875 493.42578125 634.541015625 c 0
 539.454101562 589.2265625 560.303710938 520.043945312 560.303710938 430.928710938 c 2
 560.303710938 261.774414062 l 2
 560.303710938 172.631835938 539.26953125 103.41015625 492.897460938 58.1083984375 c 0
 447.685546875 13.9404296875 387.178710938 -7.5498046875 314.603515625 -7.5498046875 c 0
 241.452148438 -7.5498046875 180.740234375 13.90234375 135.782226562 58.1630859375 c 0
 89.75390625 103.477539062 68.9052734375 172.66015625 68.9052734375 261.775390625 c 2
315.549804688 95.4560546875 m 0
 379.887695312 95.4560546875 451.629882812 118.075195312 451.629882812 257.99609375 c 2
 451.629882812 428.096679688 l 2
 451.629882812 578.0234375 375.873046875 598.197265625 315.549804688 598.197265625 c 0
 266.962890625 598.197265625 234.0546875 584.626953125 212.294921875 560.018554688 c 0
 190.801757812 535.709960938 177.580078125 492.626953125 177.580078125 428.095703125 c 2
 177.580078125 257.99609375 l 2
 177.580078125 196.797851562 190.791015625 156.01171875 212.474609375 132.541015625 c 0
 234.556640625 108.639648438 267.520507812 95.4560546875 315.549804688 95.4560546875 c 0
EndSplineSet
EndChar

StartChar: P
Encoding: 80 80 50
Width: 579
GlyphClass: 2
Flags: MW
HStem: 0.00976562 21G<82.1338 190.809 82.1338 82.1338> 269.335 102.061<190.809 330.669 330.669 336.339 190.809 330.669> 589.69 102.06<190.809 330.669 190.809 190.809>
VStem: 82.1338 108.675<0.00976562 269.335 0.00976562 371.396 371.396 589.69> 452.574 108.675<460.886 497.219>
LayerCount: 2
Fore
SplineSet
561.249023438 477.235351562 m 0
 561.249023438 414.385742188 540.966796875 362.180664062 499.4375 324.555664062 c 0
 458.150390625 287.151367188 402.822265625 269.334960938 336.338867188 269.334960938 c 2
 190.80859375 269.334960938 l 1
 190.80859375 0.009765625 l 1
 82.1337890625 0.009765625 l 1
 82.1337890625 691.75 l 1
 336.338867188 691.75 l 2
 403.436523438 691.75 459.008789062 673.786132812 500.041992188 635.935546875 c 0
 541.466796875 597.725585938 561.249023438 543.47265625 561.249023438 477.235351562 c 0
330.668945312 371.395507812 m 2
 447.67578125 371.395507812 452.57421875 444.536132812 452.57421875 477.235351562 c 0
 452.57421875 517.202148438 444.536132812 589.690429688 330.668945312 589.690429688 c 2
 190.80859375 589.690429688 l 1
 190.80859375 371.395507812 l 1
 330.668945312 371.395507812 l 2
EndSplineSet
EndChar

StartChar: Q
Encoding: 81 81 51
Width: 610
GlyphClass: 2
Flags: MW
HStem: -7.54785 103.005<291.535 323.247> 598.198 102.057<291.256 345.711>
VStem: 68.9053 108.675<261.776 428.097> 451.63 108.674<257.997 261.775 261.775 428.097 428.097 430.93>
LayerCount: 2
Fore
SplineSet
314.604492188 -7.5478515625 m 0
 241.453125 -7.5478515625 180.741210938 13.904296875 135.783203125 58.1640625 c 0
 89.7548828125 103.478515625 68.9052734375 172.661132812 68.9052734375 261.776367188 c 2
 68.9052734375 430.930664062 l 2
 68.9052734375 520.073242188 89.939453125 589.294921875 136.311523438 634.596679688 c 0
 181.561523438 678.802734375 242.392578125 700.254882812 315.548828125 700.254882812 c 0
 388.119140625 700.254882812 448.506835938 678.764648438 493.42578125 634.541992188 c 0
 539.454101562 589.2265625 560.303710938 520.044921875 560.303710938 430.9296875 c 2
 560.303710938 261.775390625 l 2
 560.303710938 155.157226562 528.420898438 75.7275390625 461.141601562 31.3935546875 c 1
 532.228515625 -100.349609375 l 1
 443.802734375 -149.991210938 l 1
 364.448242188 -4.01953125 l 1
 348.506835938 -6.3828125 331.888671875 -7.5478515625 314.604492188 -7.5478515625 c 0
315.549804688 95.45703125 m 0
 379.887695312 95.45703125 451.629882812 118.076171875 451.629882812 257.997070312 c 2
 451.629882812 428.096679688 l 2
 451.629882812 578.0234375 375.873046875 598.198242188 315.549804688 598.198242188 c 0
 266.962890625 598.198242188 234.0546875 584.627929688 212.294921875 560.01953125 c 0
 190.801757812 535.7109375 177.580078125 492.627929688 177.580078125 428.096679688 c 2
 177.580078125 257.997070312 l 2
 177.580078125 196.798828125 190.791015625 156.01171875 212.474609375 132.541992188 c 0
 234.556640625 108.640625 267.520507812 95.45703125 315.549804688 95.45703125 c 0
EndSplineSet
EndChar

StartChar: R
Encoding: 82 82 52
Width: 600
GlyphClass: 2
Flags: MW
HStem: 0.00976562 21G<82.1338 190.809 82.1338 82.1338 463.148 587.491 463.148 463.148> 286.345 99.2246<313.658 315.729> 589.69 102.06<190.809 338.229 190.809 190.809>
VStem: 82.1338 108.675<0.00976562 286.345 0.00976562 385.57 385.57 589.69> 451.628 108.676<463.504 505.262>
LayerCount: 2
Fore
SplineSet
463.1484375 0.009765625 m 1
 315.728515625 286.344726562 l 1
 190.80859375 286.344726562 l 1
 190.80859375 0.009765625 l 1
 82.1337890625 0.009765625 l 1
 82.1337890625 691.75 l 1
 343.899414062 691.75 l 2
 408.405273438 691.75 461.872070312 674.79296875 501.359375 638.862304688 c 0
 541.220703125 602.592773438 560.303710938 551.126953125 560.303710938 488.575195312 c 0
 560.303710938 438.432617188 546.889648438 395.094726562 519.012695312 360.784179688 c 0
 496.2421875 332.759765625 465.987304688 312.655273438 429.567382812 300.356445312 c 1
 587.491210938 0.009765625 l 1
 463.1484375 0.009765625 l 1
451.627929688 487.62890625 m 0
 451.627929688 522.89453125 443.96875 589.690429688 338.228515625 589.690429688 c 2
 190.80859375 589.690429688 l 1
 190.80859375 385.5703125 l 1
 239.948242188 385.5703125 289.087890625 385.569335938 338.227539062 385.569335938 c 0
 390.680664062 385.569335938 451.627929688 403.640625 451.627929688 487.62890625 c 0
EndSplineSet
EndChar

StartChar: S
Encoding: 83 83 53
Width: 550
GlyphClass: 2
Flags: MW
HStem: -5.66016 100.172<241.517 312.014> 601.03 99.2256<258.78 311.279 247.402 323.996>
VStem: 50.9473 106.787<485.335 518.667 485.335 528.994> 400.684 107.518<497.112 501.227> 410.991 107.731<180.275 212.718>
LayerCount: 2
Fore
SplineSet
280.581054688 94.51171875 m 0xe8
 403.899414062 94.51171875 410.991210938 163.978515625 410.991210938 196.572265625 c 0xe8
 410.991210938 228.86328125 402.21484375 249.598632812 387.27734375 263.134765625 c 0
 371.206054688 277.700195312 344.483398438 289.49609375 305.651367188 296.06640625 c 0
 305.602539062 296.07421875 231.94140625 308.3515625 231.94140625 308.3515625 c 2
 176.434570312 317.602539062 131.673828125 336.922851562 99.529296875 367.99609375 c 0
 66.5087890625 399.915039062 50.947265625 444.505859375 50.947265625 498.026367188 c 0
 50.947265625 559.9609375 72.375 611.20703125 115.720703125 647.446289062 c 0
 158.4609375 683.180664062 214.221679688 700.255859375 280.583007812 700.255859375 c 0
 341.975585938 700.255859375 394.295898438 684.231445312 435.301757812 650.936523438 c 0
 477.163085938 616.9453125 500.8828125 565.762695312 508.201171875 501.2265625 c 2
 510.70703125 479.125 l 1
 402.357421875 479.125 l 1
 400.68359375 497.112304688 l 2xf0
 395.278320312 555.2265625 368.354492188 601.030273438 279.637695312 601.030273438 c 0
 237.921875 601.030273438 208.235351562 591.204101562 188.041015625 574.077148438 c 0
 167.892578125 556.990234375 157.734375 534.583007812 157.734375 502.75 c 0
 157.734375 467.919921875 167.456054688 425.828125 257.561523438 409.842773438 c 0
 257.607421875 409.834960938 333.11328125 396.62109375 333.11328125 396.62109375 c 2
 390.479492188 386.73046875 436.497070312 366.62109375 469.28125 334.549804688 c 0
 502.913085938 301.649414062 518.72265625 255.6875 518.72265625 200.349609375 c 0
 518.72265625 136.53515625 496.650390625 84.0712890625 451.889648438 47.4814453125 c 0
 407.619140625 11.2919921875 348.168945312 -5.66015625 275.858398438 -5.66015625 c 0
 207.174804688 -5.66015625 150.624023438 11.2578125 108.856445312 47.3623046875 c 0
 66.9345703125 83.6005859375 43.7861328125 136.451171875 37.798828125 202.315429688 c 2
 35.8291015625 223.9765625 l 1
 143.5234375 223.9765625 l 1
 145.342773438 206.169921875 l 2
 151.365234375 147.228515625 179.163085938 94.51171875 280.581054688 94.51171875 c 0xe8
EndSplineSet
EndChar

StartChar: T
Encoding: 84 84 54
Width: 488
GlyphClass: 2
Flags: MW
HStem: 0.00976562 21G<200.259 307.989 200.259 200.259> 589.69 102.06<14.0938 200.259 14.0938 494.154 307.989 307.989 307.989 494.154>
VStem: 200.259 107.73<0.00976562 589.69 0.00976562 589.69>
LayerCount: 2
Fore
SplineSet
200.258789062 589.690429688 m 1
 14.09375 589.690429688 l 1
 14.09375 691.75 l 1
 494.154296875 691.75 l 1
 494.154296875 589.690429688 l 1
 307.989257812 589.690429688 l 1
 307.989257812 0.009765625 l 1
 200.258789062 0.009765625 l 1
 200.258789062 589.690429688 l 1
EndSplineSet
EndChar

StartChar: U
Encoding: 85 85 55
Width: 635
GlyphClass: 2
Flags: MW
HStem: -5.66016 101.115<305.366 348.057 305.366 396.805> 671.75 20G<82.1338 191.754 191.754 191.754 462.024 570.699 570.699 570.699>
VStem: 82.1338 109.62<232.48 238.15 238.15 691.75> 462.024 108.675<238.15 691.75>
LayerCount: 2
Fore
SplineSet
326.888671875 -5.66015625 m 0
 182.041992188 -5.66015625 82.1337890625 96.19921875 82.1337890625 232.48046875 c 2
 82.1337890625 691.75 l 1
 191.75390625 691.75 l 1
 191.75390625 238.150390625 l 2
 191.75390625 192.124023438 204.421875 158.217773438 228.298828125 133.268554688 c 0
 252.161132812 108.333984375 283.842773438 95.455078125 326.888671875 95.455078125 c 0
 369.225585938 95.455078125 400.823242188 108.278320312 425.083984375 133.348632812 c 0
 449.243164062 158.3125 462.024414062 192.173828125 462.024414062 238.150390625 c 2
 462.024414062 691.75 l 1
 570.69921875 691.75 l 1
 570.69921875 232.48046875 l 2
 570.69921875 90.0126953125 466.720703125 -5.66015625 326.888671875 -5.66015625 c 0
EndSplineSet
EndChar

StartChar: V
Encoding: 86 86 56
Width: 527
GlyphClass: 2
Flags: MW
HStem: 0.00976562 21G<230.248 315.78 230.248 230.248> 671.75 20G<5.68262 119.401 119.401 119.401 427.566 541.348 541.348 541.348>
LayerCount: 2
Fore
SplineSet
5.6826171875 691.75 m 1
 119.401367188 691.75 l 1
 273.916015625 197.995117188 l 1
 427.56640625 691.75 l 1
 541.34765625 691.75 l 1
 315.780273438 0.009765625 l 1
 230.248046875 0.009765625 l 1
 5.6826171875 691.75 l 1
EndSplineSet
EndChar

StartChar: W
Encoding: 87 87 57
Width: 789
GlyphClass: 2
Flags: MW
HStem: 0.00976562 21G<184.858 277.201 184.858 184.858 531.657 623.986 531.657 531.657> 671.75 20G<7.41211 115.666 115.666 115.666 344.254 463.427 463.427 463.427 692.014 797.423 797.423 797.423>
LayerCount: 2
Fore
SplineSet
531.657226562 0.009765625 m 1
 402.744140625 504.708984375 l 1
 277.201171875 0.009765625 l 1
 184.858398438 0.009765625 l 1
 7.412109375 691.75 l 1
 115.666015625 691.75 l 1
 232.038085938 216.288085938 l 1
 344.25390625 691.75 l 1
 463.426757812 691.75 l 1
 579.797851562 216.288085938 l 1
 692.013671875 691.75 l 1
 797.422851562 691.75 l 1
 623.986328125 0.009765625 l 1
 531.657226562 0.009765625 l 1
EndSplineSet
EndChar

StartChar: X
Encoding: 88 88 58
Width: 569
GlyphClass: 2
Flags: MW
HStem: 0.00976562 21G<-3.45801 -3.45801 -3.45801 124.29 460.533 460.533 460.533 591.007> 671.75 20G<14.5811 145.12 145.12 145.12 442.508 570.206 570.206 570.206>
LayerCount: 2
Fore
SplineSet
-3.4580078125 0.009765625 m 1
 228.62109375 359.1328125 l 1
 14.5810546875 691.75 l 1
 145.120117188 691.75 l 1
 293.814453125 453.3125 l 1
 442.5078125 691.75 l 1
 570.206054688 691.75 l 1
 358.046875 361.948242188 l 1
 591.006835938 0.009765625 l 1
 460.533203125 0.009765625 l 1
 291.96875 267.052734375 l 1
 124.290039062 0.009765625 l 1
 -3.4580078125 0.009765625 l 1
EndSplineSet
EndChar

StartChar: Y
Encoding: 89 89 59
Width: 504
GlyphClass: 2
Flags: MW
HStem: 0.00976562 21G<207.819 316.494 207.819 207.819> 671.75 20G<0.450195 119.999 119.999 119.999 404.348 523.826 523.826 523.826>
VStem: 207.819 108.675<0.00976562 288.157 0.00976562 289.092 0.00976562 289.092>
LayerCount: 2
Fore
SplineSet
404.34765625 691.75 m 1
 523.826171875 691.75 l 1
 316.494140625 288.157226562 l 1
 316.494140625 0.009765625 l 1
 207.819335938 0.009765625 l 1
 207.819335938 289.091796875 l 1
 0.4501953125 691.75 l 1
 119.999023438 691.75 l 1
 261.73828125 403.923828125 l 1
 404.34765625 691.75 l 1
EndSplineSet
EndChar

StartChar: Z
Encoding: 90 90 60
Width: 520
GlyphClass: 2
Flags: MW
HStem: 0.00976562 102.061<178.705 499.824 178.705 499.824> 589.69 102.06<56.6191 362.618 56.6191 496.989>
LayerCount: 2
Fore
SplineSet
499.82421875 102.0703125 m 1
 499.82421875 0.009765625 l 1
 44.333984375 0.009765625 l 1
 44.333984375 87.9873046875 l 1
 362.618164062 589.690429688 l 1
 56.619140625 589.690429688 l 1
 56.619140625 691.75 l 1
 496.989257812 691.75 l 1
 496.989257812 603.772460938 l 1
 178.705078125 102.0703125 l 1
 499.82421875 102.0703125 l 1
EndSplineSet
EndChar

StartChar: bracketleft
Encoding: 91 91 61
Width: 309
GlyphClass: 2
Flags: MW
HStem: -79.3701 102.061<187.974 269.244 187.974 269.244> 636.94 102.06<187.974 269.244 187.974 187.974>
VStem: 82.1338 105.84<22.6904 636.94 22.6904 739 22.6904 739> 82.1338 187.11<-79.3701 22.6904 636.94 739>
LayerCount: 2
Fore
SplineSet
82.1337890625 739 m 1xd0
 269.244140625 739 l 1
 269.244140625 636.940429688 l 1xd0
 187.973632812 636.940429688 l 1
 187.973632812 22.6904296875 l 1xe0
 269.244140625 22.6904296875 l 1
 269.244140625 -79.3701171875 l 1
 82.1337890625 -79.3701171875 l 1
 82.1337890625 739 l 1xd0
EndSplineSet
Substitution2: "'rtla' Right to Left Alternates lookup 0 subtable" bracketright
EndChar

StartChar: backslash
Encoding: 92 92 62
Width: 402
GlyphClass: 2
Flags: MW
HStem: 671.75 20G<55.3115 153.522 153.522 153.522>
VStem: 55.3115 312.575
LayerCount: 2
Fore
SplineSet
55.3115234375 691.75 m 1
 153.522460938 691.75 l 1
 367.88671875 -9.4404296875 l 1
 269.674804688 -9.4404296875 l 1
 55.3115234375 691.75 l 1
EndSplineSet
EndChar

StartChar: bracketright
Encoding: 93 93 63
Width: 309
GlyphClass: 2
Flags: MW
HStem: -79.3701 102.061<62.2891 143.559 62.2891 249.399 62.2891 143.559> 636.94 102.06<62.2891 143.559 62.2891 249.399>
VStem: 62.2891 187.11<-79.3701 22.6904 22.6904 22.6904 636.94 739 -79.3701 739> 143.559 105.841<22.6904 636.94 636.94 636.94>
LayerCount: 2
Fore
SplineSet
143.55859375 636.940429688 m 1xd0
 62.2890625 636.940429688 l 1
 62.2890625 739 l 1
 249.399414062 739 l 1
 249.399414062 -79.3701171875 l 1
 62.2890625 -79.3701171875 l 1
 62.2890625 22.6904296875 l 1xe0
 143.55859375 22.6904296875 l 1
 143.55859375 636.940429688 l 1xd0
EndSplineSet
Substitution2: "'rtla' Right to Left Alternates lookup 0 subtable" bracketleft
EndChar

StartChar: asciicircum
Encoding: 94 94 64
Width: 517
GlyphClass: 2
Flags: MW
HStem: 671.75 20G<227.788 309.755 309.755 309.755>
LayerCount: 2
Fore
SplineSet
227.788085938 691.75 m 1
 309.754882812 691.75 l 1
 490.194335938 269.334960938 l 1
 390.233398438 269.334960938 l 1
 268.36328125 559.948242188 l 1
 147.345703125 269.334960938 l 1
 47.3486328125 269.334960938 l 1
 227.788085938 691.75 l 1
EndSplineSet
EndChar

StartChar: underscore
Encoding: 95 95 65
Width: 464
GlyphClass: 2
Flags: MW
HStem: -98.2695 86.9395<6.53418 478.089 6.53418 478.089>
LayerCount: 2
Fore
SplineSet
6.5341796875 -11.330078125 m 1
 478.088867188 -11.330078125 l 1
 478.088867188 -98.26953125 l 1
 6.5341796875 -98.26953125 l 1
 6.5341796875 -11.330078125 l 1
EndSplineSet
EndChar

StartChar: grave
Encoding: 96 96 66
Width: 505
GlyphClass: 2
Flags: MW
HStem: 540.55 157.815<119.684 380.203 119.684 271.187>
VStem: 119.684 260.52<540.55 698.365>
LayerCount: 2
Fore
SplineSet
255.212890625 698.365234375 m 1
 380.203125 540.549804688 l 1
 271.186523438 540.549804688 l 1
 119.68359375 698.365234375 l 1
 255.212890625 698.365234375 l 1
EndSplineSet
EndChar

StartChar: a
Encoding: 97 97 67
Width: 503
GlyphClass: 2
Flags: MW
HStem: -5.66113 91.666<202.841 257.905> 224.92 86.9395<231.445 240.895 240.895 341.064> 431.875 93.5547<237.299 280.852 223.926 292.824>
VStem: 50.9502 103.95<140.015 170.952 140.015 198.296> 65.124 102.06<345.88 368.56 345.88 370.45 345.88 393.465> 341.064 103.95<182.396 224.92 224.92 224.92 311.859 345.88 0.00976562 346.824 0.00976562 362.84>
LayerCount: 2
Fore
SplineSet
341.064453125 346.82421875 m 2xf4
 341.064453125 378.856445312 333.413085938 431.875 252.235351562 431.875 c 0
 222.36328125 431.875 201.528320312 425.104492188 187.567382812 413.983398438 c 0
 173.845703125 403.051757812 167.18359375 389.346679688 167.18359375 368.559570312 c 2
 167.18359375 345.879882812 l 1
 65.1240234375 345.879882812 l 1
 65.1240234375 370.450195312 l 2xec
 65.1240234375 416.479492188 82.541015625 455.642578125 116.723632812 484.0078125 c 0
 150.90625 512.373046875 196.563476562 525.4296875 251.2890625 525.4296875 c 0
 310.415039062 525.4296875 358.83984375 511.124023438 393.591796875 479.6640625 c 0
 428.654296875 447.923828125 445.014648438 401.893554688 445.014648438 345.879882812 c 2
 445.014648438 0.009765625 l 1
 342.009765625 0.009765625 l 1
 342.009765625 24.1328125 l 1
 319.829101562 8.71875 286.255859375 -5.6611328125 229.553710938 -5.6611328125 c 0
 176.12890625 -5.6611328125 131.864257812 7.0458984375 99.4140625 35.0703125 c 0
 66.4638671875 63.52734375 50.9501953125 105.016601562 50.9501953125 154.989257812 c 0
 50.9501953125 241.603515625 106.806640625 311.859375 231.4453125 311.859375 c 2
 341.064453125 311.859375 l 1
 341.064453125 346.82421875 l 2xf4
154.900390625 155.934570312 m 0xf4
 154.900390625 124.095703125 163.771484375 86.0048828125 239.950195312 86.0048828125 c 0
 279.4921875 86.0048828125 304.258789062 95.212890625 318.057617188 109.012695312 c 0
 332.205078125 123.159179688 341.064453125 146.37109375 341.064453125 182.395507812 c 2
 341.064453125 224.919921875 l 1
 240.89453125 224.919921875 l 2
 162.698242188 224.919921875 154.900390625 185.969726562 154.900390625 155.934570312 c 0xf4
EndSplineSet
EndChar

StartChar: b
Encoding: 98 98 68
Width: 515
GlyphClass: 2
Flags: MW
HStem: -5.66016 97.3359<269.237 296.938 264.357 316.938> 427.15 98.2793<260.938 295.287> 671.751 20G<77.4102 181.36 181.36 181.36>
VStem: 77.4102 103.95<0.0107422 19.8564 195.967 215.471 215.471 299.576 488.157 691.751> 368.47 103.949<214.526 305.245 305.245 309.025 175.706 361.881>
LayerCount: 2
Fore
SplineSet
181.360351562 488.157226562 m 1
 201.611328125 505.735351562 234.876953125 525.4296875 286.25390625 525.4296875 c 0
 339.84375 525.4296875 385.684570312 507.569335938 420.510742188 471.677734375 c 0
 456.518554688 434.56640625 472.418945312 379.170898438 472.418945312 309.025390625 c 2
 472.418945312 210.745117188 l 2
 472.418945312 140.666015625 456.895507812 85.376953125 421.59765625 48.2412109375 c 0
 387.518554688 12.38671875 342.896484375 -5.66015625 290.978515625 -5.66015625 c 0
 247.495117188 -5.66015625 210.288085938 6.0634765625 181.359375 29.392578125 c 1
 181.359375 26.2138671875 181.360351562 23.03515625 181.360351562 19.8564453125 c 2
 181.360351562 0.0107421875 l 1
 77.41015625 0.0107421875 l 1
 77.41015625 691.750976562 l 1
 181.360351562 691.750976562 l 1
 181.360351562 488.157226562 l 1
281.530273438 91.67578125 m 0
 312.345703125 91.67578125 368.469726562 97.9033203125 368.469726562 214.526367188 c 2
 368.469726562 305.245117188 l 2
 368.469726562 418.517578125 312.823242188 427.150390625 277.750976562 427.150390625 c 0
 244.125 427.150390625 222.2734375 416.295898438 206.852539062 395.155273438 c 0
 190.524414062 372.76953125 181.360351562 341.482421875 181.360351562 299.576171875 c 2
 181.360351562 215.470703125 l 2
 181.360351562 176.463867188 190.711914062 146.639648438 208 124.032226562 c 0
 224.341796875 102.6640625 247.18359375 91.67578125 281.530273438 91.67578125 c 0
EndSplineSet
EndChar

StartChar: c
Encoding: 99 99 69
Width: 508
GlyphClass: 2
Flags: MW
HStem: -5.66016 97.335<252.423 289.32 252.423 297.812> 427.149 98.2793<253.373 286.798>
VStem: 62.2891 103.951<210.744 214.525 214.525 305.245 189.141 309.024 189.141 344.539> 363.745 102.06<172.945 173.89 173.89 197.515 147.356 197.515>
LayerCount: 2
Fore
SplineSet
270.189453125 91.6748046875 m 0
 308.450195312 91.6748046875 363.745117188 103.66015625 363.745117188 172.9453125 c 2
 363.745117188 197.514648438 l 1
 465.8046875 197.514648438 l 1
 465.8046875 173.889648438 l 2
 465.8046875 120.822265625 447.637695312 75.9189453125 411.048828125 42.916015625 c 0
 374.588867188 10.03125 326.379882812 -5.66015625 269.245117188 -5.66015625 c 0
 208.321289062 -5.66015625 157.31640625 11.1484375 119.220703125 46.39453125 c 0
 79.8017578125 82.8662109375 62.2890625 139.14453125 62.2890625 210.744140625 c 2
 62.2890625 309.024414062 l 2
 62.2890625 380.052734375 79.8564453125 436.11328125 119.147460938 472.833984375 c 0
 157.184570312 508.381835938 207.909179688 525.428710938 268.298828125 525.428710938 c 0
 326.577148438 525.428710938 375.317382812 509.830078125 411.592773438 476.787109375 c 0
 447.846679688 443.762695312 465.803710938 398.892578125 465.803710938 345.87890625 c 2
 465.803710938 321.309570312 l 1
 363.744140625 321.309570312 l 1
 363.744140625 345.87890625 l 2
 363.744140625 373.783203125 355.517578125 392.271484375 340.290039062 405.595703125 c 0
 324.614257812 419.313476562 302.462890625 427.149414062 271.133789062 427.149414062 c 0
 235.611328125 427.149414062 210.711914062 417.774414062 193.186523438 401.000976562 c 0
 177.291015625 385.786132812 166.240234375 355.2890625 166.240234375 305.245117188 c 2
 166.240234375 214.525390625 l 2
 166.240234375 163.756835938 177.232421875 132.857421875 192.817382812 117.723632812 c 0
 209.984375 101.0546875 234.65625 91.6748046875 270.189453125 91.6748046875 c 0
EndSplineSet
EndChar

StartChar: d
Encoding: 100 100 70
Width: 516
GlyphClass: 2
Flags: MW
HStem: -5.66016 97.335<238.23 268.055> 427.15 98.2793<239.929 264.211 218.439 273.772> 671.75 20G<353.349 458.244 458.244 458.244>
VStem: 62.29 104.895<210.745 214.525 214.525 305.245 155.959 309.025 155.959 344.065> 353.349 104.896<0.00976562 28.9287 28.9287 28.9287 487.845 691.75 0.00976562 691.75>
LayerCount: 2
Fore
SplineSet
353.348632812 28.9287109375 m 1
 327.721679688 8.2890625 292.381835938 -5.66015625 243.728515625 -5.66015625 c 0
 191.811523438 -5.66015625 147.189453125 12.38671875 113.110351562 48.2412109375 c 0
 77.8125 85.376953125 62.2900390625 140.666015625 62.2900390625 210.745117188 c 2
 62.2900390625 309.025390625 l 2
 62.2900390625 379.104492188 77.8134765625 434.392578125 113.111328125 471.529296875 c 0
 147.245117188 507.44140625 192.203125 525.4296875 244.674804688 525.4296875 c 0
 283.748046875 525.4296875 321.751953125 515.239257812 353.348632812 487.844726562 c 1
 353.348632812 691.75 l 1
 458.244140625 691.75 l 1
 458.244140625 0.009765625 l 1
 353.348632812 0.009765625 l 1
 353.348632812 28.9287109375 l 1
167.184570312 214.525390625 m 2
 167.184570312 97.392578125 223.28125 91.6748046875 253.1796875 91.6748046875 c 0
 288.341796875 91.6748046875 311.260742188 102.662109375 327.16015625 123.53125 c 0
 344.064453125 145.716796875 353.349609375 175.713867188 353.349609375 215.469726562 c 2
 353.349609375 299.575195312 l 2
 353.349609375 341.482421875 344.185546875 372.76953125 327.856445312 395.155273438 c 0
 312.436523438 416.295898438 290.584960938 427.150390625 256.959960938 427.150390625 c 0
 222.897460938 427.150390625 167.184570312 419.08203125 167.184570312 305.245117188 c 2
 167.184570312 214.525390625 l 2
EndSplineSet
EndChar

StartChar: e
Encoding: 101 101 71
Width: 508
GlyphClass: 2
Flags: MW
HStem: -5.66016 97.335<253.435 286.595 253.435 295.411> 226.81 87.8857<166.239 361.842 166.372 361.842 166.372 465.804> 427.15 98.2793<248.537 280.973>
VStem: 62.2891 103.95<220.195 226.81 192.284 303.355 192.284 339.175> 359.963 102.061<164.44 187.12 137.756 187.12>
LayerCount: 2
Fore
SplineSet
166.239257812 226.809570312 m 1
 166.239257812 218.3046875 l 2
 166.239257812 166.263671875 177.40234375 134.330078125 193.396484375 118.563476562 c 0
 210.961914062 101.249023438 235.736328125 91.6748046875 271.1328125 91.6748046875 c 0
 302.057617188 91.6748046875 323.532226562 99.0693359375 338.122070312 111.5078125 c 0
 352.5 123.762695312 359.962890625 140.004882812 359.962890625 164.440429688 c 2
 359.962890625 187.120117188 l 1
 462.0234375 187.120117188 l 1
 462.0234375 162.549804688 l 2
 462.0234375 112.962890625 444.049804688 70.798828125 408.405273438 39.833984375 c 0
 372.637695312 8.763671875 324.413085938 -5.66015625 266.408203125 -5.66015625 c 0
 206.331054688 -5.66015625 155.811523438 12.6181640625 118.189453125 50.240234375 c 0
 79.55859375 88.87109375 62.2890625 146.78515625 62.2890625 220.1953125 c 2
 62.2890625 303.35546875 l 2
 62.2890625 374.994140625 79.6708984375 431.846679688 118.255859375 470.069335938 c 0
 155.796875 507.255859375 205.626953125 525.4296875 264.518554688 525.4296875 c 0
 323.40625 525.4296875 373.125 507.25390625 410.375976562 470.001953125 c 0
 448.61328125 431.765625 465.803710938 374.959960938 465.803710938 303.35546875 c 2
 465.803710938 226.809570312 l 1
 166.239257812 226.809570312 l 1
264.518554688 427.150390625 m 0
 232.5546875 427.150390625 209.620117188 418.122070312 192.448242188 401.203125 c 0
 178.049804688 387.016601562 167.65234375 359.2578125 166.372070312 314.6953125 c 1
 361.841796875 314.6953125 l 1
 361.43359375 360.5546875 351.1171875 388.532226562 336.703125 402.509765625 c 0
 320.38671875 418.331054688 297.427734375 427.150390625 264.518554688 427.150390625 c 0
EndSplineSet
EndChar

StartChar: f
Encoding: 102 102 72
Width: 340
GlyphClass: 2
Flags: MW
HStem: 0.00976562 21G<114.264 219.159 114.264 114.264> 428.095 90.7207<53.7842 114.264 53.7842 114.264 219.159 319.329> 601.03 90.7197<249.399 259.794 259.794 319.329>
VStem: 114.264 104.896<0.00976562 428.095 0.00976562 428.095 518.815 552.835 552.835 555.67>
LayerCount: 2
Fore
SplineSet
259.793945312 601.030273438 m 2
 237.260742188 601.030273438 219.159179688 594.666015625 219.159179688 555.669921875 c 2
 219.159179688 518.815429688 l 1
 319.329101562 518.815429688 l 1
 319.329101562 428.094726562 l 1
 219.159179688 428.094726562 l 1
 219.159179688 0.009765625 l 1
 114.263671875 0.009765625 l 1
 114.263671875 428.094726562 l 1
 53.7841796875 428.094726562 l 1
 53.7841796875 518.815429688 l 1
 114.263671875 518.815429688 l 1
 114.263671875 552.834960938 l 2
 114.263671875 593.094726562 125.828125 627.69921875 150.4765625 653.482421875 c 0
 175.293945312 679.4453125 209.499023438 691.75 249.399414062 691.75 c 2
 319.329101562 691.75 l 1
 319.329101562 601.030273438 l 1
 259.793945312 601.030273438 l 2
EndSplineSet
EndChar

StartChar: g
Encoding: 103 103 73
Width: 516
GlyphClass: 2
Flags: MW
HStem: -149.3 95.4443<247.007 284.181 247.007 290.757> 29.3037 98.2803<238.229 263.258> 430.929 97.335<240.137 264.565 218.465 273.771>
VStem: 62.2891 104.895<246.654 250.435 250.435 308.079 191.868 312.804 191.868 347.837> 353.349 104.896<51.9844 57.6543 57.6543 64.6143 64.6143 64.6143 251.379 303.354 303.354 324.308 491.454 522.594>
LayerCount: 2
Fore
SplineSet
244.673828125 528.263671875 m 0
 284.456054688 528.263671875 322.266601562 518.036132812 353.348632812 491.454101562 c 1
 353.348632812 522.59375 l 1
 458.244140625 522.59375 l 1
 458.244140625 57.654296875 l 2
 458.244140625 -3.83984375 441.482421875 -55.052734375 406.125 -92.9091796875 c 0
 370.53515625 -131.015625 320.775390625 -149.299804688 260.739257812 -149.299804688 c 0
 207.428710938 -149.299804688 162.639648438 -137.299804688 128.28125 -111.259765625 c 0
 93.9970703125 -85.2763671875 74.4228515625 -48.8671875 70.861328125 -5.4111328125 c 2
 69.099609375 16.07421875 l 1
 171.965820312 16.07421875 l 1
 174.51953125 -0.7783203125 l 2
 176.850585938 -16.1650390625 184.076171875 -27.7841796875 198.807617188 -38.0205078125 c 0
 213.1328125 -47.9755859375 233.274414062 -53.85546875 260.739257812 -53.85546875 c 0
 307.622070312 -53.85546875 353.348632812 -37.806640625 353.348632812 51.984375 c 2
 353.348632812 64.6142578125 l 1
 321.298828125 38.490234375 282.787109375 29.3037109375 243.728515625 29.3037109375 c 0
 191.811523438 29.3037109375 147.189453125 47.3505859375 113.110351562 83.205078125 c 0
 77.7734375 120.3828125 62.2890625 175.986328125 62.2890625 246.654296875 c 2
 62.2890625 312.803710938 l 2
 62.2890625 382.87109375 77.798828125 438.0546875 113.178710938 474.907226562 c 0
 147.33203125 510.483398438 192.255859375 528.263671875 244.673828125 528.263671875 c 0
167.18359375 250.434570312 m 2
 167.18359375 133.301757812 223.280273438 127.583984375 253.178710938 127.583984375 c 0
 288.340820312 127.583984375 311.259765625 138.571289062 327.159179688 159.439453125 c 0
 344.063476562 181.625976562 353.348632812 211.623046875 353.348632812 251.37890625 c 2
 353.348632812 303.354492188 l 2
 353.348632812 345.260742188 344.184570312 376.548828125 327.85546875 398.934570312 c 0
 312.435546875 420.075195312 290.583984375 430.928710938 256.958984375 430.928710938 c 0
 223.314453125 430.928710938 167.18359375 423.135742188 167.18359375 308.079101562 c 2
 167.18359375 250.434570312 l 2
EndSplineSet
EndChar

StartChar: h
Encoding: 104 104 74
Width: 526
GlyphClass: 2
Flags: MW
HStem: 0.00976562 21G<77.4092 181.359 77.4092 77.4092> 427.149 97.334<268.854 315.578> 671.751 20G<77.4092 181.358 181.358 181.358>
VStem: 77.4092 103.95<0.00976562 325.09 0.00976562 691.751> 364.689 103.949<0.00878906 325.089 325.089 334.539 0.00878906 342.33>
LayerCount: 2
Fore
SplineSet
364.689453125 325.088867188 m 2
 364.689453125 359.571289062 357.1875 427.149414062 273.96875 427.149414062 c 0
 244.162109375 427.149414062 222.807617188 418.36328125 206.46875 401.522460938 c 0
 190.55078125 385.115234375 181.359375 360.7734375 181.359375 325.08984375 c 2
 181.359375 0.009765625 l 1
 77.4091796875 0.009765625 l 1
 77.4091796875 691.750976562 l 1
 181.358398438 691.750976562 l 1
 181.358398438 490.3828125 l 1
 210.877929688 513.051757812 247.67578125 524.483398438 290.033203125 524.483398438 c 0
 343.7734375 524.483398438 388.740234375 508.09375 421.15234375 473.861328125 c 0
 453.6171875 439.57421875 468.638671875 392.053710938 468.638671875 334.5390625 c 2
 468.638671875 0.0087890625 l 1
 364.689453125 0.0087890625 l 1
 364.689453125 325.088867188 l 2
EndSplineSet
EndChar

StartChar: i
Encoding: 105 105 75
Width: 250
GlyphClass: 2
Flags: MW
HStem: 0.00976562 21G<84.9688 188.919 84.9688 84.9688> 557.56 124.74<83.0791 190.809 83.0791 190.809>
VStem: 84.9688 103.95<0.00976562 518.815 0.00976562 518.815>
LayerCount: 2
Fore
SplineSet
84.96875 518.815429688 m 1
 188.918945312 518.815429688 l 1
 188.918945312 0.009765625 l 1
 84.96875 0.009765625 l 1
 84.96875 518.815429688 l 1
83.0791015625 682.299804688 m 1
 190.80859375 682.299804688 l 1
 190.80859375 557.559570312 l 1
 83.0791015625 557.559570312 l 1
 83.0791015625 682.299804688 l 1
EndSplineSet
EndChar

StartChar: j
Encoding: 106 106 76
Width: 242
GlyphClass: 2
Flags: MW
HStem: -143.63 98.2803<-21.8164 36.7744 36.7744 43.3887 -21.8164 36.7744> 567.01 124.74<74.5742 182.304 74.5742 182.304>
VStem: 77.4092 103.95<5.67969 518.815>
LayerCount: 2
Fore
SplineSet
74.57421875 691.75 m 1
 182.303710938 691.75 l 1
 182.303710938 567.009765625 l 1
 74.57421875 567.009765625 l 1
 74.57421875 691.75 l 1
-21.81640625 -45.349609375 m 1
 36.7744140625 -45.349609375 l 2
 54.994140625 -45.349609375 63.5400390625 -40.638671875 67.828125 -35.4921875 c 0
 72.6865234375 -29.662109375 77.4091796875 -16.6708984375 77.4091796875 5.6796875 c 2
 77.4091796875 518.815429688 l 1
 181.359375 518.815429688 l 1
 181.359375 1.900390625 l 2
 181.359375 -42.154296875 170.474609375 -78.953125 145.725585938 -105.25 c 0
 120.889648438 -131.639648438 85.431640625 -143.629882812 43.388671875 -143.629882812 c 2
 -21.81640625 -143.629882812 l 1
 -21.81640625 -45.349609375 l 1
EndSplineSet
EndChar

StartChar: k
Encoding: 107 107 77
Width: 500
GlyphClass: 2
Flags: MW
HStem: 0.00976562 21G<77.4092 181.359 77.4092 77.4092 385.442 510.591 385.442 385.442> 671.75 20G<77.4092 181.359 181.359 181.359>
VStem: 77.4092 103.95<0.00976562 155.272 299.392 691.75>
LayerCount: 2
Fore
SplineSet
385.442382812 0.009765625 m 1
 248.309570312 234.204101562 l 1
 181.359375 155.272460938 l 1
 181.359375 0.009765625 l 1
 77.4091796875 0.009765625 l 1
 77.4091796875 691.75 l 1
 181.359375 691.75 l 1
 181.359375 299.391601562 l 1
 360.9609375 518.815429688 l 1
 490.723632812 518.815429688 l 1
 318.219726562 315.619140625 l 1
 510.590820312 0.009765625 l 1
 385.442382812 0.009765625 l 1
EndSplineSet
EndChar

StartChar: l
Encoding: 108 108 78
Width: 288
GlyphClass: 2
Flags: MW
HStem: 0.00976562 98.2803<194.358 280.584 221.994 280.584 221.994 280.584> 671.75 20G<77.4092 181.359 181.359 181.359>
VStem: 77.4092 103.95<145.54 149.32 149.32 691.75>
LayerCount: 2
Fore
SplineSet
77.4091796875 145.540039062 m 2
 77.4091796875 691.75 l 1
 181.359375 691.75 l 1
 181.359375 149.3203125 l 2
 181.359375 126.969726562 186.081054688 113.978515625 190.940429688 108.147460938 c 0
 195.228515625 103.001953125 203.7734375 98.2900390625 221.994140625 98.2900390625 c 2
 280.583984375 98.2900390625 l 1
 280.583984375 0.009765625 l 1
 215.37890625 0.009765625 l 2
 173.336914062 0.009765625 137.87890625 12.0009765625 113.041992188 38.390625 c 0
 88.2939453125 64.6865234375 77.4091796875 101.485351562 77.4091796875 145.540039062 c 2
EndSplineSet
EndChar

StartChar: m
Encoding: 109 109 79
Width: 817
GlyphClass: 2
Flags: MW
HStem: 0.00878906 21G<363.744 468.639 363.744 363.744> 427.149 97.334<263.929 302.004 263.929 309.698>
VStem: 77.4092 103.95<0.00976562 325.09 0.00976562 518.815> 363.744 104.895<0.00878906 325.089 325.089 327.924 0.00878906 351.212> 651.024 103.949<0.0078125 325.088 325.088 334.538 0.0078125 351.211>
LayerCount: 2
Fore
SplineSet
363.744140625 325.088867188 m 2
 363.744140625 377.334960938 345.427734375 427.149414062 273.96875 427.149414062 c 0
 244.162109375 427.149414062 222.807617188 418.36328125 206.46875 401.522460938 c 0
 190.55078125 385.115234375 181.359375 360.7734375 181.359375 325.08984375 c 2
 181.359375 0.009765625 l 1
 77.4091796875 0.009765625 l 1
 77.4091796875 518.815429688 l 1
 180.412109375 518.815429688 l 1
 180.412109375 490.07421875 l 1
 202.049804688 506.418945312 237.825195312 524.483398438 290.033203125 524.483398438 c 0
 313.975585938 524.483398438 382.982421875 522.125 429.127929688 460.494140625 c 1
 464.098632812 502.796875 513.3984375 524.483398438 573.534179688 524.483398438 c 0
 685.119140625 524.483398438 754.973632812 454.69140625 754.973632812 334.538085938 c 2
 754.973632812 0.0078125 l 1
 651.024414062 0.0078125 l 1
 651.024414062 325.087890625 l 2
 651.024414062 377.333984375 632.70703125 427.1484375 561.249023438 427.1484375 c 0
 529.965820312 427.1484375 508.495117188 418.205078125 493.01953125 401.747070312 c 0
 477.42578125 385.1640625 468.638671875 361.602539062 468.638671875 327.923828125 c 2
 468.638671875 0.0087890625 l 1
 363.744140625 0.0087890625 l 1
 363.744140625 325.088867188 l 2
EndSplineSet
EndChar

StartChar: n
Encoding: 110 110 80
Width: 526
GlyphClass: 2
Flags: MW
HStem: 0.00976562 21G<77.4092 181.359 77.4092 77.4092> 427.149 97.335<259.897 315.578>
VStem: 77.4092 103.95<0.00976562 325.09 0.00976562 518.815> 364.689 103.949<0.00878906 325.089 325.089 334.539 0.00878906 342.33>
LayerCount: 2
Fore
SplineSet
364.689453125 325.088867188 m 2
 364.689453125 359.571289062 357.1875 427.149414062 273.96875 427.149414062 c 0
 244.162109375 427.149414062 222.807617188 418.36328125 206.46875 401.522460938 c 0
 190.55078125 385.115234375 181.359375 360.7734375 181.359375 325.08984375 c 2
 181.359375 0.009765625 l 1
 77.4091796875 0.009765625 l 1
 77.4091796875 518.815429688 l 1
 180.4140625 518.815429688 l 1
 180.4140625 490.700195312 l 1
 194.008789062 500.98828125 229.759765625 524.484375 290.034179688 524.484375 c 0
 344.931640625 524.484375 390.401367188 508.004882812 422.323242188 473.146484375 c 0
 453.95703125 438.604492188 468.638671875 391.3984375 468.638671875 334.5390625 c 2
 468.638671875 0.0087890625 l 1
 364.689453125 0.0087890625 l 1
 364.689453125 325.088867188 l 2
EndSplineSet
EndChar

StartChar: o
Encoding: 111 111 81
Width: 510
GlyphClass: 2
Flags: MW
HStem: -5.66016 97.335<249.708 282.396 249.708 295.737> 427.149 98.2803<249.708 282.396>
VStem: 62.2891 103.95<210.745 214.525 214.525 305.245 189.122 309.025 189.122 344.522> 363.744 103.949<214.524 305.244 305.244 309.025 175.266 330.326>
LayerCount: 2
Fore
SplineSet
62.2890625 210.745117188 m 2
 62.2890625 309.025390625 l 2
 62.2890625 380.018554688 79.6640625 436.032226562 118.606445312 472.770507812 c 0
 156.310546875 508.33984375 206.598632812 525.4296875 266.408203125 525.4296875 c 0
 325.06640625 525.4296875 374.595703125 508.249023438 411.916015625 472.705078125 c 0
 450.51171875 435.94921875 467.693359375 379.983398438 467.693359375 309.025390625 c 2
 467.693359375 210.745117188 l 2
 467.693359375 139.787109375 450.51171875 83.8212890625 411.916015625 47.064453125 c 0
 374.595703125 11.521484375 325.06640625 -5.66015625 266.408203125 -5.66015625 c 0
 206.642578125 -5.66015625 156.39453125 11.2333984375 118.6796875 46.458984375 c 0
 79.609375 82.94921875 62.2890625 139.180664062 62.2890625 210.745117188 c 2
363.744140625 214.524414062 m 2
 363.744140625 305.244140625 l 2
 363.744140625 355.407226562 353.04296875 386.165039062 337.901367188 401.306640625 c 0
 321.0859375 418.122070312 298.381835938 427.149414062 266.409179688 427.149414062 c 0
 233.005859375 427.149414062 209.47265625 417.975585938 192.448242188 401.202148438 c 0
 177.057617188 386.038085938 166.239257812 355.368164062 166.239257812 305.245117188 c 2
 166.239257812 214.525390625 l 2
 166.239257812 163.71875 177.11328125 132.731445312 192.448242188 117.622070312 c 0
 209.47265625 100.848632812 233.005859375 91.6748046875 266.409179688 91.6748046875 c 0
 298.381835938 91.6748046875 321.0859375 100.702148438 337.901367188 117.517578125 c 0
 352.98828125 132.603515625 363.744140625 163.680664062 363.744140625 214.524414062 c 2
EndSplineSet
EndChar

StartChar: p
Encoding: 112 112 82
Width: 515
GlyphClass: 2
Flags: MW
HStem: -5.66016 97.334<269.236 296.937 264.356 316.91> 427.148 97.3359<260.937 295.066>
VStem: 77.4092 103.95<-143.63 29.3936 195.965 215.469 215.469 299.574 488.462 518.815> 368.469 103.95<214.524 304.299 304.299 309.025 175.417 361.552>
LayerCount: 2
Fore
SplineSet
181.359375 488.461914062 m 1
 199.323242188 503.692382812 232.9609375 524.484375 286.25390625 524.484375 c 0
 339.791992188 524.484375 385.59765625 506.829101562 420.440429688 471.275390625 c 0
 456.53125 434.44921875 472.418945312 379.157226562 472.418945312 309.025390625 c 2
 472.418945312 210.745117188 l 2
 472.418945312 140.08984375 456.94921875 84.591796875 421.529296875 47.6962890625 c 0
 387.431640625 12.1787109375 342.841796875 -5.66015625 290.978515625 -5.66015625 c 0
 247.494140625 -5.66015625 210.287109375 6.064453125 181.359375 29.3935546875 c 1
 181.359375 -143.629882812 l 1
 77.4091796875 -143.629882812 l 1
 77.4091796875 518.815429688 l 1
 181.359375 518.815429688 l 1
 181.359375 488.461914062 l 1
281.529296875 91.673828125 m 0
 312.344726562 91.673828125 368.46875 97.90234375 368.46875 214.524414062 c 2
 368.46875 304.298828125 l 2
 368.46875 418.805664062 312.3828125 427.1484375 277.75 427.1484375 c 0
 244.124023438 427.1484375 222.272460938 416.293945312 206.8515625 395.153320312 c 0
 190.5234375 372.767578125 181.359375 341.48046875 181.359375 299.57421875 c 2
 181.359375 215.46875 l 2
 181.359375 176.461914062 190.7109375 146.638671875 207.999023438 124.030273438 c 0
 224.340820312 102.662109375 247.182617188 91.673828125 281.529296875 91.673828125 c 0
EndSplineSet
EndChar

StartChar: q
Encoding: 113 113 83
Width: 516
GlyphClass: 2
Flags: MW
HStem: -5.66016 97.335<238.229 265.471> 427.15 97.335<240.137 256.831 221.685 273.771>
VStem: 62.2891 104.895<210.745 214.525 214.525 304.3 155.959 309.025 155.959 344.092> 353.349 104.896<-143.63 29.3936 29.3936 29.3936 215.47 299.575 299.575 320.529 488.463 518.815 -143.63 518.815>
LayerCount: 2
Fore
SplineSet
248.454101562 524.485351562 m 0
 265.208007812 524.485351562 312.727539062 522.904296875 353.348632812 488.462890625 c 1
 353.348632812 518.815429688 l 1
 458.244140625 518.815429688 l 1
 458.244140625 -143.629882812 l 1
 353.348632812 -143.629882812 l 1
 353.348632812 29.3935546875 l 1
 324.420898438 6.064453125 287.212890625 -5.66015625 243.728515625 -5.66015625 c 0
 191.866210938 -5.66015625 147.276367188 12.1787109375 113.178710938 47.6962890625 c 0
 77.7587890625 84.591796875 62.2890625 140.08984375 62.2890625 210.745117188 c 2
 62.2890625 309.025390625 l 2
 62.2890625 379.158203125 78.1767578125 434.450195312 114.267578125 471.276367188 c 0
 149.110351562 506.830078125 194.916015625 524.485351562 248.454101562 524.485351562 c 0
167.18359375 214.525390625 m 2
 167.18359375 97.392578125 223.280273438 91.6748046875 253.178710938 91.6748046875 c 0
 288.340820312 91.6748046875 311.259765625 102.662109375 327.159179688 123.53125 c 0
 344.063476562 145.716796875 353.348632812 175.713867188 353.348632812 215.469726562 c 2
 353.348632812 299.575195312 l 2
 353.348632812 341.482421875 344.184570312 372.76953125 327.85546875 395.155273438 c 0
 312.435546875 416.295898438 290.583984375 427.150390625 256.958984375 427.150390625 c 0
 223.314453125 427.150390625 167.18359375 419.356445312 167.18359375 304.299804688 c 2
 167.18359375 214.525390625 l 2
EndSplineSet
EndChar

StartChar: r
Encoding: 114 114 84
Width: 349
GlyphClass: 2
Flags: MW
HStem: 0.00976562 21G<77.4092 181.359 77.4092 77.4092> 426.205 99.2246<258.111 283.693>
VStem: 77.4092 103.95<0.00976562 323.2 0.00976562 518.814>
LayerCount: 2
Fore
SplineSet
180.415039062 489.958007812 m 1
 191.576171875 499.208984375 226.340820312 525.4296875 286.254882812 525.4296875 c 0
 305.868164062 525.4296875 314.849609375 523.93359375 341.064453125 519.563476562 c 1
 341.064453125 410.953125 l 1
 301.828125 424.03125 295.306640625 426.205078125 272.080078125 426.205078125 c 0
 244.141601562 426.205078125 223.602539062 417.17578125 206.958984375 398.740234375 c 0
 190.262695312 380.24609375 181.359375 355.98828125 181.359375 323.200195312 c 2
 181.359375 0.009765625 l 1
 77.4091796875 0.009765625 l 1
 77.4091796875 518.814453125 l 1
 180.415039062 518.814453125 l 1
 180.415039062 489.958007812 l 1
EndSplineSet
EndChar

StartChar: s
Encoding: 115 115 85
Width: 468
GlyphClass: 2
Flags: MW
HStem: -5.66016 94.498<230.676 263.236 230.676 304.282> 432.819 92.6094<230.499 262.213>
VStem: 50.9473 102.06<154.043 154.988 154.988 177.668 144.522 177.668> 58.5078 102.061<363.156 391.974> 342.008 102.061<142.235 163.162>
LayerCount: 2
Fore
SplineSet
444.068359375 156.879882812 m 0xd8
 444.068359375 54.650390625 364.8359375 -5.66015625 243.728515625 -5.66015625 c 0
 188.291015625 -5.66015625 141.53515625 7.78125 105.661132812 36.4814453125 c 0
 69.4423828125 65.45703125 50.947265625 106.017578125 50.947265625 154.04296875 c 2
 50.947265625 177.66796875 l 1
 153.006835938 177.66796875 l 1
 153.006835938 154.98828125 l 2xe8
 153.006835938 134.056640625 160.139648438 119.809570312 175.803710938 108.001953125 c 0
 191.828125 95.9228515625 214.788085938 88.837890625 246.563476562 88.837890625 c 0
 279.909179688 88.837890625 303.791015625 95.6826171875 319.6953125 106.938476562 c 0
 334.828125 117.647460938 342.0078125 131.372070312 342.0078125 153.098632812 c 0
 342.0078125 173.224609375 336.478515625 183.897460938 328.208007812 190.514648438 c 0
 318.291992188 198.447265625 298.559570312 206.599609375 268.646484375 211.984375 c 0
 268.544921875 212.001953125 209.091796875 222.3828125 209.091796875 222.3828125 c 2
 118.658203125 238.270507812 58.5078125 275.454101562 58.5078125 368.559570312 c 0
 58.5078125 415.387695312 76.7265625 455.10546875 112.216796875 483.713867188 c 0
 147.2890625 511.985351562 192.180664062 525.428710938 244.672851562 525.428710938 c 0
 300.564453125 525.428710938 347.469726562 512.596679688 383.39453125 484.93359375 c 0
 419.348632812 457.249023438 438.3984375 419.098632812 438.3984375 374.229492188 c 2
 438.3984375 348.713867188 l 1
 336.337890625 348.713867188 l 1
 336.337890625 371.39453125 l 2
 336.337890625 391.053710938 329.7109375 404.126953125 315.081054688 414.981445312 c 0
 300.115234375 426.084960938 277.86328125 432.819335938 246.563476562 432.819335938 c 0
 214.434570312 432.819335938 160.568359375 424.848632812 160.568359375 371.39453125 c 0
 160.568359375 354.916992188 165.26171875 345.034179688 173.676757812 337.62109375 c 0
 182.586914062 329.771484375 200.299804688 321.931640625 227.450195312 317.209960938 c 2
 289.911132812 305.852539062 l 2
 389.48828125 287.265625 444.068359375 245.3828125 444.068359375 156.879882812 c 0xd8
EndSplineSet
EndChar

StartChar: t
Encoding: 116 116 86
Width: 352
GlyphClass: 2
Flags: MW
HStem: 0.0107422 96.3906<229.217 317.439 259.795 317.439 259.795 317.439> 428.095 90.7207<38.6641 113.319 38.6641 113.319 218.214 325.944>
VStem: 113.319 104.896<138.925 189.483 122.693 428.095>
LayerCount: 2
Fore
SplineSet
218.21484375 141.760742188 m 0
 218.21484375 103.625976562 235.791015625 96.4013671875 259.794921875 96.4013671875 c 2
 317.439453125 96.4013671875 l 1
 317.439453125 0.0107421875 l 1
 249.400390625 0.0107421875 l 2
 209.033203125 0.0107421875 174.553710938 12.013671875 149.634765625 37.69921875 c 0
 124.810546875 63.2861328125 113.319335938 98.1328125 113.319335938 138.924804688 c 2
 113.319335938 428.094726562 l 1
 38.6640625 428.094726562 l 1
 38.6640625 518.815429688 l 1
 113.319335938 518.815429688 l 1
 113.319335938 621.264648438 l 1
 218.213867188 669.911132812 l 1
 218.213867188 518.815429688 l 1
 325.944335938 518.815429688 l 1
 325.944335938 428.094726562 l 1
 218.213867188 428.094726562 l 1
 218.213867188 332.650390625 218.21484375 237.206054688 218.21484375 141.760742188 c 0
EndSplineSet
EndChar

StartChar: u
Encoding: 117 117 87
Width: 526
GlyphClass: 2
Flags: MW
HStem: -5.66016 97.335<254.51 291.606 254.51 363.395>
VStem: 77.4092 103.95<195.625 204.13 204.13 518.815> 364.689 103.949<204.13 518.815>
LayerCount: 2
Fore
SplineSet
468.638671875 195.625 m 2
 468.638671875 136.498046875 454.7109375 -5.66015625 272.079101562 -5.66015625 c 0
 210.696289062 -5.66015625 160.864257812 11.046875 126.732421875 47.380859375 c 0
 92.92578125 83.3681640625 77.4091796875 133.856445312 77.4091796875 195.625 c 2
 77.4091796875 518.815429688 l 1
 181.359375 518.815429688 l 1
 181.359375 204.129882812 l 2
 181.359375 162.354492188 189.71875 133.903320312 202.75 117.010742188 c 0
 214.6328125 101.607421875 235.995117188 91.6748046875 273.024414062 91.6748046875 c 0
 310.1875 91.6748046875 331.681640625 101.44140625 343.470703125 116.287109375 c 0
 356.18359375 132.296875 364.689453125 160.9609375 364.689453125 204.129882812 c 2
 364.689453125 518.815429688 l 1
 468.638671875 518.815429688 l 1
 468.638671875 195.625 l 2
EndSplineSet
EndChar

StartChar: v
Encoding: 118 118 88
Width: 447
GlyphClass: 2
Flags: MW
HStem: 0.00976562 21G<190.836 276.777 190.836 190.836>
LayerCount: 2
Fore
SplineSet
11.76171875 518.815429688 m 1
 123.969726562 518.815429688 l 1
 234.279296875 178.694335938 l 1
 344.588867188 518.815429688 l 1
 455.8515625 518.815429688 l 1
 276.77734375 0.009765625 l 1
 190.8359375 0.009765625 l 1
 11.76171875 518.815429688 l 1
EndSplineSet
EndChar

StartChar: w
Encoding: 119 119 89
Width: 711
GlyphClass: 2
Flags: MW
HStem: 0.00976562 21G<170.423 257.405 170.423 170.423 469.172 557.065 469.172 469.172>
LayerCount: 2
Fore
SplineSet
12.8369140625 518.815429688 m 1
 124.583007812 518.815429688 l 1
 218.220703125 185.333984375 l 1
 321.71484375 518.815429688 l 1
 404.828125 518.815429688 l 1
 508.405273438 185.065429688 l 1
 602.940429688 518.815429688 l 1
 714.651367188 518.815429688 l 1
 557.065429688 0.009765625 l 1
 469.171875 0.009765625 l 1
 362.873046875 339.666015625 l 1
 257.405273438 0.009765625 l 1
 170.422851562 0.009765625 l 1
 12.8369140625 518.815429688 l 1
EndSplineSet
EndChar

StartChar: x
Encoding: 120 120 90
Width: 430
GlyphClass: 2
Flags: MW
HStem: 0.00976562 21G<4.16699 119.773 4.16699 4.16699 330.877 446.385 330.877 330.877>
LayerCount: 2
Fore
SplineSet
330.876953125 0.009765625 m 1
 224.897460938 173.508789062 l 1
 119.7734375 0.009765625 l 1
 4.1669921875 0.009765625 l 1
 167.548828125 266.52734375 l 1
 13.7158203125 518.815429688 l 1
 129.16796875 518.815429688 l 1
 226.494140625 359.70703125 l 1
 321.282226562 518.815429688 l 1
 437.442382812 518.815429688 l 1
 281.249023438 270.138671875 l 1
 446.384765625 0.009765625 l 1
 330.876953125 0.009765625 l 1
EndSplineSet
EndChar

StartChar: y
Encoding: 121 121 91
Width: 447
GlyphClass: 2
Flags: MW
HStem: -143.63 98.2803<69.8486 113.319 113.319 118.044 69.8486 113.319>
LayerCount: 2
Fore
SplineSet
118.043945312 -143.629882812 m 2
 69.8486328125 -143.629882812 l 1
 69.8486328125 -45.349609375 l 1
 113.319335938 -45.349609375 l 2
 134.1796875 -45.349609375 146.7890625 -40.86328125 153.28125 -35.5986328125 c 0
 160.77734375 -29.5205078125 168.94140625 -17.6513671875 175.782226562 1.6376953125 c 2
 183.110351562 24.3544921875 l 1
 11.7236328125 518.815429688 l 1
 123.891601562 518.815429688 l 1
 235.223632812 181.46875 l 1
 346.556640625 518.815429688 l 1
 455.899414062 518.815429688 l 1
 262.448242188 -38.71875 l 2
 237.522460938 -109.341796875 193.28125 -143.629882812 118.043945312 -143.629882812 c 2
EndSplineSet
EndChar

StartChar: z
Encoding: 122 122 92
Width: 463
GlyphClass: 2
Flags: MW
HStem: 0.00976562 99.2256<191.684 421.389 191.684 421.389> 419.59 99.2256<62.2891 421.389 62.2891 290.268>
LayerCount: 2
Fore
SplineSet
62.2890625 419.58984375 m 1
 62.2890625 518.815429688 l 1
 421.388671875 518.815429688 l 1
 421.388671875 433.2734375 l 1
 191.68359375 99.2353515625 l 1
 421.388671875 99.2353515625 l 1
 421.388671875 0.009765625 l 1
 62.2890625 0.009765625 l 1
 62.2890625 85.513671875 l 1
 290.267578125 419.58984375 l 1
 62.2890625 419.58984375 l 1
EndSplineSet
EndChar

StartChar: braceleft
Encoding: 123 123 93
Width: 352
GlyphClass: 2
Flags: MW
HStem: -79.3701 97.335<218.454 311.769 258.849 311.769 258.849 311.769> 282.136 100.084<62.2891 62.2891> 641.665 97.335<252.795 258.849 258.849 311.769>
VStem: 128.439 106.784<44.4248 46.3154 46.3154 220.195 439.435 444.16 444.16 613.315>
LayerCount: 2
Fore
SplineSet
244.673828125 -79.3701171875 m 2
 192.233398438 -79.3701171875 128.439453125 -58.265625 128.439453125 44.4248046875 c 2
 128.439453125 224.919921875 l 2
 128.439453125 249.967773438 123.204101562 264.22265625 118.150390625 270.065429688 c 0
 113.37890625 275.58203125 102.818359375 281.068359375 81.6025390625 281.626953125 c 2
 62.2890625 282.135742188 l 1
 62.2890625 382.219726562 l 1
 81.6025390625 382.728515625 l 2
 102.818359375 383.287109375 113.37890625 388.7734375 118.150390625 394.2890625 c 0
 123.204101562 400.1328125 128.439453125 414.387695312 128.439453125 439.434570312 c 2
 128.439453125 615.205078125 l 2
 128.439453125 638.631835938 128.57421875 739 244.673828125 739 c 2
 311.768554688 739 l 1
 311.768554688 641.665039062 l 1
 258.848632812 641.665039062 l 2
 246.741210938 641.665039062 242.108398438 638.626953125 240.404296875 636.767578125 c 0
 238.6328125 634.834960938 235.223632812 628.016601562 235.223632812 613.315429688 c 2
 235.223632812 444.16015625 l 2
 235.223632812 385.212890625 225.19921875 353.862304688 199.037109375 331.954101562 c 1
 224.360351562 311.265625 235.223632812 281.0859375 235.223632812 220.1953125 c 2
 235.223632812 46.3154296875 l 2
 235.223632812 31.61328125 238.6328125 24.794921875 240.404296875 22.8623046875 c 0
 242.108398438 21.0029296875 246.741210938 17.96484375 258.848632812 17.96484375 c 2
 311.768554688 17.96484375 l 1
 311.768554688 -79.3701171875 l 1
 244.673828125 -79.3701171875 l 2
EndSplineSet
Substitution2: "'rtla' Right to Left Alternates lookup 0 subtable" braceright
EndChar

StartChar: bar
Encoding: 124 124 94
Width: 316
GlyphClass: 2
Flags: MW
VStem: 118.044 103.005<-78.4248 739 -78.4248 739>
LayerCount: 2
Fore
SplineSet
118.043945312 739 m 1
 221.048828125 739 l 1
 221.048828125 -78.4248046875 l 1
 118.043945312 -78.4248046875 l 1
 118.043945312 739 l 1
EndSplineSet
EndChar

StartChar: braceright
Encoding: 125 125 95
Width: 352
GlyphClass: 2
Flags: MW
HStem: -79.3701 97.335<62.2891 115.209 115.209 121.263 62.2891 129.384 62.2891 115.209> 281.627 101.102<292.455 292.455> 641.665 97.335<62.2891 115.209 62.2891 129.384>
VStem: 138.834 106.785<46.3154 220.195 220.195 224.92 444.16 613.315 613.315 615.205>
LayerCount: 2
Fore
SplineSet
245.619140625 44.4248046875 m 2
 245.619140625 20.998046875 245.483398438 -79.3701171875 129.383789062 -79.3701171875 c 2
 62.2890625 -79.3701171875 l 1
 62.2890625 17.96484375 l 1
 115.208984375 17.96484375 l 2
 127.317382812 17.96484375 131.94921875 21.0029296875 133.653320312 22.8623046875 c 0
 135.424804688 24.794921875 138.833984375 31.61328125 138.833984375 46.3154296875 c 2
 138.833984375 220.1953125 l 2
 138.833984375 281.044921875 149.677734375 311.248046875 175.021484375 331.954101562 c 1
 148.830078125 353.885742188 138.833984375 385.278320312 138.833984375 444.16015625 c 2
 138.833984375 613.315429688 l 2
 138.833984375 628.016601562 135.424804688 634.834960938 133.653320312 636.767578125 c 0
 131.94921875 638.626953125 127.317382812 641.665039062 115.208984375 641.665039062 c 2
 62.2890625 641.665039062 l 1
 62.2890625 739 l 1
 129.383789062 739 l 2
 181.825195312 739 245.619140625 717.896484375 245.619140625 615.205078125 c 2
 245.619140625 439.434570312 l 2
 245.619140625 414.387695312 250.854492188 400.1328125 255.908203125 394.2890625 c 0
 260.678710938 388.7734375 271.240234375 383.287109375 292.455078125 382.728515625 c 2
 311.768554688 382.219726562 l 1
 311.768554688 282.135742188 l 1
 292.455078125 281.626953125 l 2
 271.240234375 281.068359375 260.678710938 275.58203125 255.908203125 270.065429688 c 0
 250.854492188 264.22265625 245.619140625 249.967773438 245.619140625 224.919921875 c 2
 245.619140625 44.4248046875 l 2
EndSplineSet
Substitution2: "'rtla' Right to Left Alternates lookup 0 subtable" braceleft
EndChar

StartChar: asciitilde
Encoding: 126 126 96
Width: 517
GlyphClass: 2
Flags: MW
HStem: 200.35 100.171<339.245 352.723 339.245 358.562> 260.83 99.2246<184.131 195.187>
LayerCount: 2
Fore
SplineSet
189.86328125 260.830078125 m 0x40
 178.399414062 260.830078125 170.40625 257.954101562 163.857421875 252.793945312 c 0
 151.21484375 242.833007812 139.725585938 223.30078125 123.962890625 196.502929688 c 1
 45.439453125 244.578125 l 1
 59.9833984375 276.436523438 74.7880859375 308.868164062 110.330078125 334.177734375 c 0
 134.291992188 351.2421875 161.576171875 360.0546875 190.807617188 360.0546875 c 0x40
 220.135742188 360.0546875 240.291015625 353.650390625 288.8203125 324.202148438 c 0
 328.514648438 301.056640625 333.646484375 300.520507812 344.842773438 300.520507812 c 0
 360.602539062 300.520507812 376.3984375 303.930664062 401.34375 347.255859375 c 2
 411.678710938 365.20703125 l 1
 490.5 315.33984375 l 1
 475.06640625 283.770507812 459.735351562 252.413085938 424.538085938 226.815429688 c 0
 400.575195312 209.387695312 373.223632812 200.349609375 343.899414062 200.349609375 c 0x80
 316.466796875 200.349609375 291.55078125 206.32421875 245.192382812 236.635742188 c 0
 209.4453125 259.94921875 200.510742188 260.830078125 189.86328125 260.830078125 c 0x40
EndSplineSet
EndChar

StartChar: exclamdown
Encoding: 161 161 98
Width: 256
GlyphClass: 2
Flags: MW
HStem: 390.295 128.521<77.4092 202.149 77.4092 202.149>
VStem: 77.4092 124.74<390.295 518.815 390.295 518.815> 94.0645 91.4287<333.595 333.595>
LayerCount: 2
Fore
SplineSet
77.4091796875 518.815429688 m 1xc0
 202.149414062 518.815429688 l 1
 202.149414062 390.294921875 l 1
 77.4091796875 390.294921875 l 1
 77.4091796875 518.815429688 l 1xc0
185.493164062 333.594726562 m 1xa0
 199.922851562 -143.629882812 l 1
 79.634765625 -143.629882812 l 1
 94.064453125 333.594726562 l 1
 185.493164062 333.594726562 l 1xa0
EndSplineSet
EndChar

StartChar: cent
Encoding: 162 162 99
Width: 508
GlyphClass: 2
Flags: MW
HStem: -3.06543 99.125<306.099 306.099> 422.871 99.9639<306.099 306.099>
VStem: 62.2891 103.95<210.745 214.526 214.526 305.246 181.576 309.025 181.576 340.62> 211.6 94.499<103.483 414.806 414.806 414.806> 363.744 102.06<172.945 173.89 173.89 197.515 148.769 197.515 321.31 345.88>
LayerCount: 2
Fore
SplineSet
306.098632812 96.0595703125 m 1
 334.1015625 103.248046875 363.744140625 122.719726562 363.744140625 172.9453125 c 2
 363.744140625 197.514648438 l 1
 465.803710938 197.514648438 l 1
 465.803710938 173.889648438 l 2
 465.803710938 123.6484375 449.6953125 80.58203125 416.991210938 47.8779296875 c 0
 388.240234375 19.126953125 350.61328125 2.404296875 306.098632812 -3.0654296875 c 1
 306.098632812 -94.490234375 l 1
 211.598632812 -94.490234375 l 1
 211.598632812 0.3330078125 l 1
 169.338867188 9.283203125 133.912109375 29.259765625 107.235351562 60.3310546875 c 0
 76.1572265625 96.5283203125 62.2890625 147.53125 62.2890625 210.745117188 c 2
 62.2890625 309.025390625 l 2
 62.2890625 372.213867188 75.9814453125 423.270507812 106.623046875 459.747070312 c 0
 133.108398438 491.27734375 168.783203125 511.452148438 211.598632812 520.416992188 c 1
 211.598632812 613.315429688 l 1
 306.098632812 613.315429688 l 1
 306.098632812 522.834960938 l 1
 350.61328125 517.366210938 388.240234375 500.643554688 416.991210938 471.892578125 c 0
 449.6953125 439.188476562 465.803710938 396.122070312 465.803710938 345.879882812 c 2
 465.803710938 321.309570312 l 1
 363.744140625 321.309570312 l 1
 363.744140625 345.880859375 l 2
 363.744140625 359.02734375 363.611328125 408.572265625 306.098632812 422.87109375 c 1
 306.098632812 96.0595703125 l 1
211.599609375 414.805664062 m 1
 183.795898438 399.455078125 166.239257812 369.791015625 166.239257812 305.24609375 c 2
 166.239257812 214.526367188 l 2
 166.239257812 148.625976562 184.088867188 118.258789062 211.599609375 103.483398438 c 1
 211.599609375 414.805664062 l 1
EndSplineSet
EndChar

StartChar: sterling
Encoding: 163 163 100
Width: 444
GlyphClass: 2
Flags: MW
HStem: 0.0107422 103.949<195.021 427.059 195.021 427.059> 274.06 102.061<209.709 341.064 209.709 341.064> 597.251 103.95<252.665 285.099>
VStem: 100.089 109.62<175.781 184.285 184.285 274.06 164.957 274.061 164.957 274.061 376.121 518.816 518.816 529.21> 315.549 107.73<517.871 537.716 517.871 550.079>
LayerCount: 2
Fore
SplineSet
209.708984375 184.28515625 m 2
 209.708984375 145.627929688 202.926757812 121.29296875 195.021484375 103.959960938 c 1
 427.05859375 103.959960938 l 1
 427.05859375 0.0107421875 l 1
 57.564453125 0.0107421875 l 1
 57.564453125 89.4443359375 l 1
 74.5625 100.068359375 84.36328125 106.193359375 91.8203125 123.240234375 c 0
 96.8369140625 134.705078125 100.088867188 152.290039062 100.088867188 175.78125 c 2
 100.088867188 274.060546875 l 1
 37.71875 274.060546875 l 1
 37.71875 376.12109375 l 1
 100.088867188 376.12109375 l 1
 100.088867188 518.81640625 l 2
 100.088867188 573.072265625 113.752929688 618.259765625 143.379882812 651.543945312 c 0
 173.0859375 684.916992188 214.485351562 701.201171875 263.57421875 701.201171875 c 0
 309.87109375 701.201171875 349.506835938 686.797851562 379.19140625 657.11328125 c 0
 409.124023438 627.180664062 423.279296875 586.2265625 423.279296875 537.715820312 c 2
 423.279296875 517.87109375 l 1
 315.548828125 517.87109375 l 1
 315.548828125 537.715820312 l 2
 315.548828125 562.442382812 307.568359375 597.250976562 262.62890625 597.250976562 c 0
 242.700195312 597.250976562 209.708984375 592.254882812 209.708984375 529.209960938 c 2
 209.708984375 376.120117188 l 1
 341.064453125 376.120117188 l 1
 341.064453125 274.059570312 l 1
 209.708984375 274.059570312 l 1
 209.708984375 184.28515625 l 2
EndSplineSet
EndChar

StartChar: currency
Encoding: 164 164 101
Width: 613
GlyphClass: 2
Flags: MW
HStem: 122.86 97.335<299.974 331.121 299.974 334.695> 437.545 97.335<299.974 331.121>
VStem: 109.538 100.169<312.864 344.875 312.864 348.232> 421.387 100.172<312.864 344.875>
LayerCount: 2
Fore
SplineSet
109.538085938 328.870117188 m 0
 109.538085938 367.594726562 118.993164062 403.055664062 137.922851562 434.18359375 c 1
 69.4404296875 503.64453125 l 1
 140.47265625 576.219726562 l 1
 210.3828125 507.293945312 l 1
 241.500976562 525.709960938 276.895507812 534.879882812 315.547851562 534.879882812 c 0
 353.698242188 534.879882812 388.775390625 525.685546875 419.775390625 507.30078125 c 1
 489.528320312 576.0703125 l 1
 561.903320312 503.6953125 l 1
 492.98828125 434.779296875 l 1
 511.93359375 402.475585938 521.55859375 366.881835938 521.55859375 328.870117188 c 0
 521.55859375 290.614257812 512.0703125 255.274414062 493.21484375 223.841796875 c 1
 562.799804688 155.236328125 l 1
 490.522460938 81.421875 l 1
 420.678710938 151.265625 l 1
 389.220703125 132.369140625 353.84375 122.860351562 315.546875 122.860351562 c 0
 276.749023438 122.860351562 241.0546875 132.344726562 209.479492188 151.271484375 c 1
 140.420898438 82.2138671875 l 1
 69.4892578125 156.23046875 l 1
 137.223632812 223.965820312 l 1
 118.831054688 255.77734375 109.538085938 291.040039062 109.538085938 328.870117188 c 0
421.38671875 328.870117188 m 0
 421.38671875 360.880859375 411.3828125 385.883789062 391.110351562 406.690429688 c 0
 370.884765625 427.447265625 346.694335938 437.544921875 315.546875 437.544921875 c 0
 284.400390625 437.544921875 260.208984375 427.447265625 239.984375 406.690429688 c 0
 219.711914062 385.883789062 209.70703125 360.880859375 209.70703125 328.870117188 c 0
 209.70703125 296.858398438 219.711914062 271.856445312 239.984375 251.049804688 c 0
 260.208984375 230.29296875 284.400390625 220.1953125 315.546875 220.1953125 c 0
 346.694335938 220.1953125 370.884765625 230.29296875 391.110351562 251.049804688 c 0
 411.3828125 271.856445312 421.38671875 296.858398438 421.38671875 328.870117188 c 0
EndSplineSet
EndChar

StartChar: yen
Encoding: 165 165 102
Width: 461
GlyphClass: 2
Flags: MW
HStem: 0.00976562 21G<187.029 295.704 187.029 187.029> 146.485 92.6094<52.8389 187.029 52.8389 187.029 295.704 428.949> 262.72 93.5557<52.8389 158.047 52.8389 187.029 52.8389 158.047 324.607 428.949> 671.75 20G<4.95703 126.53 126.53 126.53 356.165 476.752 476.752 476.752>
VStem: 187.029 108.675<0.00976562 146.485 0.00976562 146.485 239.095 262.72>
LayerCount: 2
Fore
SplineSet
295.704101562 146.485351562 m 1
 295.704101562 0.009765625 l 1
 187.029296875 0.009765625 l 1
 187.029296875 146.485351562 l 1
 52.8388671875 146.485351562 l 1
 52.8388671875 239.094726562 l 1
 187.029296875 239.094726562 l 1
 187.029296875 262.719726562 l 1
 52.8388671875 262.719726562 l 1
 52.8388671875 356.275390625 l 1
 158.046875 356.275390625 l 1
 4.95703125 691.75 l 1
 126.530273438 691.75 l 1
 241.771484375 416.358398438 l 1
 356.165039062 691.75 l 1
 476.751953125 691.75 l 1
 324.607421875 356.275390625 l 1
 428.94921875 356.275390625 l 1
 428.94921875 262.719726562 l 1
 295.704101562 262.719726562 l 1
 295.704101562 239.094726562 l 1
 428.94921875 239.094726562 l 1
 428.94921875 146.485351562 l 1
 295.704101562 146.485351562 l 1
EndSplineSet
EndChar

StartChar: brokenbar
Encoding: 166 166 103
Width: 316
GlyphClass: 2
Flags: MW
VStem: 118.044 103.005<-78.4248 295.795 -78.4248 295.795 366.67 739>
LayerCount: 2
Fore
SplineSet
118.043945312 739 m 1
 221.048828125 739 l 1
 221.048828125 366.669921875 l 1
 118.043945312 366.669921875 l 1
 118.043945312 739 l 1
118.043945312 295.794921875 m 1
 221.048828125 295.794921875 l 1
 221.048828125 -78.4248046875 l 1
 118.043945312 -78.4248046875 l 1
 118.043945312 295.794921875 l 1
EndSplineSet
EndChar

StartChar: section
Encoding: 167 167 104
Width: 516
GlyphClass: 2
Flags: MW
HStem: -158.75 100.17<242.839 285.072 242.839 291> 614.262 100.17<255.219 287.147>
VStem: 82.1318 107.729<264.047 297.878> 94.415 104.896<16.0752 35.9199 -11.1743 35.9199> 102.922 107.731<542.507 577.487> 330.666 107.733<-18.249 17.1948> 345.785 107.733<265.515 302.039>
LayerCount: 2
Fore
SplineSet
266.409179688 -158.75 m 0xc4
 201.100585938 -158.75 94.4150390625 -135.544921875 94.4150390625 16.0751953125 c 2
 94.4150390625 35.919921875 l 1
 199.310546875 35.919921875 l 1
 199.310546875 16.0751953125 l 2xd4
 199.310546875 -38.423828125 220.217773438 -58.580078125 265.459960938 -58.580078125 c 0
 304.68359375 -58.580078125 330.666015625 -41.2333984375 330.666015625 4.7353515625 c 0
 330.666015625 29.654296875 323.545898438 45.68359375 310.842773438 57.025390625 c 0
 297.540039062 68.90234375 270.040039062 81.470703125 228.010742188 91.216796875 c 0
 177.966796875 102.495117188 82.1318359375 136.423828125 82.1318359375 279.731445312 c 0xe4
 82.1318359375 316.025390625 90.5966796875 391.203125 155.62890625 433.086914062 c 1
 129.036132812 453.81640625 102.921875 486.87109375 102.921875 554.7265625 c 0
 102.921875 600.247070312 118.517578125 639.625 149.625976562 669.647460938 c 0
 180.869140625 699.801757812 222.086914062 714.431640625 270.188476562 714.431640625 c 0
 322.73046875 714.431640625 365.762695312 700.096679688 394.911132812 668.299804688 c 0
 423.284179688 637.34765625 436.5078125 595.663085938 436.5078125 546.221679688 c 2
 436.5078125 526.376953125 l 1
 331.61328125 526.376953125 l 1
 331.61328125 546.221679688 l 2
 331.61328125 604.112304688 303.162109375 614.26171875 271.1328125 614.26171875 c 0
 239.305664062 614.26171875 210.653320312 601.322265625 210.653320312 554.725585938 c 0
 210.653320312 530.288085938 217.463867188 514.331054688 229.462890625 503.010742188 c 0
 241.739257812 491.428710938 268.033203125 478.88671875 308.709960938 469.162109375 c 0
 366.80078125 456.04296875 453.518554688 418.865234375 453.518554688 279.73046875 c 0xca
 453.518554688 251.298828125 447.474609375 172.12109375 383.625976562 128.836914062 c 1
 414.672851562 105.260742188 438.399414062 68.763671875 438.399414062 2.84375 c 0
 438.399414062 -44.490234375 422.349609375 -84.8974609375 389.94140625 -114.755859375 c 0
 357.72265625 -144.440429688 315.58984375 -158.75 266.409179688 -158.75 c 0xc4
268.294921875 189.955078125 m 0
 324.819335938 189.955078125 345.78515625 229.495117188 345.78515625 279.729492188 c 0
 345.78515625 324.34765625 330.688476562 370.44921875 268.294921875 370.44921875 c 0
 232.4296875 370.44921875 189.860351562 354.665039062 189.860351562 279.73046875 c 0xe2
 189.860351562 248.36328125 197.72265625 226.912109375 211.095703125 212.345703125 c 0
 224.573242188 197.665039062 242.37890625 189.955078125 268.294921875 189.955078125 c 0
250.33984375 687.96875 m 1024
EndSplineSet
EndChar

StartChar: dieresis
Encoding: 168 168 105
Width: 505
GlyphClass: 2
Flags: MW
HStem: 546.22 120.96<125.604 237.114 125.604 237.114 125.604 287.199 287.199 398.709>
VStem: 125.604 111.511<546.22 667.18 546.22 667.18> 287.199 111.51<546.22 667.18 546.22 667.18>
LayerCount: 2
Fore
SplineSet
125.603515625 667.1796875 m 1
 237.114257812 667.1796875 l 1
 237.114257812 546.219726562 l 1
 125.603515625 546.219726562 l 1
 125.603515625 667.1796875 l 1
287.19921875 667.1796875 m 1
 398.708984375 667.1796875 l 1
 398.708984375 546.219726562 l 1
 287.19921875 546.219726562 l 1
 287.19921875 667.1796875 l 1
EndSplineSet
EndChar

StartChar: copyright
Encoding: 169 169 106
Width: 813
GlyphClass: 2
Flags: MW
HStem: -9.44043 89.7744<380.531 488.359 338.191 517.541> 139.869 85.0508<406.732 432.399 406.732 464.683> 461.169 85.9951<406.731 439.793 394.391 443.587> 601.976 89.7734<380.531 488.343>
VStem: 68.9043 93.5547<307.589 374.719> 257.903 90.7197<307.133 309.969 309.969 377.064 291.482 379.898 291.482 407.177> 480.924 88.8301<279.73 303.355 237.644 303.355> 666.144 93.5547<259.451 422.874>
LayerCount: 2
Fore
SplineSet
759.698242188 341.154296875 m 0
 759.698242188 136.674804688 621.251953125 -9.4404296875 413.829101562 -9.4404296875 c 0
 347.232421875 -9.4404296875 287.258789062 5.314453125 234.861328125 35.2080078125 c 0
 182.630859375 65.0068359375 141.512695312 106.989257812 112.434570312 160.131835938 c 0
 83.2900390625 213.397460938 68.904296875 274.0234375 68.904296875 341.154296875 c 0
 68.904296875 408.284179688 83.2900390625 468.911132812 112.434570312 522.176757812 c 0
 141.512695312 575.318359375 182.629882812 617.302734375 234.861328125 647.1015625 c 0
 287.258789062 676.995117188 347.232421875 691.749023438 413.829101562 691.749023438 c 0
 617.239257812 691.749023438 759.698242188 548.154296875 759.698242188 341.154296875 c 0
413.829101562 80.333984375 m 0
 562.889648438 80.333984375 666.143554688 177.74609375 666.143554688 341.155273438 c 0
 666.143554688 504.592773438 562.858398438 601.975585938 413.828125 601.975585938 c 0
 262.547851562 601.975585938 162.458984375 501.504882812 162.458984375 341.155273438 c 0
 162.458984375 180.80078125 262.552734375 80.333984375 413.829101562 80.333984375 c 0
569.75390625 278.78515625 m 2
 569.75390625 196.501953125 511.755859375 139.869140625 417.609375 139.869140625 c 0
 371.174804688 139.869140625 331.668945312 152.740234375 302.080078125 180.109375 c 0
 271.133789062 208.735351562 257.903320312 252.575195312 257.903320312 307.1328125 c 2
 257.903320312 379.8984375 l 2
 257.903320312 434.455078125 271.1328125 478.297851562 302.079101562 506.923828125 c 0
 331.66796875 534.29296875 371.173828125 547.1640625 417.608398438 547.1640625 c 0
 461.978515625 547.1640625 499.676757812 535.384765625 527.791992188 509.892578125 c 0
 555.955078125 484.358398438 569.752929688 449.20703125 569.752929688 408.249023438 c 2
 569.752929688 383.678710938 l 1
 480.922851562 383.678710938 l 1
 480.922851562 406.359375 l 2
 480.922851562 435.067382812 467.67578125 461.168945312 419.498046875 461.168945312 c 0
 393.963867188 461.168945312 377.380859375 454.559570312 366.2890625 443.689453125 c 0
 356.614257812 434.208984375 348.623046875 413.3359375 348.623046875 377.064453125 c 2
 348.623046875 309.96875 l 2
 348.623046875 272.99609375 356.690429688 251.805664062 366.2890625 242.399414062 c 0
 377.381835938 231.529296875 393.96484375 224.919921875 419.499023438 224.919921875 c 0
 445.299804688 224.919921875 480.923828125 233.323242188 480.923828125 279.73046875 c 2
 480.923828125 303.35546875 l 1
 569.75390625 303.35546875 l 1
 569.75390625 278.78515625 l 2
EndSplineSet
EndChar

StartChar: ordfeminine
Encoding: 170 170 107
Width: 343
GlyphClass: 2
Flags: MW
HStem: 402.58 89.7754<153.009 166.306> 536.771 82.2148<159.623 169.074 169.074 207.818 159.623 207.819> 660.565 85.9941<168.008 187.746>
VStem: 39.6084 98.2803<510.321 519.468 510.321 541.814> 47.1689 96.3896<618.322 637.885 618.322 637.885 618.322 667.277> 207.818 100.171<618.985 625.6 406.36 628.435 406.36 638.432>
LayerCount: 2
Fore
SplineSet
47.1689453125 637.884765625 m 2xec
 47.1689453125 696.668945312 89.294921875 746.559570312 174.743164062 746.559570312 c 0
 214.213867188 746.559570312 247.493164062 737.40234375 271.873046875 716.168945312 c 0
 296.723632812 694.524414062 307.989257812 662.803710938 307.989257812 625.599609375 c 2
 307.989257812 406.360351562 l 1
 209.708984375 406.360351562 l 1
 209.708984375 413.658203125 l 1
 194.544921875 406.111328125 176.767578125 402.580078125 155.84375 402.580078125 c 0
 121.625976562 402.580078125 92.1396484375 411.631835938 70.740234375 432.223632812 c 0
 49.392578125 452.764648438 39.6083984375 481.303710938 39.6083984375 514.08984375 c 0xf4
 39.6083984375 569.5390625 75.111328125 606.294921875 127.446289062 616.150390625 c 1
 47.1689453125 616.150390625 l 1
 47.1689453125 637.884765625 l 2xec
207.818359375 628.434570312 m 2
 207.818359375 648.4296875 200.748046875 660.565429688 174.743164062 660.565429688 c 0
 161.2734375 660.565429688 153.842773438 657.421875 149.848632812 653.998046875 c 0
 145.80078125 650.528320312 143.55859375 646.534179688 143.55859375 637.884765625 c 2
 143.55859375 618.322265625 l 1xec
 148.7890625 618.767578125 154.147460938 618.985351562 159.623046875 618.985351562 c 2
 207.818359375 618.985351562 l 1
 207.818359375 628.434570312 l 2
137.888671875 515.03515625 m 0xf4
 137.888671875 505.606445312 137.888671875 492.35546875 168.12890625 492.35546875 c 0
 186.2578125 492.35546875 195.431640625 496.6875 199.458984375 500.71484375 c 0
 203.76953125 505.026367188 207.819335938 513.583984375 207.819335938 530.155273438 c 2
 207.819335938 536.770507812 l 1
 169.07421875 536.770507812 l 2
 137.888671875 536.770507812 137.888671875 523.900390625 137.888671875 515.03515625 c 0xf4
182.303710938 820.270507812 m 1024
EndSplineSet
EndChar

StartChar: guillemotleft
Encoding: 171 171 108
Width: 485
GlyphClass: 2
Flags: W
LayerCount: 2
Fore
SplineSet
254.124023438 504.872070312 m 1
 254.124023438 369.897460938 l 1
 155.310546875 269.334960938 l 1
 254.124023438 168.772460938 l 1
 254.124023438 33.798828125 l 1
 22.15625 269.334960938 l 1
 254.124023438 504.872070312 l 1
427.05859375 504.872070312 m 1
 427.05859375 369.897460938 l 1
 328.24609375 269.334960938 l 1
 427.05859375 168.772460938 l 1
 427.05859375 33.798828125 l 1
 195.090820312 269.334960938 l 1
 427.05859375 504.872070312 l 1
EndSplineSet
EndChar

StartChar: logicalnot
Encoding: 172 172 109
Width: 517
GlyphClass: 2
Flags: MW
HStem: 249.49 98.2803<59.4541 372.249 59.4541 477.144>
VStem: 372.249 104.895<122.86 249.49 249.49 249.49>
LayerCount: 2
Fore
SplineSet
372.249023438 249.490234375 m 1
 59.4541015625 249.490234375 l 1
 59.4541015625 347.770507812 l 1
 477.143554688 347.770507812 l 1
 477.143554688 122.860351562 l 1
 372.249023438 122.860351562 l 1
 372.249023438 249.490234375 l 1
EndSplineSet
EndChar

StartChar: uni00AD
Encoding: 173 173 110
Width: 403
GlyphClass: 2
Flags: MW
HStem: 296.74 102.06<62.2891 361.854 62.2891 361.854>
VStem: 62.2891 299.564<296.74 398.8 296.74 398.8>
LayerCount: 2
Fore
SplineSet
62.2890625 398.799804688 m 1
 361.853515625 398.799804688 l 1
 361.853515625 296.740234375 l 1
 62.2890625 296.740234375 l 1
 62.2890625 398.799804688 l 1
EndSplineSet
EndChar

StartChar: registered
Encoding: 174 174 111
Width: 540
GlyphClass: 2
Flags: MW
HStem: 289.18 68.9854<260.862 298.742 260.862 336.023> 542.44 69.9297<267.354 290.034 267.354 267.354> 621.82 68.9844<260.862 315.315>
VStem: 82.1338 71.8203<470.186 510.392 470.186 548.209> 193.644 73.71<370.45 453.61 370.45 523.54 523.54 542.44> 407.214 70.875<470.569 530.809>
LayerCount: 2
Fore
SplineSet
279.638671875 289.1796875 m 0
 166.383789062 289.1796875 82.1337890625 376.014648438 82.1337890625 490.46484375 c 0
 82.1337890625 605.954101562 168.188476562 690.8046875 279.638671875 690.8046875 c 0
 394.157226562 690.8046875 478.088867188 604.221679688 478.088867188 490.46484375 c 0
 478.088867188 373.5859375 392.408203125 289.1796875 279.638671875 289.1796875 c 0
407.213867188 490.46484375 m 0
 407.213867188 571.153320312 350.991210938 621.8203125 279.638671875 621.8203125 c 0
 242.084960938 621.8203125 213.078125 609.759765625 189.483398438 585.3515625 c 0
 165.907226562 560.962890625 153.954101562 530.318359375 153.954101562 490.46484375 c 0
 153.954101562 449.907226562 165.96484375 418.963867188 189.483398438 394.6328125 c 0
 213.078125 370.224609375 242.084960938 358.165039062 279.638671875 358.165039062 c 0
 317.844726562 358.165039062 347.3203125 370.399414062 371.213867188 395.108398438 c 0
 395.1484375 419.859375 407.213867188 450.672851562 407.213867188 490.46484375 c 0
376.973632812 532.990234375 m 0
 376.973632812 520.701171875 375.18359375 489.319335938 346.354492188 468.703125 c 1
 393.345703125 370.450195312 l 1
 361.853515625 370.450195312 l 1
 324.999023438 370.450195312 l 1
 312.478515625 370.450195312 l 1
 272.7890625 453.610351562 l 1
 267.353515625 453.610351562 l 1
 267.353515625 370.450195312 l 1
 193.643554688 370.450195312 l 1
 193.643554688 612.370117188 l 1
 290.978515625 612.370117188 l 2
 314.994140625 612.370117188 336.565429688 606.267578125 352.846679688 591.745117188 c 0
 369.3828125 576.997070312 376.973632812 556.026367188 376.973632812 532.990234375 c 0
290.034179688 523.540039062 m 2
 297.70703125 523.540039062 301.373046875 525.186523438 302.315429688 525.8359375 c 0
 302.802734375 526.171875 304.208984375 526.384765625 304.208984375 532.990234375 c 0
 304.208984375 539.594726562 302.802734375 539.80859375 302.315429688 540.14453125 c 0
 301.373046875 540.793945312 297.70703125 542.440429688 290.034179688 542.440429688 c 2
 267.353515625 542.440429688 l 1
 267.353515625 523.540039062 l 1
 290.034179688 523.540039062 l 2
EndSplineSet
EndChar

StartChar: macron
Encoding: 175 175 112
Width: 505
GlyphClass: 2
Flags: MW
HStem: 557.56 98.2803<119.934 405.324 119.934 405.324>
VStem: 119.934 285.391<557.56 655.84 557.56 655.84>
LayerCount: 2
Fore
SplineSet
119.93359375 655.83984375 m 1
 405.32421875 655.83984375 l 1
 405.32421875 557.559570312 l 1
 119.93359375 557.559570312 l 1
 119.93359375 655.83984375 l 1
EndSplineSet
EndChar

StartChar: degree
Encoding: 176 176 113
Width: 420
GlyphClass: 2
Flags: MW
HStem: 396.91 85.9951<211.071 230.638 211.071 241.991> 616.15 85.0498<211.071 230.638>
VStem: 68.9043 87.8848<538.977 559.516 538.977 570.231> 284.364 87.8848<538.977 559.516>
LayerCount: 2
Fore
SplineSet
68.904296875 549.0546875 m 0
 68.904296875 591.408203125 83.341796875 628.516601562 111.958007812 657.495117188 c 0
 140.701171875 686.603515625 178.092773438 701.200195312 221.048828125 701.200195312 c 0
 262.932617188 701.200195312 299.744140625 686.474609375 328.633789062 657.584960938 c 0
 357.592773438 628.625976562 372.249023438 591.475585938 372.249023438 549.0546875 c 0
 372.249023438 506.634765625 357.592773438 469.484375 328.633789062 440.525390625 c 0
 299.744140625 411.634765625 262.932617188 396.91015625 221.048828125 396.91015625 c 0
 178.092773438 396.91015625 140.701171875 411.505859375 111.958007812 440.614257812 c 0
 83.341796875 469.59375 68.904296875 506.702148438 68.904296875 549.0546875 c 0
284.364257812 549.0546875 m 0
 284.364257812 569.9765625 278.258789062 585.217773438 266.280273438 597.674804688 c 0
 254.275390625 610.159179688 240.2265625 616.150390625 221.048828125 616.150390625 c 0
 201.092773438 616.150390625 186.76953125 610.046875 174.873046875 597.674804688 c 0
 162.89453125 585.217773438 156.7890625 569.9765625 156.7890625 549.0546875 c 0
 156.7890625 528.8984375 162.793945312 513.942382812 174.873046875 501.379882812 c 0
 186.76953125 489.008789062 201.092773438 482.905273438 221.048828125 482.905273438 c 0
 240.2265625 482.905273438 254.275390625 488.895507812 266.280273438 501.379882812 c 0
 278.359375 513.942382812 284.364257812 528.8984375 284.364257812 549.0546875 c 0
EndSplineSet
EndChar

StartChar: plusminus
Encoding: 177 177 114
Width: 517
GlyphClass: 2
Flags: MW
HStem: -3.76953 102.06<60.3994 476.199 60.3994 476.199> 263.665 102.06<60.3994 217.269 60.3994 217.269 319.329 476.199>
VStem: 217.269 102.061<106.795 263.665 106.795 263.665 365.725 522.595>
LayerCount: 2
Fore
SplineSet
319.329101562 263.665039062 m 1
 319.329101562 106.794921875 l 1
 217.268554688 106.794921875 l 1
 217.268554688 263.665039062 l 1
 60.3994140625 263.665039062 l 1
 60.3994140625 365.724609375 l 1
 217.268554688 365.724609375 l 1
 217.268554688 522.594726562 l 1
 319.329101562 522.594726562 l 1
 319.329101562 365.724609375 l 1
 476.19921875 365.724609375 l 1
 476.19921875 263.665039062 l 1
 319.329101562 263.665039062 l 1
60.3994140625 98.2900390625 m 1
 476.19921875 98.2900390625 l 1
 476.19921875 -3.76953125 l 1
 60.3994140625 -3.76953125 l 1
 60.3994140625 98.2900390625 l 1
EndSplineSet
EndChar

StartChar: uni00B2
Encoding: 178 178 115
Width: 334
GlyphClass: 2
Flags: MW
HStem: 406.36 95.4443<190.106 309.879 190.106 309.879> 754.12 92.6104<170.184 181.46>
VStem: 46.2236 102.061<687.025 717.265 687.025 721.045 687.025 758.228> 204.039 104.894<714.43 721.99 721.99 724.825 697.593 736.936>
LayerCount: 2
Fore
SplineSet
178.524414062 846.73046875 m 0
 259.703125 846.73046875 308.932617188 793.487304688 308.932617188 724.825195312 c 2
 308.932617188 714.4296875 l 2
 308.932617188 680.756835938 298.321289062 650.47265625 268.135742188 609.002929688 c 2
 190.106445312 501.8046875 l 1
 309.87890625 501.8046875 l 1
 309.87890625 406.360351562 l 1
 49.05859375 406.360351562 l 1
 49.05859375 481.880859375 l 1
 184.224609375 664.694335938 l 2
 201.66015625 688.862304688 204.0390625 702.228515625 204.0390625 714.4296875 c 2
 204.0390625 721.990234375 l 2
 204.0390625 751.880859375 186.286132812 754.120117188 176.633789062 754.120117188 c 0
 163.734375 754.120117188 148.284179688 750.671875 148.284179688 717.264648438 c 2
 148.284179688 687.025390625 l 1
 46.2236328125 687.025390625 l 1
 46.2236328125 721.044921875 l 2
 46.2236328125 795.411132812 98.12890625 846.73046875 178.524414062 846.73046875 c 0
EndSplineSet
EndChar

StartChar: uni00B3
Encoding: 179 179 116
Width: 332
GlyphClass: 2
Flags: MW
HStem: 400.69 91.665<157.219 177.614 157.219 213.918> 584.021 92.6094<129.384 169.074 129.384 169.074> 695.529 21G<45.2793 142.614 45.2793 45.2793> 754.119 92.6104<164.958 176.474>
VStem: 43.3887 96.3906<521.65 522.595 522.595 551.89 518.259 551.89> 206.874 101.116<531.1 542.44 493.181 543.385 493.181 550.829>
LayerCount: 2
Fore
SplineSet
307.990234375 531.099609375 m 2
 307.990234375 455.26171875 254.036132812 400.690429688 173.799804688 400.690429688 c 0
 135.784179688 400.690429688 103.211914062 410.694335938 79.10546875 432.856445312 c 0
 54.9345703125 455.077148438 43.388671875 485.966796875 43.388671875 521.650390625 c 2
 43.388671875 551.889648438 l 1
 139.779296875 551.889648438 l 1
 139.779296875 522.594726562 l 2
 139.779296875 513.923828125 141.583984375 492.35546875 172.853515625 492.35546875 c 0
 182.374023438 492.35546875 206.874023438 493.330078125 206.874023438 531.099609375 c 2
 206.874023438 543.384765625 l 2
 206.874023438 558.272460938 202.100585938 584.020507812 169.07421875 584.020507812 c 2
 129.383789062 584.020507812 l 1
 129.383789062 676.629882812 l 1
 169.07421875 676.629882812 l 2
 184.052734375 676.629882812 200.258789062 683.015625 200.258789062 710.649414062 c 2
 200.258789062 720.099609375 l 2
 200.258789062 752.837890625 181.0390625 754.119140625 171.909179688 754.119140625 c 0
 158.005859375 754.119140625 142.614257812 750.173828125 142.614257812 724.82421875 c 2
 142.614257812 695.529296875 l 1
 45.279296875 695.529296875 l 1
 45.279296875 725.76953125 l 2
 45.279296875 796.14453125 93.189453125 846.729492188 173.798828125 846.729492188 c 0
 255.926757812 846.729492188 302.319335938 793.397460938 302.319335938 725.76953125 c 2
 302.319335938 716.319335938 l 2
 302.319335938 699.708984375 299.735351562 665.677734375 269.594726562 636.336914062 c 1
 278.052734375 628.97265625 307.990234375 601.004882812 307.990234375 542.440429688 c 2
 307.990234375 531.099609375 l 2
EndSplineSet
EndChar

StartChar: acute
Encoding: 180 180 117
Width: 505
GlyphClass: 2
Flags: MW
HStem: 540.55 157.815<145.056 405.574 145.056 405.574>
VStem: 145.056 260.519<540.55 698.365>
LayerCount: 2
Fore
SplineSet
270.044921875 698.365234375 m 1
 405.57421875 698.365234375 l 1
 254.072265625 540.549804688 l 1
 145.055664062 540.549804688 l 1
 270.044921875 698.365234375 l 1
EndSplineSet
EndChar

StartChar: uni00B5
Encoding: 181 181 118
Width: 520
GlyphClass: 2
Flags: MW
HStem: -7.5498 98.2803<242.083 280.568> 0.00976562 21G<358.074 462.024 358.074 358.074>
VStem: 77.4092 103.95<-143.63 9.2832 175.076 188.065 188.065 518.815> 357.129 104.896<188.065 518.815 0.00976562 518.815>
LayerCount: 2
Fore
SplineSet
358.07421875 24.810546875 m 1x70
 338.141601562 9.35546875 305.123046875 -7.5498046875 256.013671875 -7.5498046875 c 0
 228.15234375 -7.5498046875 202.9453125 -2.0458984375 181.359375 9.283203125 c 1
 181.359375 -143.629882812 l 1
 77.4091796875 -143.629882812 l 1
 77.4091796875 518.815429688 l 1
 181.359375 518.815429688 l 1
 181.359375 188.065429688 l 2
 181.359375 162.0859375 184.750976562 90.73046875 267.353515625 90.73046875 c 0xb0
 294.370117188 90.73046875 314.90234375 99.0263671875 331.8671875 115.734375 c 0
 348.04296875 131.666015625 357.12890625 154.5625 357.12890625 188.065429688 c 2
 357.12890625 518.815429688 l 1
 462.024414062 518.815429688 l 1
 462.024414062 0.009765625 l 1
 358.07421875 0.009765625 l 1
 358.07421875 24.810546875 l 1x70
EndSplineSet
EndChar

StartChar: paragraph
Encoding: 182 182 119
Width: 613
GlyphClass: 2
Flags: MW
HStem: 590.635 101.115<362.799 362.799 362.799 409.104>
VStem: 82.1338 280.665<444.981 496.203> 259.794 103.005<-143.63 259.066 259.066 259.066> 409.104 103.006<-143.63 590.635 590.635 590.635>
LayerCount: 2
Fore
SplineSet
362.798828125 590.634765625 m 1xb0
 362.798828125 -143.629882812 l 1
 259.793945312 -143.629882812 l 1
 259.793945312 259.06640625 l 1xb0
 210.02734375 266.240234375 167.969726562 287.981445312 135.803710938 324.208007812 c 0
 99.890625 364.654296875 82.1337890625 415.5625 82.1337890625 474.400390625 c 0xd0
 82.1337890625 518.005859375 93.845703125 611.076171875 186.788085938 663.236328125 c 0
 221.127929688 682.5078125 261.5078125 691.75 307.043945312 691.75 c 2
 512.109375 691.75 l 1
 512.109375 -143.629882812 l 1
 409.103515625 -143.629882812 l 1
 409.103515625 590.634765625 l 1
 362.798828125 590.634765625 l 1xb0
EndSplineSet
EndChar

StartChar: periodcentered
Encoding: 183 183 120
Width: 212
GlyphClass: 2
Flags: MW
HStem: 210.745 126.63<56.6191 179.469 56.6191 179.469>
VStem: 56.6191 122.85<210.745 337.375 210.745 337.375>
LayerCount: 2
Fore
SplineSet
56.619140625 337.375 m 1
 179.46875 337.375 l 1
 179.46875 210.745117188 l 1
 56.619140625 210.745117188 l 1
 56.619140625 337.375 l 1
EndSplineSet
EndChar

StartChar: cedilla
Encoding: 184 184 121
Width: 505
GlyphClass: 2
Flags: MW
HStem: -141.74 192.78<249.995 285.525 175.025 348.596>
VStem: 175.025 173.57
LayerCount: 2
Fore
SplineSet
348.595703125 51.0400390625 m 1
 285.525390625 -141.740234375 l 1
 175.025390625 -141.740234375 l 1
 249.995117188 51.0400390625 l 1
 348.595703125 51.0400390625 l 1
EndSplineSet
EndChar

StartChar: uni00B9
Encoding: 185 185 122
Width: 239
GlyphClass: 2
Flags: MW
VStem: 100.089 104.896<406.36 711.489 711.489 711.489>
LayerCount: 2
Fore
SplineSet
31.103515625 659.514648438 m 1
 31.103515625 779.2421875 l 1
 113.395507812 840.115234375 l 1
 204.984375 840.115234375 l 1
 204.984375 406.360351562 l 1
 100.088867188 406.360351562 l 1
 100.088867188 711.489257812 l 1
 31.103515625 659.514648438 l 1
EndSplineSet
EndChar

StartChar: ordmasculine
Encoding: 186 186 123
Width: 343
GlyphClass: 2
Flags: MW
HStem: 402.58 94.5<175.172 189.436 175.172 202.39> 652.06 94.5<175.172 189.436>
VStem: 45.2793 100.17<546.22 602.92 522.301 625.528> 219.159 100.17<546.22 602.92 523.612 626.839>
LayerCount: 2
Fore
SplineSet
45.279296875 546.219726562 m 2
 45.279296875 602.919921875 l 2
 45.279296875 648.135742188 56.3984375 685.412109375 82.498046875 710.720703125 c 0
 107.76171875 735.21875 142.1328125 746.559570312 182.303710938 746.559570312 c 0
 222.475585938 746.559570312 256.845703125 735.21875 282.109375 710.720703125 c 0
 308.209960938 685.412109375 319.329101562 648.135742188 319.329101562 602.919921875 c 2
 319.329101562 546.219726562 l 2
 319.329101562 501.00390625 308.209960938 463.728515625 282.109375 438.418945312 c 0
 256.845703125 413.921875 222.475585938 402.580078125 182.303710938 402.580078125 c 0
 142.1328125 402.580078125 107.76171875 413.921875 82.498046875 438.419921875 c 0
 56.3984375 463.729492188 45.279296875 501.004882812 45.279296875 546.219726562 c 2
182.303710938 497.080078125 m 0
 196.567382812 497.080078125 219.159179688 498.380859375 219.159179688 546.219726562 c 2
 219.159179688 602.919921875 l 2
 219.159179688 650.7578125 196.568359375 652.059570312 182.303710938 652.059570312 c 0
 168.041015625 652.059570312 145.44921875 650.758789062 145.44921875 602.919921875 c 2
 145.44921875 546.219726562 l 2
 145.44921875 498.381835938 168.040039062 497.080078125 182.303710938 497.080078125 c 0
182.303710938 820.270507812 m 1024
EndSplineSet
EndChar

StartChar: guillemotright
Encoding: 187 187 124
Width: 485
GlyphClass: 2
Flags: W
LayerCount: 2
Fore
SplineSet
77.4091796875 369.897460938 m 1
 77.4091796875 504.872070312 l 1
 309.376953125 269.334960938 l 1
 77.4091796875 33.798828125 l 1
 77.4091796875 168.772460938 l 1
 176.22265625 269.334960938 l 1
 77.4091796875 369.897460938 l 1
249.399414062 369.846679688 m 1
 249.399414062 504.6953125 l 1
 482.381835938 269.334960938 l 1
 249.399414062 33.974609375 l 1
 249.399414062 168.82421875 l 1
 349.036132812 269.334960938 l 1
 249.399414062 369.846679688 l 1
EndSplineSet
EndChar

StartChar: onequarter
Encoding: 188 188 125
Width: 726
GlyphClass: 3
Flags: MW
HStem: 0.00976562 21G<80.0312 184.687 80.0312 80.0312 565.029 669.924 565.029 565.029> 70.8848 95.4453<531.299 565.029 531.299 565.029 669.924 706.779> 511.149 21G<31.1035 31.1035> 671.75 20G<113.396 204.984 204.984 204.984 453.972 558.627 558.627 558.627>
VStem: 100.089 104.896<257.995 563.124 563.124 563.124> 565.029 104.895<0.00976562 70.8848 0.00976562 70.8848 166.33 248.619 248.619 248.619>
LayerCount: 2
Fore
SplineSet
31.103515625 511.149414062 m 1
 31.103515625 630.876953125 l 1
 113.395507812 691.75 l 1
 204.984375 691.75 l 1
 204.984375 257.995117188 l 1
 100.088867188 257.995117188 l 1
 100.088867188 563.124023438 l 1
 31.103515625 511.149414062 l 1
669.923828125 166.330078125 m 1
 706.779296875 166.330078125 l 1
 706.779296875 70.884765625 l 1
 669.923828125 70.884765625 l 1
 669.923828125 0.009765625 l 1
 565.029296875 0.009765625 l 1
 565.029296875 70.884765625 l 1
 416.6640625 70.884765625 l 1
 416.6640625 150.43359375 l 1
 533.80078125 433.764648438 l 1
 640.918945312 433.764648438 l 1
 569.259765625 258.940429688 l 1
 669.923828125 258.940429688 l 1
 669.923828125 166.330078125 l 1
565.029296875 166.330078125 m 1
 565.029296875 248.619140625 l 1
 531.298828125 166.330078125 l 1
 565.029296875 166.330078125 l 1
453.971679688 691.75 m 1
 558.626953125 691.75 l 1
 184.686523438 0.009765625 l 1
 80.03125 0.009765625 l 1
 453.971679688 691.75 l 1
EndSplineSet
Ligature2: "'frac' Diagonal Fractions lookup 2 subtable" one slash four
EndChar

StartChar: onehalf
Encoding: 189 189 126
Width: 715
GlyphClass: 3
Flags: MW
HStem: 0.00976562 95.4453<566.217 685.989 566.217 685.989> 347.771 92.6094<546.295 557.571> 511.149 21G<31.1035 31.1035> 671.75 20G<113.396 204.984 204.984 204.984 453.973 558.628 558.628 558.628>
VStem: 100.089 104.896<257.995 563.124 563.124 563.124> 422.335 102.06<280.675 310.915 280.675 314.695 280.675 351.878> 580.15 104.894<308.08 315.64 315.64 318.475 291.249 330.585>
LayerCount: 2
Fore
SplineSet
31.103515625 511.149414062 m 1
 31.103515625 630.876953125 l 1
 113.395507812 691.75 l 1
 204.984375 691.75 l 1
 204.984375 257.995117188 l 1
 100.088867188 257.995117188 l 1
 100.088867188 563.124023438 l 1
 31.103515625 511.149414062 l 1
554.634765625 440.379882812 m 0
 635.814453125 440.379882812 685.043945312 387.137695312 685.043945312 318.474609375 c 2
 685.043945312 308.080078125 l 2
 685.043945312 274.41796875 674.4453125 244.142578125 644.24609375 202.654296875 c 2
 566.216796875 95.455078125 l 1
 685.989257812 95.455078125 l 1
 685.989257812 0.009765625 l 1
 425.168945312 0.009765625 l 1
 425.168945312 75.53125 l 1
 560.334960938 258.344726562 l 2
 577.771484375 282.51171875 580.150390625 295.877929688 580.150390625 308.080078125 c 2
 580.150390625 315.639648438 l 2
 580.150390625 345.530273438 562.396484375 347.770507812 552.745117188 347.770507812 c 0
 539.845703125 347.770507812 524.39453125 344.321289062 524.39453125 310.915039062 c 2
 524.39453125 280.674804688 l 1
 422.334960938 280.674804688 l 1
 422.334960938 314.6953125 l 2
 422.334960938 389.061523438 474.239257812 440.379882812 554.634765625 440.379882812 c 0
453.97265625 691.75 m 1
 558.627929688 691.75 l 1
 184.6875 0.009765625 l 1
 80.0322265625 0.009765625 l 1
 453.97265625 691.75 l 1
EndSplineSet
Ligature2: "'frac' Diagonal Fractions lookup 2 subtable" one slash two
EndChar

StartChar: threequarters
Encoding: 190 190 127
Width: 818
GlyphClass: 3
Flags: MW
HStem: 0.00878906 21G<171.696 276.352 171.696 171.696 656.694 761.589 656.694 656.694> 70.8838 95.4453<622.964 656.694 622.964 656.694 761.589 798.444> 252.325 91.6641<157.219 177.614 157.219 213.918> 435.654 92.6094<129.384 169.074 129.384 169.074> 605.753 92.6104<164.958 176.474>
VStem: 43.3887 96.3906<373.284 374.229 374.229 403.524 369.894 403.524> 206.874 101.116<382.734 382.735 382.735 394.075 344.816 395.02 344.816 402.463> 656.694 104.895<0.00878906 70.8838 0.00878906 70.8838 166.329 248.618 248.618 248.618>
LayerCount: 2
Fore
SplineSet
307.990234375 382.735351562 m 2
 307.990234375 306.896484375 254.036132812 252.325195312 173.799804688 252.325195312 c 0
 135.784179688 252.325195312 103.211914062 262.329101562 79.10546875 284.491210938 c 0
 54.9345703125 306.712890625 43.388671875 337.600585938 43.388671875 373.284179688 c 2
 43.388671875 403.524414062 l 1
 139.779296875 403.524414062 l 1
 139.779296875 374.229492188 l 2
 139.779296875 365.557617188 141.583984375 343.989257812 172.853515625 343.989257812 c 0
 182.374023438 343.989257812 206.874023438 344.963867188 206.874023438 382.734375 c 2
 206.874023438 395.01953125 l 2
 206.874023438 409.90625 202.100585938 435.654296875 169.07421875 435.654296875 c 2
 129.383789062 435.654296875 l 1
 129.383789062 528.263671875 l 1
 169.07421875 528.263671875 l 2
 184.052734375 528.263671875 200.258789062 534.649414062 200.258789062 562.283203125 c 2
 200.258789062 571.733398438 l 2
 200.258789062 604.471679688 181.0390625 605.752929688 171.909179688 605.752929688 c 0
 158.005859375 605.752929688 142.614257812 601.807617188 142.614257812 576.458007812 c 2
 142.614257812 547.163085938 l 1
 45.279296875 547.163085938 l 1
 45.279296875 577.403320312 l 2
 45.279296875 647.779296875 93.189453125 698.36328125 173.798828125 698.36328125 c 0
 255.926757812 698.36328125 302.319335938 645.03125 302.319335938 577.403320312 c 2
 302.319335938 567.953125 l 2
 302.319335938 551.340820312 299.734375 517.3125 269.596679688 487.973632812 c 1
 278.12109375 480.55078125 307.990234375 452.575195312 307.990234375 394.075195312 c 2
 307.990234375 382.735351562 l 2
761.588867188 166.329101562 m 1
 798.444335938 166.329101562 l 1
 798.444335938 70.8837890625 l 1
 761.588867188 70.8837890625 l 1
 761.588867188 0.0087890625 l 1
 656.694335938 0.0087890625 l 1
 656.694335938 70.8837890625 l 1
 508.329101562 70.8837890625 l 1
 508.329101562 150.432617188 l 1
 625.465820312 433.763671875 l 1
 732.583984375 433.763671875 l 1
 660.924804688 258.939453125 l 1
 761.588867188 258.939453125 l 1
 761.588867188 166.329101562 l 1
656.694335938 166.329101562 m 1
 656.694335938 248.618164062 l 1
 622.963867188 166.329101562 l 1
 656.694335938 166.329101562 l 1
545.63671875 691.749023438 m 1
 650.291992188 691.749023438 l 1
 276.3515625 0.0087890625 l 1
 171.696289062 0.0087890625 l 1
 545.63671875 691.749023438 l 1
EndSplineSet
Ligature2: "'frac' Diagonal Fractions lookup 2 subtable" three slash four
EndChar

StartChar: questiondown
Encoding: 191 191 128
Width: 437
GlyphClass: 2
Flags: MW
HStem: -153.08 102.061<206.501 252.552 203.246 261.229> 391.24 127.575<173.799 297.594 173.799 297.594>
VStem: 50.9482 108.674<8.64893 41.0806 8.64893 51.2358> 173.799 123.795<391.24 518.815 391.24 518.815> 180.412 108.675<300.521 353.44 271.696 353.44> 307.99 108.666<31.665 32.5107>
LayerCount: 2
Fore
SplineSet
173.798828125 518.815429688 m 1xf4
 297.59375 518.815429688 l 1
 297.59375 391.240234375 l 1
 173.798828125 391.240234375 l 1
 173.798828125 518.815429688 l 1xf4
159.622070312 24.580078125 m 0
 159.622070312 -7.2822265625 171.26953125 -51.01953125 235.221679688 -51.01953125 c 0
 269.8828125 -51.01953125 306.655273438 -40.296875 307.990234375 32.5107421875 c 2
 308.34765625 51.9853515625 l 1
 417.134765625 51.9853515625 l 1
 416.65625 31.6650390625 l 2
 415.321289062 -25.0966796875 399.788085938 -71.5947265625 367.536132812 -104.580078125 c 0
 335.116210938 -137.737304688 289.123046875 -153.080078125 233.333984375 -153.080078125 c 0
 179.668945312 -153.080078125 134.377929688 -137.104492188 100.783203125 -103.87109375 c 0
 67.353515625 -70.80078125 50.9482421875 -26.8876953125 50.9482421875 24.5810546875 c 0
 50.9482421875 77.890625 68.2724609375 115.94140625 109.026367188 168.158203125 c 2
 153.625 225.092773438 l 2
 166.05078125 240.4765625 173.21875 252.875976562 175.755859375 260.487304688 c 0
 178.484375 268.674804688 180.412109375 282.2734375 180.412109375 300.520507812 c 2
 180.412109375 353.440429688 l 1
 289.086914062 353.440429688 l 1
 289.086914062 299.575195312 l 2xec
 289.086914062 243.817382812 278.025390625 215.801757812 243.087890625 171.8046875 c 2
 198.61328125 116.921875 l 2
 168.20703125 79.7587890625 159.622070312 57.5810546875 159.622070312 24.580078125 c 0
EndSplineSet
EndChar

StartChar: Agrave
Encoding: 192 192 129
Width: 579
GlyphClass: 2
Flags: MW
HStem: 0.00976562 21G<4.6543 4.6543 4.6543 119.851 478.173 478.173 478.173 593.369> 156.88 98.2803<208.315 389.634 208.315 423.362 174.66 389.634> 671.75 20G<256.287 341.736 341.736 341.736>
LayerCount: 2
Fore
SplineSet
4.654296875 0.009765625 m 1
 256.287109375 691.75 l 1
 341.736328125 691.75 l 1
 593.369140625 0.009765625 l 1
 478.172851562 0.009765625 l 1
 423.362304688 156.879882812 l 1
 174.66015625 156.879882812 l 1
 119.850585938 0.009765625 l 1
 4.654296875 0.009765625 l 1
208.315429688 255.16015625 m 1
 389.633789062 255.16015625 l 1
 298.61328125 515.217773438 l 1
 208.315429688 255.16015625 l 1
269.387695312 871.299804688 m 1
 394.377929688 713.485351562 l 1
 285.361328125 713.485351562 l 1
 133.858398438 871.299804688 l 1
 269.387695312 871.299804688 l 1
EndSplineSet
EndChar

StartChar: Aacute
Encoding: 193 193 130
Width: 579
GlyphClass: 2
Flags: MW
HStem: 0.00976562 21G<4.6543 4.6543 4.6543 119.851 478.173 478.173 478.173 593.369> 156.88 98.2803<208.315 389.634 208.315 423.362 174.66 389.634> 671.75 20G<256.287 341.736 341.736 341.736>
LayerCount: 2
Fore
SplineSet
4.654296875 0.009765625 m 1
 256.287109375 691.75 l 1
 341.736328125 691.75 l 1
 593.369140625 0.009765625 l 1
 478.172851562 0.009765625 l 1
 423.362304688 156.879882812 l 1
 174.66015625 156.879882812 l 1
 119.850585938 0.009765625 l 1
 4.654296875 0.009765625 l 1
208.315429688 255.16015625 m 1
 389.633789062 255.16015625 l 1
 298.61328125 515.217773438 l 1
 208.315429688 255.16015625 l 1
448.099609375 871.299804688 m 1
 296.596679688 713.485351562 l 1
 187.580078125 713.485351562 l 1
 312.5703125 871.299804688 l 1
 448.099609375 871.299804688 l 1
EndSplineSet
EndChar

StartChar: Acircumflex
Encoding: 194 194 131
Width: 579
GlyphClass: 2
Flags: MW
HStem: 0.00976562 21G<4.6543 4.6543 4.6543 119.851 478.173 478.173 478.173 593.369> 156.88 98.2803<208.315 389.634 208.315 423.362 174.66 389.634> 671.75 20G<256.287 341.736 341.736 341.736>
LayerCount: 2
Fore
SplineSet
4.654296875 0.009765625 m 1
 256.287109375 691.75 l 1
 341.736328125 691.75 l 1
 593.369140625 0.009765625 l 1
 478.172851562 0.009765625 l 1
 423.362304688 156.879882812 l 1
 174.66015625 156.879882812 l 1
 119.850585938 0.009765625 l 1
 4.654296875 0.009765625 l 1
208.315429688 255.16015625 m 1
 389.633789062 255.16015625 l 1
 298.61328125 515.217773438 l 1
 208.315429688 255.16015625 l 1
263.048828125 879.8046875 m 1
 334.973632812 879.8046875 l 1
 465.581054688 704.03515625 l 1
 357.666992188 704.03515625 l 1
 299.375 780.948242188 l 1
 240.2734375 704.03515625 l 1
 132.442382812 704.03515625 l 1
 263.048828125 879.8046875 l 1
EndSplineSet
EndChar

StartChar: Atilde
Encoding: 195 195 132
Width: 579
GlyphClass: 2
Flags: MW
HStem: 0.00976562 21G<4.6543 4.6543 4.6543 119.851 478.173 478.173 478.173 593.369> 156.88 98.2803<208.315 389.634 208.315 423.362 174.66 389.634> 671.75 20G<256.287 341.736 341.736 341.736> 711.598 95.4453<349.529 358.713 349.529 372.533> 747.506 96.3916<239.433 253.081>
LayerCount: 2
Fore
SplineSet
4.654296875 0.009765625 m 1xe0
 256.287109375 691.75 l 1
 341.736328125 691.75 l 1
 593.369140625 0.009765625 l 1
 478.172851562 0.009765625 l 1
 423.362304688 156.879882812 l 1
 174.66015625 156.879882812 l 1
 119.850585938 0.009765625 l 1
 4.654296875 0.009765625 l 1xe0
208.315429688 255.16015625 m 1
 389.633789062 255.16015625 l 1
 298.61328125 515.217773438 l 1
 208.315429688 255.16015625 l 1
247.509765625 843.897460938 m 0xe8
 268.288085938 843.897460938 283.5625 839.327148438 314.115234375 822.352539062 c 0
 339.306640625 807.237304688 345.708007812 807.04296875 353.349609375 807.04296875 c 0
 364.076171875 807.04296875 372.454101562 807.462890625 401.365234375 837.75 c 2
 435.564453125 873.577148438 l 1
 435.564453125 759.022460938 l 1
 421.833007812 743.14453125 394.55078125 711.59765625 350.514648438 711.59765625 c 0xf0
 327.138671875 711.59765625 311.59375 716.967773438 281.459960938 734.4140625 c 0
 281.140625 734.623046875 260.54296875 747.505859375 245.619140625 747.505859375 c 0
 233.247070312 747.505859375 223.393554688 746.198242188 196.990234375 717.154296875 c 2
 162.458984375 679.16796875 l 1
 162.458984375 795.4296875 l 1
 180.237304688 816.344726562 203.776367188 843.897460938 247.509765625 843.897460938 c 0xe8
EndSplineSet
EndChar

StartChar: Adieresis
Encoding: 196 196 133
Width: 579
GlyphClass: 2
Flags: MW
HStem: 0.00976562 21G<4.6543 4.6543 4.6543 119.851 478.173 478.173 478.173 593.369> 156.88 98.2803<208.315 389.634 208.315 423.362 174.66 389.634> 671.75 20G<256.287 341.736 341.736 341.736> 719.155 120.96<162.459 273.969 162.459 273.969 162.459 324.054 324.054 435.564>
VStem: 162.459 111.51<719.155 840.115 719.155 840.115> 324.054 111.511<719.155 840.115 719.155 840.115>
LayerCount: 2
Fore
SplineSet
4.654296875 0.009765625 m 1
 256.287109375 691.75 l 1
 341.736328125 691.75 l 1
 593.369140625 0.009765625 l 1
 478.172851562 0.009765625 l 1
 423.362304688 156.879882812 l 1
 174.66015625 156.879882812 l 1
 119.850585938 0.009765625 l 1
 4.654296875 0.009765625 l 1
208.315429688 255.16015625 m 1
 389.633789062 255.16015625 l 1
 298.61328125 515.217773438 l 1
 208.315429688 255.16015625 l 1
162.458984375 840.115234375 m 1
 273.96875 840.115234375 l 1
 273.96875 719.155273438 l 1
 162.458984375 719.155273438 l 1
 162.458984375 840.115234375 l 1
324.053710938 840.115234375 m 1
 435.564453125 840.115234375 l 1
 435.564453125 719.155273438 l 1
 324.053710938 719.155273438 l 1
 324.053710938 840.115234375 l 1
EndSplineSet
EndChar

StartChar: Aring
Encoding: 197 197 134
Width: 579
GlyphClass: 2
Flags: MW
HStem: 0.00976562 21G<4.63965 119.851 4.63965 4.63965 478.173 593.383 478.173 478.173> 156.88 98.2812<208.315 389.634 208.315 423.362 174.66 389.634> 783.415 75.5996<295.02 303.949>
VStem: 193.644 76.5459<747.235 757.218 747.235 782.806> 328.779 76.5449<747.236 757.223>
LayerCount: 2
Fore
SplineSet
299.484375 859.014648438 m 0
 359.005859375 859.014648438 405.32421875 814.62109375 405.32421875 752.23046875 c 0
 405.32421875 729.455078125 398.641601562 708.221679688 385.50390625 690.059570312 c 0
 376.60546875 677.758789062 365.546875 667.76953125 352.78125 660.467773438 c 1
 593.3828125 0.009765625 l 1
 478.172851562 0.009765625 l 1
 423.362304688 156.879882812 l 1
 174.66015625 156.879882812 l 1
 119.850585938 0.009765625 l 1
 4.6396484375 0.009765625 l 1
 245.250976562 660.493164062 l 1
 234.03125 666.954101562 193.643554688 694.23828125 193.643554688 752.23046875 c 0
 193.643554688 813.381835938 237.504882812 859.014648438 299.484375 859.014648438 c 0
299.484375 721.991210938 m 0
 308.598632812 721.991210938 314.635742188 724.567382812 320.418945312 730.350585938 c 0
 326.01953125 735.951171875 328.779296875 742.240234375 328.779296875 752.231445312 c 0
 328.779296875 762.21484375 325.997070312 768.815429688 320.189453125 774.81640625 c 0
 314.348632812 780.8515625 308.413085938 783.415039062 299.484375 783.415039062 c 0
 290.5546875 783.415039062 284.619140625 780.8515625 278.778320312 774.81640625 c 0
 272.965820312 768.805664062 270.189453125 762.206054688 270.189453125 752.23046875 c 0
 270.189453125 742.239257812 272.94921875 735.950195312 278.548828125 730.349609375 c 0
 284.33203125 724.56640625 290.368164062 721.991210938 299.484375 721.991210938 c 0
208.315429688 255.161132812 m 1
 389.633789062 255.161132812 l 1
 298.61328125 515.21875 l 1
 208.315429688 255.161132812 l 1
305.154296875 671.90625 m 1024
EndSplineSet
EndChar

StartChar: AE
Encoding: 198 198 135
Width: 856
GlyphClass: 2
Flags: MW
HStem: 0.00976562 102.061<516.834 819.234 516.834 819.234> 161.605 98.2793<260.008 408.159 260.008 408.159 206.448 408.159> 300.521 102.06<516.834 771.039 516.834 771.039> 589.69 102.06<516.834 819.234 516.834 516.834>
VStem: 408.159 108.675<102.07 161.605 161.605 161.605 259.885 300.521 402.58 533.93 533.93 533.93>
LayerCount: 2
Fore
SplineSet
-0.37890625 0.009765625 m 1
 375.56640625 691.75 l 1
 819.234375 691.75 l 1
 819.234375 589.690429688 l 1
 516.833984375 589.690429688 l 1
 516.833984375 402.580078125 l 1
 771.0390625 402.580078125 l 1
 771.0390625 300.520507812 l 1
 516.833984375 300.520507812 l 1
 516.833984375 102.0703125 l 1
 819.234375 102.0703125 l 1
 819.234375 0.009765625 l 1
 408.159179688 0.009765625 l 1
 408.159179688 161.60546875 l 1
 206.448242188 161.60546875 l 1
 119.5078125 0.009765625 l 1
 -0.37890625 0.009765625 l 1
408.159179688 259.884765625 m 1
 408.159179688 533.9296875 l 1
 260.0078125 259.884765625 l 1
 408.159179688 259.884765625 l 1
EndSplineSet
EndChar

StartChar: Ccedilla
Encoding: 199 199 136
Width: 610
GlyphClass: 2
Flags: MW
HStem: 598.194 102.061<294.08 340.307>
VStem: 68.9033 108.675<261.776 428.095> 451.628 106.785<211.691 235.316 152.852 235.316>
LayerCount: 2
Fore
SplineSet
318.3828125 700.254882812 m 0
 465.020507812 700.254882812 560.303710938 611.903320312 560.303710938 481.014648438 c 2
 560.303710938 458.334960938 l 1
 451.635742188 458.334960938 l 1
 451.62890625 478.173828125 l 1
 451.62890625 481.013671875 l 2
 451.62890625 518.786132812 439.936523438 545.955078125 417.126953125 566.405273438 c 0
 394.19921875 586.9609375 362.231445312 598.194335938 318.3828125 598.194335938 c 0
 269.77734375 598.194335938 236.1640625 584.740234375 213.40625 560.151367188 c 0
 191.25 536.212890625 177.578125 493.219726562 177.578125 428.094726562 c 2
 177.578125 257.995117188 l 2
 177.578125 121.875 247.989257812 95.455078125 319.328125 95.455078125 c 0
 363.235351562 95.455078125 395.046875 106.579101562 417.609375 126.780273438 c 0
 440.0390625 146.86328125 451.627929688 173.850585938 451.627929688 211.69140625 c 2
 451.627929688 235.31640625 l 1
 558.413085938 235.31640625 l 1
 558.413085938 211.69140625 l 2
 558.413085938 94.0126953125 486.124023438 20.0341796875 383.659179688 -1.2705078125 c 1
 337.477539062 -141.73828125 l 1
 227.041015625 -141.73828125 l 1
 279.756835938 -5.6357421875 l 1
 221.323242188 0.8740234375 172.126953125 22.935546875 134.197265625 61.166015625 c 0
 89.302734375 106.416992188 68.9033203125 174.52734375 68.9033203125 261.776367188 c 2
 68.9033203125 430.930664062 l 2
 68.9033203125 520.127929688 90.3056640625 589.427734375 137.364257812 634.702148438 c 0
 183.239257812 678.83984375 244.633789062 700.254882812 318.3828125 700.254882812 c 0
EndSplineSet
EndChar

StartChar: Egrave
Encoding: 200 200 137
Width: 551
GlyphClass: 2
Flags: MW
HStem: 0.00976562 102.061<190.809 517.779 190.809 517.779> 300.521 102.06<190.809 470.529 190.809 470.529> 589.69 102.06<190.809 517.779 190.809 190.809>
VStem: 82.1338 108.675<102.07 102.07 102.07 300.521 402.58 589.69>
LayerCount: 2
Fore
SplineSet
190.80859375 102.0703125 m 1
 517.779296875 102.0703125 l 1
 517.779296875 0.009765625 l 1
 82.1337890625 0.009765625 l 1
 82.1337890625 691.75 l 1
 517.779296875 691.75 l 1
 517.779296875 589.690429688 l 1
 190.80859375 589.690429688 l 1
 190.80859375 402.580078125 l 1
 470.529296875 402.580078125 l 1
 470.529296875 300.520507812 l 1
 190.80859375 300.520507812 l 1
 190.80859375 102.0703125 l 1
125.353515625 871.299804688 m 1
 260.8828125 871.299804688 l 1
 385.873046875 713.485351562 l 1
 276.856445312 713.485351562 l 1
 125.353515625 871.299804688 l 1
EndSplineSet
EndChar

StartChar: Eacute
Encoding: 201 201 138
Width: 551
GlyphClass: 2
Flags: MW
HStem: 0.00976562 102.061<190.809 517.779 190.809 517.779> 300.521 102.06<190.809 470.529 190.809 470.529> 589.69 102.06<190.809 517.779 190.809 190.809>
VStem: 82.1338 108.675<102.07 102.07 102.07 300.521 402.58 589.69>
LayerCount: 2
Fore
SplineSet
190.80859375 102.0703125 m 1
 517.779296875 102.0703125 l 1
 517.779296875 0.009765625 l 1
 82.1337890625 0.009765625 l 1
 82.1337890625 691.75 l 1
 517.779296875 691.75 l 1
 517.779296875 589.690429688 l 1
 190.80859375 589.690429688 l 1
 190.80859375 402.580078125 l 1
 470.529296875 402.580078125 l 1
 470.529296875 300.520507812 l 1
 190.80859375 300.520507812 l 1
 190.80859375 102.0703125 l 1
439.594726562 871.299804688 m 1
 288.091796875 713.485351562 l 1
 179.075195312 713.485351562 l 1
 304.064453125 871.299804688 l 1
 439.594726562 871.299804688 l 1
EndSplineSet
EndChar

StartChar: Ecircumflex
Encoding: 202 202 139
Width: 551
GlyphClass: 2
Flags: MW
HStem: 0.00976562 102.061<190.809 517.779 190.809 517.779> 300.521 102.06<190.809 470.529 190.809 470.529> 589.69 102.06<190.809 517.779 190.809 190.809>
VStem: 82.1338 108.675<102.07 102.07 102.07 300.521 402.58 589.69>
LayerCount: 2
Fore
SplineSet
190.80859375 102.0703125 m 1
 517.779296875 102.0703125 l 1
 517.779296875 0.009765625 l 1
 82.1337890625 0.009765625 l 1
 82.1337890625 691.75 l 1
 517.779296875 691.75 l 1
 517.779296875 589.690429688 l 1
 190.80859375 589.690429688 l 1
 190.80859375 402.580078125 l 1
 470.529296875 402.580078125 l 1
 470.529296875 300.520507812 l 1
 190.80859375 300.520507812 l 1
 190.80859375 102.0703125 l 1
326.46875 879.8046875 m 1
 457.076171875 704.03515625 l 1
 349.162109375 704.03515625 l 1
 290.870117188 780.948242188 l 1
 231.768554688 704.03515625 l 1
 123.9375 704.03515625 l 1
 254.543945312 879.8046875 l 1
 326.46875 879.8046875 l 1
EndSplineSet
EndChar

StartChar: Edieresis
Encoding: 203 203 140
Width: 551
GlyphClass: 2
Flags: MW
HStem: 0.00976562 102.061<190.809 517.779 190.809 517.779> 300.521 102.06<190.809 470.529 190.809 470.529> 589.69 102.06<190.809 517.779 190.809 190.809> 719.155 120.96<153.954 265.464 153.954 265.464 153.954 315.549 315.549 427.059>
VStem: 82.1338 108.675<102.07 102.07 102.07 300.521 402.58 589.69> 153.954 111.51<719.155 840.115 719.155 840.115> 315.549 111.51<719.155 840.115 719.155 840.115>
LayerCount: 2
Fore
SplineSet
190.80859375 102.0703125 m 1xfa
 517.779296875 102.0703125 l 1
 517.779296875 0.009765625 l 1
 82.1337890625 0.009765625 l 1
 82.1337890625 691.75 l 1
 517.779296875 691.75 l 1
 517.779296875 589.690429688 l 1
 190.80859375 589.690429688 l 1
 190.80859375 402.580078125 l 1
 470.529296875 402.580078125 l 1
 470.529296875 300.520507812 l 1
 190.80859375 300.520507812 l 1
 190.80859375 102.0703125 l 1xfa
153.954101562 840.115234375 m 1xf6
 265.463867188 840.115234375 l 1
 265.463867188 719.155273438 l 1
 153.954101562 719.155273438 l 1
 153.954101562 840.115234375 l 1xf6
315.548828125 840.115234375 m 1
 427.05859375 840.115234375 l 1
 427.05859375 719.155273438 l 1
 315.548828125 719.155273438 l 1
 315.548828125 840.115234375 l 1
EndSplineSet
EndChar

StartChar: Igrave
Encoding: 204 204 141
Width: 265
GlyphClass: 2
Flags: MW
HStem: 0.00976562 21G<89.6943 198.369 89.6943 89.6943> 671.75 20G<89.6943 198.369 198.369 198.369>
VStem: 89.6943 108.675<0.00976562 691.75 0.00976562 691.75>
LayerCount: 2
Fore
SplineSet
89.6943359375 691.75 m 1
 198.369140625 691.75 l 1
 198.369140625 0.009765625 l 1
 89.6943359375 0.009765625 l 1
 89.6943359375 691.75 l 1
-21.12109375 871.299804688 m 1
 114.408203125 871.299804688 l 1
 239.397460938 713.485351562 l 1
 130.380859375 713.485351562 l 1
 -21.12109375 871.299804688 l 1
EndSplineSet
EndChar

StartChar: Iacute
Encoding: 205 205 142
Width: 265
GlyphClass: 2
Flags: MW
HStem: 0.00976562 21G<89.6943 198.369 89.6943 89.6943> 671.75 20G<89.6943 198.369 198.369 198.369>
VStem: 89.6943 108.675<0.00976562 691.75 0.00976562 691.75>
LayerCount: 2
Fore
SplineSet
89.6943359375 691.75 m 1
 198.369140625 691.75 l 1
 198.369140625 0.009765625 l 1
 89.6943359375 0.009765625 l 1
 89.6943359375 691.75 l 1
157.58984375 871.299804688 m 1
 293.119140625 871.299804688 l 1
 141.6171875 713.485351562 l 1
 32.6005859375 713.485351562 l 1
 157.58984375 871.299804688 l 1
EndSplineSet
EndChar

StartChar: Icircumflex
Encoding: 206 206 143
Width: 265
GlyphClass: 2
Flags: MW
HStem: 0.00976562 21G<89.6943 198.369 89.6943 89.6943> 671.75 20G<89.6943 198.369 198.369 198.369>
VStem: 89.6943 108.675<0.00976562 691.75 0.00976562 691.75>
LayerCount: 2
Fore
SplineSet
89.6943359375 691.75 m 1
 198.369140625 691.75 l 1
 198.369140625 0.009765625 l 1
 89.6943359375 0.009765625 l 1
 89.6943359375 691.75 l 1
108.069335938 879.8046875 m 1
 179.994140625 879.8046875 l 1
 310.600585938 704.03515625 l 1
 202.6875 704.03515625 l 1
 144.395507812 780.948242188 l 1
 85.2939453125 704.03515625 l 1
 -22.5380859375 704.03515625 l 1
 108.069335938 879.8046875 l 1
EndSplineSet
EndChar

StartChar: Idieresis
Encoding: 207 207 144
Width: 265
GlyphClass: 2
Flags: MW
HStem: 0.00976562 21G<89.6943 198.369 89.6943 89.6943> 671.75 20G<89.6943 198.369 198.369 198.369> 719.155 120.96<7.47852 118.989 7.47852 118.989 7.47852 169.074 169.074 280.584>
VStem: 7.47852 111.511<719.155 840.115 719.155 840.115> 89.6943 108.675<0.00976562 691.75 0.00976562 691.75> 169.074 111.51<719.155 840.115 719.155 840.115>
LayerCount: 2
Fore
SplineSet
89.6943359375 691.75 m 1xe8
 198.369140625 691.75 l 1
 198.369140625 0.009765625 l 1
 89.6943359375 0.009765625 l 1
 89.6943359375 691.75 l 1xe8
7.478515625 840.115234375 m 1xf0
 118.989257812 840.115234375 l 1
 118.989257812 719.155273438 l 1
 7.478515625 719.155273438 l 1
 7.478515625 840.115234375 l 1xf0
169.07421875 840.115234375 m 1xe4
 280.583984375 840.115234375 l 1
 280.583984375 719.155273438 l 1
 169.07421875 719.155273438 l 1
 169.07421875 840.115234375 l 1xe4
EndSplineSet
EndChar

StartChar: Eth
Encoding: 208 208 145
Width: 667
GlyphClass: 2
Flags: MW
HStem: 0.00976562 102.06<237.114 370.359> 298.629 102.061<237.114 369.414 237.114 369.414> 589.689 102.061<237.114 370.359 370.359 371.304 237.114 237.114>
VStem: 127.494 109.62<102.069 298.629 102.069 298.63 102.069 298.63 400.69 589.689> 506.439 109.619<265.554 269.334 269.334 419.589 419.589 422.424>
LayerCount: 2
Fore
SplineSet
616.05859375 422.423828125 m 2
 616.05859375 269.333984375 l 2
 616.05859375 180.21875 595.208984375 111.037109375 549.180664062 65.72265625 c 0
 504.22265625 21.4619140625 443.510742188 0.009765625 370.359375 0.009765625 c 2
 127.494140625 0.009765625 l 1
 127.494140625 298.629882812 l 1
 42.4443359375 298.629882812 l 1
 42.4443359375 400.690429688 l 1
 127.494140625 400.690429688 l 1
 127.494140625 691.75 l 1
 370.359375 691.75 l 2
 443.510742188 691.75 504.22265625 670.297851562 549.180664062 626.037109375 c 0
 595.208984375 580.721679688 616.05859375 511.5390625 616.05859375 422.423828125 c 2
371.303710938 102.069335938 m 2
 434.014648438 102.069335938 506.439453125 123.780273438 506.439453125 265.553710938 c 2
 506.439453125 419.588867188 l 2
 506.439453125 483.407226562 493.141601562 526.314453125 471.259765625 551.028320312 c 0
 448.918945312 576.260742188 417.028320312 589.689453125 371.303710938 589.689453125 c 2
 237.114257812 589.689453125 l 1
 237.114257812 400.689453125 l 1
 369.4140625 400.689453125 l 1
 369.4140625 298.62890625 l 1
 237.114257812 298.62890625 l 1
 237.114257812 102.069335938 l 1
 371.303710938 102.069335938 l 2
EndSplineSet
EndChar

StartChar: Ntilde
Encoding: 209 209 146
Width: 661
GlyphClass: 2
Flags: MW
HStem: 0.00976562 21G<82.1338 190.809 82.1338 82.1338 497.488 597.159 497.488 497.488> 671.75 20G<82.1338 181.783 181.783 181.783 488.484 597.159 597.159 597.159> 711.598 95.4453<389.218 398.402 389.218 412.222> 747.506 96.3916<279.123 292.771>
VStem: 82.1338 108.675<0.00976562 477.64 0.00976562 691.75> 488.484 108.675<215.806 691.75 0.00976562 691.75>
LayerCount: 2
Fore
SplineSet
597.159179688 691.75 m 1xcc
 597.159179688 0.009765625 l 1
 497.48828125 0.009765625 l 1
 190.80859375 477.639648438 l 1
 190.80859375 0.009765625 l 1
 82.1337890625 0.009765625 l 1
 82.1337890625 691.75 l 1
 181.783203125 691.75 l 1
 488.484375 215.805664062 l 1
 488.484375 691.75 l 1
 597.159179688 691.75 l 1xcc
287.198242188 843.897460938 m 0xdc
 307.977539062 843.897460938 323.252929688 839.326171875 353.8046875 822.352539062 c 0
 378.99609375 807.237304688 385.397460938 807.04296875 393.0390625 807.04296875 c 0
 403.765625 807.04296875 412.142578125 807.462890625 441.0546875 837.75 c 2
 475.25390625 873.577148438 l 1
 475.25390625 759.022460938 l 1
 461.522460938 743.14453125 434.239257812 711.59765625 390.204101562 711.59765625 c 0xec
 366.826171875 711.59765625 351.278320312 716.969726562 321.149414062 734.4140625 c 0
 320.831054688 734.624023438 300.232421875 747.505859375 285.30859375 747.505859375 c 0
 272.936523438 747.505859375 263.083007812 746.198242188 236.680664062 717.154296875 c 2
 202.149414062 679.16796875 l 1
 202.149414062 795.4296875 l 1
 219.92578125 816.34375 243.462890625 843.897460938 287.198242188 843.897460938 c 0xdc
EndSplineSet
EndChar

StartChar: Ograve
Encoding: 210 210 147
Width: 610
GlyphClass: 2
Flags: MW
HStem: -7.5498 103.006<291.535 347.719 291.535 350.891> 598.197 102.057<291.256 345.711>
VStem: 68.9053 108.675<261.775 428.096> 451.63 108.674<257.996 261.774 261.774 428.097 428.097 430.929>
LayerCount: 2
Fore
SplineSet
68.9052734375 261.775390625 m 2
 68.9052734375 430.9296875 l 2
 68.9052734375 520.072265625 89.939453125 589.293945312 136.311523438 634.595703125 c 0
 181.561523438 678.801757812 242.392578125 700.25390625 315.548828125 700.25390625 c 0
 388.119140625 700.25390625 448.506835938 678.763671875 493.42578125 634.541015625 c 0
 539.454101562 589.2265625 560.303710938 520.043945312 560.303710938 430.928710938 c 2
 560.303710938 261.774414062 l 2
 560.303710938 172.631835938 539.26953125 103.41015625 492.897460938 58.1083984375 c 0
 447.685546875 13.9404296875 387.178710938 -7.5498046875 314.603515625 -7.5498046875 c 0
 241.452148438 -7.5498046875 180.740234375 13.90234375 135.782226562 58.1630859375 c 0
 89.75390625 103.477539062 68.9052734375 172.66015625 68.9052734375 261.775390625 c 2
315.549804688 95.4560546875 m 0
 379.887695312 95.4560546875 451.629882812 118.075195312 451.629882812 257.99609375 c 2
 451.629882812 428.096679688 l 2
 451.629882812 578.0234375 375.873046875 598.197265625 315.549804688 598.197265625 c 0
 266.962890625 598.197265625 234.0546875 584.626953125 212.294921875 560.018554688 c 0
 190.801757812 535.709960938 177.580078125 492.626953125 177.580078125 428.095703125 c 2
 177.580078125 257.99609375 l 2
 177.580078125 196.797851562 190.791015625 156.01171875 212.474609375 132.541015625 c 0
 234.556640625 108.639648438 267.520507812 95.4560546875 315.549804688 95.4560546875 c 0
284.508789062 871.301757812 m 1
 409.499023438 713.487304688 l 1
 300.482421875 713.487304688 l 1
 148.979492188 871.301757812 l 1
 284.508789062 871.301757812 l 1
EndSplineSet
EndChar

StartChar: Oacute
Encoding: 211 211 148
Width: 610
GlyphClass: 2
Flags: MW
HStem: -7.5498 103.006<291.535 347.719 291.535 350.891> 598.197 102.057<291.256 345.711>
VStem: 68.9053 108.675<261.775 428.096> 451.63 108.674<257.996 261.774 261.774 428.097 428.097 430.929>
LayerCount: 2
Fore
SplineSet
68.9052734375 261.775390625 m 2
 68.9052734375 430.9296875 l 2
 68.9052734375 520.072265625 89.939453125 589.293945312 136.311523438 634.595703125 c 0
 181.561523438 678.801757812 242.392578125 700.25390625 315.548828125 700.25390625 c 0
 388.119140625 700.25390625 448.506835938 678.763671875 493.42578125 634.541015625 c 0
 539.454101562 589.2265625 560.303710938 520.043945312 560.303710938 430.928710938 c 2
 560.303710938 261.774414062 l 2
 560.303710938 172.631835938 539.26953125 103.41015625 492.897460938 58.1083984375 c 0
 447.685546875 13.9404296875 387.178710938 -7.5498046875 314.603515625 -7.5498046875 c 0
 241.452148438 -7.5498046875 180.740234375 13.90234375 135.782226562 58.1630859375 c 0
 89.75390625 103.477539062 68.9052734375 172.66015625 68.9052734375 261.775390625 c 2
315.549804688 95.4560546875 m 0
 379.887695312 95.4560546875 451.629882812 118.075195312 451.629882812 257.99609375 c 2
 451.629882812 428.096679688 l 2
 451.629882812 578.0234375 375.873046875 598.197265625 315.549804688 598.197265625 c 0
 266.962890625 598.197265625 234.0546875 584.626953125 212.294921875 560.018554688 c 0
 190.801757812 535.709960938 177.580078125 492.626953125 177.580078125 428.095703125 c 2
 177.580078125 257.99609375 l 2
 177.580078125 196.797851562 190.791015625 156.01171875 212.474609375 132.541015625 c 0
 234.556640625 108.639648438 267.520507812 95.4560546875 315.549804688 95.4560546875 c 0
327.690429688 871.301757812 m 1
 463.220703125 871.301757812 l 1
 311.717773438 713.487304688 l 1
 202.701171875 713.487304688 l 1
 327.690429688 871.301757812 l 1
EndSplineSet
EndChar

StartChar: Ocircumflex
Encoding: 212 212 149
Width: 610
GlyphClass: 2
Flags: MW
HStem: -7.5498 103.006<291.535 347.719 291.535 350.891> 598.197 102.057<291.256 345.711>
VStem: 68.9053 108.675<261.775 428.096> 451.63 108.674<257.996 261.774 261.774 428.097 428.097 430.929>
LayerCount: 2
Fore
SplineSet
68.9052734375 261.775390625 m 2
 68.9052734375 430.9296875 l 2
 68.9052734375 520.072265625 89.939453125 589.293945312 136.311523438 634.595703125 c 0
 181.561523438 678.801757812 242.392578125 700.25390625 315.548828125 700.25390625 c 0
 388.119140625 700.25390625 448.506835938 678.763671875 493.42578125 634.541015625 c 0
 539.454101562 589.2265625 560.303710938 520.043945312 560.303710938 430.928710938 c 2
 560.303710938 261.774414062 l 2
 560.303710938 172.631835938 539.26953125 103.41015625 492.897460938 58.1083984375 c 0
 447.685546875 13.9404296875 387.178710938 -7.5498046875 314.603515625 -7.5498046875 c 0
 241.452148438 -7.5498046875 180.740234375 13.90234375 135.782226562 58.1630859375 c 0
 89.75390625 103.477539062 68.9052734375 172.66015625 68.9052734375 261.775390625 c 2
315.549804688 95.4560546875 m 0
 379.887695312 95.4560546875 451.629882812 118.075195312 451.629882812 257.99609375 c 2
 451.629882812 428.096679688 l 2
 451.629882812 578.0234375 375.873046875 598.197265625 315.549804688 598.197265625 c 0
 266.962890625 598.197265625 234.0546875 584.626953125 212.294921875 560.018554688 c 0
 190.801757812 535.709960938 177.580078125 492.626953125 177.580078125 428.095703125 c 2
 177.580078125 257.99609375 l 2
 177.580078125 196.797851562 190.791015625 156.01171875 212.474609375 132.541015625 c 0
 234.556640625 108.639648438 267.520507812 95.4560546875 315.549804688 95.4560546875 c 0
278.169921875 879.806640625 m 1
 350.094726562 879.806640625 l 1
 480.702148438 704.037109375 l 1
 372.788085938 704.037109375 l 1
 314.49609375 780.950195312 l 1
 255.39453125 704.037109375 l 1
 147.563476562 704.037109375 l 1
 278.169921875 879.806640625 l 1
EndSplineSet
EndChar

StartChar: Otilde
Encoding: 213 213 150
Width: 610
GlyphClass: 2
Flags: MW
HStem: -7.5498 103.006<291.535 347.719 291.535 350.891> 598.197 102.057<291.256 345.711> 711.6 95.4453<364.649 373.833 364.649 387.653> 747.508 96.3916<254.554 268.202>
VStem: 68.9053 108.675<261.775 428.096> 451.63 108.674<257.996 261.774 261.774 428.097 428.097 430.929>
LayerCount: 2
Fore
SplineSet
68.9052734375 261.775390625 m 2xcc
 68.9052734375 430.9296875 l 2
 68.9052734375 520.072265625 89.939453125 589.293945312 136.311523438 634.595703125 c 0
 181.561523438 678.801757812 242.392578125 700.25390625 315.548828125 700.25390625 c 0
 388.119140625 700.25390625 448.506835938 678.763671875 493.42578125 634.541015625 c 0
 539.454101562 589.2265625 560.303710938 520.043945312 560.303710938 430.928710938 c 2
 560.303710938 261.774414062 l 2
 560.303710938 172.631835938 539.26953125 103.41015625 492.897460938 58.1083984375 c 0
 447.685546875 13.9404296875 387.178710938 -7.5498046875 314.603515625 -7.5498046875 c 0
 241.452148438 -7.5498046875 180.740234375 13.90234375 135.782226562 58.1630859375 c 0
 89.75390625 103.477539062 68.9052734375 172.66015625 68.9052734375 261.775390625 c 2xcc
315.549804688 95.4560546875 m 0
 379.887695312 95.4560546875 451.629882812 118.075195312 451.629882812 257.99609375 c 2
 451.629882812 428.096679688 l 2
 451.629882812 578.0234375 375.873046875 598.197265625 315.549804688 598.197265625 c 0
 266.962890625 598.197265625 234.0546875 584.626953125 212.294921875 560.018554688 c 0
 190.801757812 535.709960938 177.580078125 492.626953125 177.580078125 428.095703125 c 2
 177.580078125 257.99609375 l 2
 177.580078125 196.797851562 190.791015625 156.01171875 212.474609375 132.541015625 c 0
 234.556640625 108.639648438 267.520507812 95.4560546875 315.549804688 95.4560546875 c 0
262.62890625 843.899414062 m 0xdc
 283.408203125 843.899414062 298.68359375 839.328125 329.235351562 822.354492188 c 0
 354.426757812 807.239257812 360.828125 807.044921875 368.469726562 807.044921875 c 0
 379.196289062 807.044921875 387.57421875 807.46484375 416.485351562 837.751953125 c 2
 450.684570312 873.578125 l 1
 450.684570312 759.024414062 l 1
 436.953125 743.146484375 409.670898438 711.599609375 365.634765625 711.599609375 c 0xec
 342.256835938 711.599609375 326.708984375 716.971679688 296.580078125 734.416015625 c 0
 296.26171875 734.625 275.6640625 747.5078125 260.740234375 747.5078125 c 0
 248.368164062 747.5078125 238.514648438 746.200195312 212.111328125 717.15625 c 2
 177.580078125 679.169921875 l 1
 177.580078125 795.431640625 l 1
 195.356445312 816.345703125 218.893554688 843.899414062 262.62890625 843.899414062 c 0xdc
EndSplineSet
EndChar

StartChar: Odieresis
Encoding: 214 214 151
Width: 610
GlyphClass: 2
Flags: MW
HStem: -7.5498 103.006<291.535 347.719 291.535 350.891> 598.197 102.057<291.256 345.711> 719.157 120.96<177.58 289.09 177.58 289.09 177.58 339.175 339.175 450.685>
VStem: 68.9053 108.675<261.775 428.096> 177.58 111.51<719.157 840.117 719.157 840.117> 339.175 111.51<719.157 840.117 719.157 840.117> 451.63 108.674<257.996 261.774 261.774 428.097 428.097 430.929>
LayerCount: 2
Fore
SplineSet
68.9052734375 261.775390625 m 2xf6
 68.9052734375 430.9296875 l 2
 68.9052734375 520.072265625 89.939453125 589.293945312 136.311523438 634.595703125 c 0
 181.561523438 678.801757812 242.392578125 700.25390625 315.548828125 700.25390625 c 0
 388.119140625 700.25390625 448.506835938 678.763671875 493.42578125 634.541015625 c 0
 539.454101562 589.2265625 560.303710938 520.043945312 560.303710938 430.928710938 c 2
 560.303710938 261.774414062 l 2
 560.303710938 172.631835938 539.26953125 103.41015625 492.897460938 58.1083984375 c 0
 447.685546875 13.9404296875 387.178710938 -7.5498046875 314.603515625 -7.5498046875 c 0
 241.452148438 -7.5498046875 180.740234375 13.90234375 135.782226562 58.1630859375 c 0
 89.75390625 103.477539062 68.9052734375 172.66015625 68.9052734375 261.775390625 c 2xf6
315.549804688 95.4560546875 m 0
 379.887695312 95.4560546875 451.629882812 118.075195312 451.629882812 257.99609375 c 2
 451.629882812 428.096679688 l 2
 451.629882812 578.0234375 375.873046875 598.197265625 315.549804688 598.197265625 c 0
 266.962890625 598.197265625 234.0546875 584.626953125 212.294921875 560.018554688 c 0
 190.801757812 535.709960938 177.580078125 492.626953125 177.580078125 428.095703125 c 2
 177.580078125 257.99609375 l 2
 177.580078125 196.797851562 190.791015625 156.01171875 212.474609375 132.541015625 c 0
 234.556640625 108.639648438 267.520507812 95.4560546875 315.549804688 95.4560546875 c 0
177.580078125 840.1171875 m 1xee
 289.08984375 840.1171875 l 1
 289.08984375 719.157226562 l 1
 177.580078125 719.157226562 l 1
 177.580078125 840.1171875 l 1xee
339.174804688 840.1171875 m 1
 450.684570312 840.1171875 l 1
 450.684570312 719.157226562 l 1
 339.174804688 719.157226562 l 1
 339.174804688 840.1171875 l 1
EndSplineSet
EndChar

StartChar: multiply
Encoding: 215 215 152
Width: 517
GlyphClass: 2
Flags: W
LayerCount: 2
Fore
SplineSet
268.298828125 211.03515625 m 1
 152.064453125 94.80078125 l 1
 82.4814453125 164.383789062 l 1
 198.715820312 281.563476562 l 1
 82.4248046875 397.85546875 l 1
 152.064453125 467.494140625 l 1
 268.298828125 351.259765625 l 1
 384.376953125 467.337890625 l 1
 455.27734375 398.013671875 l 1
 338.827148438 281.563476562 l 1
 455.21875 164.224609375 l 1
 384.376953125 94.95703125 l 1
 268.298828125 211.03515625 l 1
EndSplineSet
EndChar

StartChar: Oslash
Encoding: 216 216 153
Width: 610
GlyphClass: 2
Flags: MW
HStem: -7.54883 103.005<297.543 347.718 297.543 350.891> 598.196 102.059<291.256 333.101>
VStem: 68.9043 108.675<261.776 428.095> 451.629 108.675<257.996 261.775 261.775 428.096 428.096 430.93>
LayerCount: 2
Fore
SplineSet
474.265625 710.650390625 m 1
 574.844726562 710.650390625 l 1
 514.984375 607.044921875 l 1
 545.89453125 561.938476562 560.303710938 502.6875 560.303710938 430.9296875 c 2
 560.303710938 261.775390625 l 2
 560.303710938 172.6328125 539.26953125 103.411132812 492.897460938 58.109375 c 0
 447.685546875 13.94140625 387.178710938 -7.548828125 314.603515625 -7.548828125 c 0
 262.509765625 -7.548828125 217.1796875 2.650390625 179.68359375 24.021484375 c 1
 155.049804688 -18.888671875 l 1
 54.36328125 -18.888671875 l 1
 114.225585938 84.71875 l 1
 83.2919921875 129.8984375 68.904296875 189.4609375 68.904296875 261.776367188 c 2
 68.904296875 430.930664062 l 2
 68.904296875 520.073242188 89.9384765625 589.294921875 136.310546875 634.596679688 c 0
 181.560546875 678.802734375 242.391601562 700.254882812 315.547851562 700.254882812 c 0
 367.192382812 700.254882812 412.260742188 690.01171875 449.67578125 668.609375 c 1
 474.265625 710.650390625 l 1
315.548828125 598.196289062 m 0
 266.962890625 598.196289062 234.053710938 584.625976562 212.293945312 560.017578125 c 0
 190.80078125 535.708984375 177.579101562 492.625976562 177.579101562 428.094726562 c 2
 177.579101562 257.995117188 l 2
 177.579101562 237.263671875 179.154296875 218.784179688 182.129882812 202.54296875 c 1
 396.850585938 576.653320312 l 1
 377.112304688 590.58984375 350.65234375 598.196289062 315.548828125 598.196289062 c 0
315.548828125 95.4560546875 m 0
 379.88671875 95.4560546875 451.62890625 118.075195312 451.62890625 257.99609375 c 2
 451.62890625 428.095703125 l 2
 451.62890625 450.46875 449.952148438 470.383789062 446.780273438 487.84375 c 1
 232.646484375 115.579101562 l 1
 252.467773438 102.669921875 279.537109375 95.4560546875 315.548828125 95.4560546875 c 0
EndSplineSet
EndChar

StartChar: Ugrave
Encoding: 217 217 154
Width: 635
GlyphClass: 2
Flags: MW
HStem: -5.66016 101.115<305.366 348.057 305.366 396.805> 671.75 20G<82.1338 191.754 191.754 191.754 462.024 570.699 570.699 570.699>
VStem: 82.1338 109.62<232.48 238.15 238.15 691.75> 462.024 108.675<238.15 691.75>
LayerCount: 2
Fore
SplineSet
326.888671875 -5.66015625 m 0
 182.041992188 -5.66015625 82.1337890625 96.19921875 82.1337890625 232.48046875 c 2
 82.1337890625 691.75 l 1
 191.75390625 691.75 l 1
 191.75390625 238.150390625 l 2
 191.75390625 192.124023438 204.421875 158.217773438 228.298828125 133.268554688 c 0
 252.161132812 108.333984375 283.842773438 95.455078125 326.888671875 95.455078125 c 0
 369.225585938 95.455078125 400.823242188 108.278320312 425.083984375 133.348632812 c 0
 449.243164062 158.3125 462.024414062 192.173828125 462.024414062 238.150390625 c 2
 462.024414062 691.75 l 1
 570.69921875 691.75 l 1
 570.69921875 232.48046875 l 2
 570.69921875 90.0126953125 466.720703125 -5.66015625 326.888671875 -5.66015625 c 0
295.848632812 871.30078125 m 1
 420.837890625 713.486328125 l 1
 311.821289062 713.486328125 l 1
 160.318359375 871.30078125 l 1
 295.848632812 871.30078125 l 1
EndSplineSet
EndChar

StartChar: Uacute
Encoding: 218 218 155
Width: 635
GlyphClass: 2
Flags: MW
HStem: -5.66016 101.115<305.366 348.057 305.366 396.805> 671.75 20G<82.1338 191.754 191.754 191.754 462.024 570.699 570.699 570.699>
VStem: 82.1338 109.62<232.48 238.15 238.15 691.75> 462.024 108.675<238.15 691.75>
LayerCount: 2
Fore
SplineSet
326.888671875 -5.66015625 m 0
 182.041992188 -5.66015625 82.1337890625 96.19921875 82.1337890625 232.48046875 c 2
 82.1337890625 691.75 l 1
 191.75390625 691.75 l 1
 191.75390625 238.150390625 l 2
 191.75390625 192.124023438 204.421875 158.217773438 228.298828125 133.268554688 c 0
 252.161132812 108.333984375 283.842773438 95.455078125 326.888671875 95.455078125 c 0
 369.225585938 95.455078125 400.823242188 108.278320312 425.083984375 133.348632812 c 0
 449.243164062 158.3125 462.024414062 192.173828125 462.024414062 238.150390625 c 2
 462.024414062 691.75 l 1
 570.69921875 691.75 l 1
 570.69921875 232.48046875 l 2
 570.69921875 90.0126953125 466.720703125 -5.66015625 326.888671875 -5.66015625 c 0
339.030273438 871.30078125 m 1
 474.559570312 871.30078125 l 1
 323.056640625 713.486328125 l 1
 214.040039062 713.486328125 l 1
 339.030273438 871.30078125 l 1
EndSplineSet
EndChar

StartChar: Ucircumflex
Encoding: 219 219 156
Width: 635
GlyphClass: 2
Flags: MW
HStem: -5.66016 101.115<305.366 348.057 305.366 396.805> 671.75 20G<82.1338 191.754 191.754 191.754 462.024 570.699 570.699 570.699>
VStem: 82.1338 109.62<232.48 238.15 238.15 691.75> 462.024 108.675<238.15 691.75>
LayerCount: 2
Fore
SplineSet
326.888671875 -5.66015625 m 0
 182.041992188 -5.66015625 82.1337890625 96.19921875 82.1337890625 232.48046875 c 2
 82.1337890625 691.75 l 1
 191.75390625 691.75 l 1
 191.75390625 238.150390625 l 2
 191.75390625 192.124023438 204.421875 158.217773438 228.298828125 133.268554688 c 0
 252.161132812 108.333984375 283.842773438 95.455078125 326.888671875 95.455078125 c 0
 369.225585938 95.455078125 400.823242188 108.278320312 425.083984375 133.348632812 c 0
 449.243164062 158.3125 462.024414062 192.173828125 462.024414062 238.150390625 c 2
 462.024414062 691.75 l 1
 570.69921875 691.75 l 1
 570.69921875 232.48046875 l 2
 570.69921875 90.0126953125 466.720703125 -5.66015625 326.888671875 -5.66015625 c 0
289.508789062 879.805664062 m 1
 361.43359375 879.805664062 l 1
 492.041015625 704.036132812 l 1
 384.126953125 704.036132812 l 1
 325.834960938 780.94921875 l 1
 266.733398438 704.036132812 l 1
 158.90234375 704.036132812 l 1
 289.508789062 879.805664062 l 1
EndSplineSet
EndChar

StartChar: Udieresis
Encoding: 220 220 157
Width: 635
GlyphClass: 2
Flags: MW
HStem: -5.66016 101.115<305.366 348.057 305.366 396.805> 671.75 20G<82.1338 191.754 191.754 191.754 462.024 570.699 570.699 570.699> 719.156 120.96<188.919 300.429 188.919 300.429 188.919 350.514 350.514 462.024>
VStem: 82.1338 109.62<232.48 238.15 238.15 691.75> 188.919 111.51<719.156 840.116 719.156 840.116> 350.514 111.511<719.156 840.116> 462.024 108.675<238.15 691.75>
LayerCount: 2
Fore
SplineSet
326.888671875 -5.66015625 m 0xf2
 182.041992188 -5.66015625 82.1337890625 96.19921875 82.1337890625 232.48046875 c 2
 82.1337890625 691.75 l 1
 191.75390625 691.75 l 1
 191.75390625 238.150390625 l 2
 191.75390625 192.124023438 204.421875 158.217773438 228.298828125 133.268554688 c 0
 252.161132812 108.333984375 283.842773438 95.455078125 326.888671875 95.455078125 c 0
 369.225585938 95.455078125 400.823242188 108.278320312 425.083984375 133.348632812 c 0
 449.243164062 158.3125 462.024414062 192.173828125 462.024414062 238.150390625 c 2
 462.024414062 691.75 l 1
 570.69921875 691.75 l 1
 570.69921875 232.48046875 l 2
 570.69921875 90.0126953125 466.720703125 -5.66015625 326.888671875 -5.66015625 c 0xf2
188.918945312 840.116210938 m 1xe8
 300.428710938 840.116210938 l 1
 300.428710938 719.15625 l 1
 188.918945312 719.15625 l 1
 188.918945312 840.116210938 l 1xe8
350.513671875 840.116210938 m 1xe4
 462.024414062 840.116210938 l 1
 462.024414062 719.15625 l 1
 350.513671875 719.15625 l 1
 350.513671875 840.116210938 l 1xe4
EndSplineSet
EndChar

StartChar: Yacute
Encoding: 221 221 158
Width: 504
GlyphClass: 2
Flags: MW
HStem: 0.00976562 21G<207.819 316.494 207.819 207.819> 671.75 20G<0.450195 119.999 119.999 119.999 404.348 523.826 523.826 523.826>
VStem: 207.819 108.675<0.00976562 288.157 0.00976562 289.092 0.00976562 289.092>
LayerCount: 2
Fore
SplineSet
404.34765625 691.75 m 1
 523.826171875 691.75 l 1
 316.494140625 288.157226562 l 1
 316.494140625 0.009765625 l 1
 207.819335938 0.009765625 l 1
 207.819335938 289.091796875 l 1
 0.4501953125 691.75 l 1
 119.999023438 691.75 l 1
 261.73828125 403.923828125 l 1
 404.34765625 691.75 l 1
275.71484375 871.299804688 m 1
 411.244140625 871.299804688 l 1
 259.7421875 713.485351562 l 1
 150.725585938 713.485351562 l 1
 275.71484375 871.299804688 l 1
EndSplineSet
EndChar

StartChar: Thorn
Encoding: 222 222 159
Width: 579
GlyphClass: 2
Flags: MW
HStem: 0.00976562 21G<82.1338 190.809 82.1338 82.1338> 150.265 102.061<190.809 321.219 321.219 326.889 190.809 321.219> 471.565 101.114<190.809 321.219 190.809 326.889> 671.75 20G<82.1338 190.809 190.809 190.809>
VStem: 82.1338 108.675<0.00976562 150.265 0.00976562 252.325 252.325 471.565 572.68 691.75> 443.124 108.675<341.815 378.042>
LayerCount: 2
Fore
SplineSet
551.798828125 358.165039062 m 0
 551.798828125 295.315429688 531.516601562 243.110351562 489.987304688 205.486328125 c 0
 448.701171875 168.081054688 393.372070312 150.264648438 326.888671875 150.264648438 c 2
 190.80859375 150.264648438 l 1
 190.80859375 0.009765625 l 1
 82.1337890625 0.009765625 l 1
 82.1337890625 691.75 l 1
 190.80859375 691.75 l 1
 190.80859375 572.6796875 l 1
 326.888671875 572.6796875 l 2
 393.986328125 572.6796875 449.55859375 554.715820312 490.591796875 516.866210938 c 0
 532.016601562 478.655273438 551.798828125 424.403320312 551.798828125 358.165039062 c 0
321.21875 252.325195312 m 2
 438.225585938 252.325195312 443.124023438 325.465820312 443.124023438 358.165039062 c 0
 443.124023438 397.918945312 434.956054688 471.565429688 321.21875 471.565429688 c 2
 190.80859375 471.565429688 l 1
 190.80859375 252.325195312 l 1
 321.21875 252.325195312 l 2
EndSplineSet
EndChar

StartChar: germandbls
Encoding: 223 223 160
Width: 510
GlyphClass: 2
Flags: MW
HStem: -3.76953 98.2793<243.729 288.144 288.144 290.979 243.729 288.144> 371.396 98.2803<242.783 282.473 242.783 288.144> 600.086 98.2803<253.656 299.039 238.15 309.185>
VStem: 77.4082 103.95<0.0107422 498.026 498.026 506.531 0.0107422 529.055> 355.238 104.896<520.264 548.411> 362.798 104.896<211.062 253.266>
LayerCount: 2
Fore
SplineSet
415.655273438 424.10546875 m 1xf8
 460.314453125 389.048828125 467.694335938 336.227539062 467.694335938 232.48046875 c 0
 467.694335938 176.109375 463.98828125 132.040039062 455.762695312 99.138671875 c 0
 432.44921875 5.884765625 351.408203125 -3.76953125 290.978515625 -3.76953125 c 2
 243.728515625 -3.76953125 l 1
 243.728515625 94.509765625 l 1
 288.143554688 94.509765625 l 2
 315.1328125 94.509765625 331.764648438 99.7265625 339.447265625 105.580078125 c 0
 347.873046875 112 354.275390625 122.206054688 357.448242188 139.658203125 c 0
 360.818359375 158.19140625 362.797851562 189.641601562 362.797851562 232.481445312 c 0xf4
 362.797851562 274.05078125 360.834960938 304.98046875 357.439453125 323.9375 c 0
 354.305664062 341.432617188 347.646484375 352.115234375 338.09375 359.333007812 c 0
 329.4375 365.873046875 311.349609375 371.395507812 282.47265625 371.395507812 c 2
 242.783203125 371.395507812 l 1
 242.783203125 469.67578125 l 1
 288.143554688 469.67578125 l 2
 316.514648438 469.67578125 332.7734375 476.215820312 340.735351562 484.178710938 c 0
 349.08203125 492.525390625 355.23828125 507.537109375 355.23828125 532.991210938 c 0
 355.23828125 563.830078125 347.236328125 600.0859375 271.1328125 600.0859375 c 0
 236.178710938 600.0859375 214.4921875 591.6796875 202.126953125 579.09375 c 0
 189.860351562 566.608398438 181.358398438 543.638671875 181.358398438 506.53125 c 2
 181.358398438 0.0107421875 l 1
 77.408203125 0.0107421875 l 1
 77.408203125 498.026367188 l 2
 77.408203125 560.083984375 91.5205078125 610.299804688 123.036132812 645.844726562 c 0
 155.426757812 682.377929688 206.110351562 698.366210938 270.189453125 698.366210938 c 0
 327.888671875 698.366210938 375.126953125 685.147460938 409.27734375 655.770507812 c 0
 443.55078125 626.287109375 460.133789062 584.231445312 460.133789062 533.934570312 c 0
 460.133789062 484.704101562 445.856445312 449.752929688 415.655273438 424.10546875 c 1xf8
EndSplineSet
EndChar

StartChar: agrave
Encoding: 224 224 161
Width: 503
GlyphClass: 2
Flags: MW
HStem: -5.66113 91.666<202.841 257.905> 224.92 86.9395<231.445 240.895 240.895 341.064> 431.875 93.5547<237.299 280.852 223.926 292.824> 678.366 20G<93.2246 228.754 228.754 228.754>
VStem: 50.9502 103.95<140.015 170.952 140.015 198.296> 65.124 102.06<345.88 368.56 345.88 370.45 345.88 393.465> 341.064 103.95<182.396 224.92 224.92 224.92 311.859 345.88 0.00976562 346.824 0.00976562 362.84>
LayerCount: 2
Fore
SplineSet
341.064453125 346.82421875 m 2xfa
 341.064453125 378.856445312 333.413085938 431.875 252.235351562 431.875 c 0
 222.36328125 431.875 201.528320312 425.104492188 187.567382812 413.983398438 c 0
 173.845703125 403.051757812 167.18359375 389.346679688 167.18359375 368.559570312 c 2
 167.18359375 345.879882812 l 1
 65.1240234375 345.879882812 l 1
 65.1240234375 370.450195312 l 2xf6
 65.1240234375 416.479492188 82.541015625 455.642578125 116.723632812 484.0078125 c 0
 150.90625 512.373046875 196.563476562 525.4296875 251.2890625 525.4296875 c 0
 310.415039062 525.4296875 358.83984375 511.124023438 393.591796875 479.6640625 c 0
 428.654296875 447.923828125 445.014648438 401.893554688 445.014648438 345.879882812 c 2
 445.014648438 0.009765625 l 1
 342.009765625 0.009765625 l 1
 342.009765625 24.1328125 l 1
 319.829101562 8.71875 286.255859375 -5.6611328125 229.553710938 -5.6611328125 c 0
 176.12890625 -5.6611328125 131.864257812 7.0458984375 99.4140625 35.0703125 c 0
 66.4638671875 63.52734375 50.9501953125 105.016601562 50.9501953125 154.989257812 c 0
 50.9501953125 241.603515625 106.806640625 311.859375 231.4453125 311.859375 c 2
 341.064453125 311.859375 l 1
 341.064453125 346.82421875 l 2xfa
154.900390625 155.934570312 m 0xfa
 154.900390625 124.095703125 163.771484375 86.0048828125 239.950195312 86.0048828125 c 0
 279.4921875 86.0048828125 304.258789062 95.212890625 318.057617188 109.012695312 c 0
 332.205078125 123.159179688 341.064453125 146.37109375 341.064453125 182.395507812 c 2
 341.064453125 224.919921875 l 1
 240.89453125 224.919921875 l 2
 162.698242188 224.919921875 154.900390625 185.969726562 154.900390625 155.934570312 c 0xfa
93.224609375 698.366210938 m 1
 228.75390625 698.366210938 l 1
 353.743164062 540.55078125 l 1
 244.7265625 540.55078125 l 1
 93.224609375 698.366210938 l 1
EndSplineSet
EndChar

